<svg version="1.1" xmlns="http://www.w3.org/2000/svg" viewBox="0 0 1601.3161546850483 839.6000625610352" width="4803.948464055145" height="2518.800187683106" filter="invert(93%) hue-rotate(180deg)">
  <!-- svg-source:excalidraw -->
  
  <defs>
    <style class="style-fonts">
      @font-face {
        font-family: "Virgil";
        src: url("https://excalidraw.com/Virgil.woff2");
      }
      @font-face {
        font-family: "Cascadia";
        src: url("https://excalidraw.com/Cascadia.woff2");
      }
    </style>
  </defs>
  <rect x="0" y="0" width="1601.3161546850483" height="839.6000625610352" fill="#ffffff"></rect><g stroke-linecap="round"><g transform="translate(10.070305075673389 36.300006103515614) rotate(0 110.9395422007004 0.062324402569799986)"><path d="M0.91 0.11 C37.85 0.39, 184.97 0.87, 221.95 1 M-0.07 -0.88 C36.65 -0.86, 183.72 -0.59, 220.76 -0.6" stroke="#000000" stroke-width="1" fill="none"></path></g><g transform="translate(10.070305075673389 36.300006103515614) rotate(0 110.9395422007004 0.062324402569799986)"><path d="M192.75 8.89 C203.47 6.72, 212.52 3.21, 219.75 1.03 M193.45 8.84 C204.48 6.4, 215.06 1.72, 221.45 -1.27" stroke="#000000" stroke-width="1" fill="none"></path></g><g transform="translate(10.070305075673389 36.300006103515614) rotate(0 110.9395422007004 0.062324402569799986)"><path d="M192.77 -11.63 C203.37 -7.12, 212.42 -3.95, 219.75 1.03 M193.47 -11.69 C204.43 -5.98, 215.01 -2.52, 221.45 -1.27" stroke="#000000" stroke-width="1" fill="none"></path></g></g><mask></mask><g transform="translate(11.670311179189014 10) rotate(0 62.71484375 9.200000000000003)"><text x="0" y="0" font-family="Helvetica, Segoe UI Emoji" font-size="16px" fill="#000000" text-anchor="start" style="white-space: pre;" direction="ltr" dominant-baseline="text-before-edge">Change detection</text></g><g stroke-linecap="round"><g transform="translate(10.930720150363697 110.2495186306536) rotate(0 111.20042175799608 -0.6305653765797672)"><path d="M0.23 -1 C37.34 -0.92, 185.12 -0.26, 222.18 -0.26" stroke="#000000" stroke-width="1.5" fill="none" stroke-dasharray="8 9"></path></g><g transform="translate(10.930720150363697 110.2495186306536) rotate(0 111.20042175799608 -0.6305653765797672)"><path d="M192.29 9.55 C200.81 7.57, 206.8 5.88, 222.24 0.54" stroke="#000000" stroke-width="1.5" fill="none"></path></g><g transform="translate(10.930720150363697 110.2495186306536) rotate(0 111.20042175799608 -0.6305653765797672)"><path d="M192.34 -10.97 C200.72 -7.7, 206.69 -4.14, 222.24 0.54" stroke="#000000" stroke-width="1.5" fill="none"></path></g></g><mask></mask><g transform="translate(16.530726253879322 78.74954609647392) rotate(0 92.5078125 9.200000000000003)"><text x="0" y="0" font-family="Helvetica, Segoe UI Emoji" font-size="16px" fill="#000000" text-anchor="start" style="white-space: pre;" direction="ltr" dominant-baseline="text-before-edge">Model logical dependency</text></g><g stroke-linecap="round" transform="translate(13.270317282704639 154.10000915527343) rotate(0 23.599990844726562 23.599990844726562)"><path d="M11.8 0 M11.8 0 C21.47 1.85, 26.64 1.15, 35.4 0 M11.8 0 C21.08 -0.04, 30.26 -0.11, 35.4 0 M35.4 0 C41.73 -0.63, 46.14 4.83, 47.2 11.8 M35.4 0 C45.32 2.28, 47.87 2.64, 47.2 11.8 M47.2 11.8 C48.39 19.74, 46.04 23.69, 47.2 35.4 M47.2 11.8 C47.23 18.34, 48.02 26.37, 47.2 35.4 M47.2 35.4 C49.01 44.51, 44.47 46.16, 35.4 47.2 M47.2 35.4 C47.18 42.88, 42.73 48.85, 35.4 47.2 M35.4 47.2 C29.34 46.14, 26.04 48.72, 11.8 47.2 M35.4 47.2 C28.66 47.94, 23.03 47.86, 11.8 47.2 M11.8 47.2 C2.09 48.29, 1.86 43.18, 0 35.4 M11.8 47.2 C2.67 45.01, 0.81 44.77, 0 35.4 M0 35.4 C-1.72 30.45, -0.56 25.26, 0 11.8 M0 35.4 C-1.17 28.07, 0.52 22.27, 0 11.8 M0 11.8 C1.21 5.74, 4.53 1.31, 11.8 0 M0 11.8 C1.09 4.79, 6.21 -1.03, 11.8 0" stroke="#000000" stroke-width="1" fill="none"></path></g><g transform="translate(79.67031117918901 170.89999694824218) rotate(0 40.01171875 9.199999999999989)"><text x="0" y="0" font-family="Helvetica, Segoe UI Emoji" font-size="16px" fill="#000000" text-anchor="start" style="white-space: pre;" direction="ltr" dominant-baseline="text-before-edge">DOM Node</text></g><g stroke-linecap="round" transform="translate(15.670311179189014 219.70001525878905) rotate(0 23.599990844726562 23.599990844726562)"><path d="M12.07 2.74 C16.14 0.02, 23.66 -1.32, 28.75 -0.26 C33.83 0.79, 39.48 4.89, 42.6 9.05 C45.72 13.21, 47.62 19.61, 47.48 24.7 C47.34 29.79, 45.42 35.91, 41.78 39.57 C38.13 43.23, 30.64 45.89, 25.6 46.68 C20.57 47.47, 15.54 46.84, 11.55 44.31 C7.56 41.78, 3.24 36.36, 1.67 31.5 C0.1 26.63, -0.09 20.01, 2.14 15.13 C4.36 10.24, 12.45 4.51, 15.01 2.18 C17.57 -0.15, 17.56 0.71, 17.47 1.15 M12.43 2.2 C16.68 0.1, 24.58 -0.04, 29.71 1.25 C34.83 2.55, 40.26 5.77, 43.2 9.97 C46.14 14.17, 47.65 21.42, 47.35 26.45 C47.06 31.47, 45.28 36.64, 41.41 40.12 C37.55 43.61, 29.36 46.91, 24.16 47.37 C18.96 47.83, 14.31 45.72, 10.21 42.88 C6.11 40.04, 1.1 35.37, -0.41 30.33 C-1.92 25.29, -0.97 17.49, 1.18 12.66 C3.32 7.82, 10.52 2.97, 12.47 1.31 C14.42 -0.36, 12.59 2.2, 12.86 2.67" stroke="#000000" stroke-width="1" fill="none"></path></g><g transform="translate(82.87029286864214 230.89999694824218) rotate(0 21.7890625 9.199999999999989)"><text x="0" y="0" font-family="Helvetica, Segoe UI Emoji" font-size="16px" fill="#000000" text-anchor="start" style="white-space: pre;" direction="ltr" dominant-baseline="text-before-edge">Model</text></g><g stroke-linecap="round" transform="translate(396.4703294897359 25.300006103515614) rotate(0 44.79998779296875 44.79998779296875)"><path d="M22.4 0 M22.4 0 C34.38 0.98, 45.61 -1.8, 67.2 0 M22.4 0 C35.03 0.3, 47.73 0.45, 67.2 0 M67.2 0 C83.34 1.28, 89.99 5.77, 89.6 22.4 M67.2 0 C79.91 1.97, 89.68 5.47, 89.6 22.4 M89.6 22.4 C90.5 37.14, 89.91 47.68, 89.6 67.2 M89.6 22.4 C89.6 35.67, 89.54 49.19, 89.6 67.2 M89.6 67.2 C90.49 82.98, 80.15 89.27, 67.2 89.6 M89.6 67.2 C88.75 81.7, 79.88 89.88, 67.2 89.6 M67.2 89.6 C50.49 88.76, 37.58 88.33, 22.4 89.6 M67.2 89.6 C49.18 88.86, 33.34 89.79, 22.4 89.6 M22.4 89.6 C6.84 90.26, -0.23 82.72, 0 67.2 M22.4 89.6 C5.28 89.95, 1.29 80.3, 0 67.2 M0 67.2 C-1.41 47.9, 1.24 33.08, 0 22.4 M0 67.2 C0.79 53.27, 0.4 41.87, 0 22.4 M0 22.4 C-1.29 7.87, 5.56 -0.29, 22.4 0 M0 22.4 C0.78 5.34, 7.81 -0.44, 22.4 0" stroke="#000000" stroke-width="1" fill="none"></path></g><g stroke-linecap="round" transform="translate(307.0703050756734 145.50001831054686) rotate(0 44.79998779296875 44.79998779296875)"><path d="M22.4 0 M22.4 0 C40.05 2.12, 55.53 0.78, 67.2 0 M22.4 0 C30.65 0, 40.56 -0.99, 67.2 0 M67.2 0 C83.73 -0.67, 89.03 6.43, 89.6 22.4 M67.2 0 C80.52 -0.47, 88.39 5.28, 89.6 22.4 M89.6 22.4 C89.27 31.64, 88.03 46.22, 89.6 67.2 M89.6 22.4 C89.04 31.51, 90.77 42.4, 89.6 67.2 M89.6 67.2 C89.63 83.29, 80.23 87.9, 67.2 89.6 M89.6 67.2 C90.68 83.37, 80.9 91.27, 67.2 89.6 M67.2 89.6 C54.34 91.42, 40.13 88.9, 22.4 89.6 M67.2 89.6 C53.13 89, 40.55 89.93, 22.4 89.6 M22.4 89.6 C7.92 89.94, 1.95 84.12, 0 67.2 M22.4 89.6 C6.13 90.28, -1.98 83.25, 0 67.2 M0 67.2 C1.64 53.62, -1.52 40.61, 0 22.4 M0 67.2 C0.39 51.02, 0.08 33.85, 0 22.4 M0 22.4 C0.18 6.27, 6.5 1.84, 22.4 0 M0 22.4 C-0.21 6.46, 8.32 -2.26, 22.4 0" stroke="#000000" stroke-width="1" fill="none"></path></g><g stroke-linecap="round" transform="translate(482.87029286864214 148.70001525878905) rotate(0 44.79998779296875 44.79998779296875)"><path d="M22.4 0 M22.4 0 C32.65 -1.28, 42.2 -0.4, 67.2 0 M22.4 0 C34.18 -0.55, 43.9 -0.12, 67.2 0 M67.2 0 C83.25 1.77, 87.64 5.48, 89.6 22.4 M67.2 0 C81.03 -0.16, 90.12 7.86, 89.6 22.4 M89.6 22.4 C90.64 38.49, 91.02 57.58, 89.6 67.2 M89.6 22.4 C88.67 36.69, 88.39 53.11, 89.6 67.2 M89.6 67.2 C88.51 82.74, 82.42 91.03, 67.2 89.6 M89.6 67.2 C89.22 83.14, 82.34 88.22, 67.2 89.6 M67.2 89.6 C55.05 90.3, 42.7 88.44, 22.4 89.6 M67.2 89.6 C53.26 89.18, 40.19 89.06, 22.4 89.6 M22.4 89.6 C6.9 87.93, 1.62 83.32, 0 67.2 M22.4 89.6 C9.39 89.16, -0.29 79.94, 0 67.2 M0 67.2 C0.52 49.88, 0.66 35.22, 0 22.4 M0 67.2 C-0.31 53.03, -0.02 38.86, 0 22.4 M0 22.4 C0.03 8.15, 7.83 -1.33, 22.4 0 M0 22.4 C1.28 7.93, 9.43 0.77, 22.4 0" stroke="#000000" stroke-width="1" fill="none"></path></g><g stroke-linecap="round" transform="translate(485.6702806616109 303.50006408691405) rotate(0 44.79998779296875 44.79998779296875)"><path d="M22.4 0 M22.4 0 C36.65 -0.75, 45.94 -1.31, 67.2 0 M22.4 0 C39.43 0.58, 56.02 0.3, 67.2 0 M67.2 0 C82.31 -1.2, 88.63 9.31, 89.6 22.4 M67.2 0 C81.92 -1.01, 90.45 5.21, 89.6 22.4 M89.6 22.4 C89.72 32.27, 88.7 43.85, 89.6 67.2 M89.6 22.4 C90.28 33.89, 90.31 44.01, 89.6 67.2 M89.6 67.2 C89.35 80.23, 82.99 90.67, 67.2 89.6 M89.6 67.2 C88.58 83.01, 79.87 90.63, 67.2 89.6 M67.2 89.6 C58.06 89.08, 46.63 89.68, 22.4 89.6 M67.2 89.6 C51.33 89.09, 35.65 89.95, 22.4 89.6 M22.4 89.6 C9.17 90.27, 1.19 81.65, 0 67.2 M22.4 89.6 C5.73 87.3, 0.74 84.36, 0 67.2 M0 67.2 C-0.68 57.45, -1.7 45.16, 0 22.4 M0 67.2 C-0.01 52.66, -0.29 37.15, 0 22.4 M0 22.4 C1.33 6.56, 6.26 -1.1, 22.4 0 M0 22.4 C1.05 8.57, 8.05 -1.24, 22.4 0" stroke="#000000" stroke-width="1" fill="none"></path></g><g stroke-linecap="round"><g transform="translate(391.67034169676714 70.09999389648436) rotate(0 -20.520135897889077 35.25492200984833)"><path d="M0.24 1.12 C-6.72 12.44, -34.38 57.24, -41.28 68.8 M-1.09 0.66 C-7.73 12.03, -32.83 58.55, -39.11 69.85" stroke="#000000" stroke-width="1" fill="none"></path></g><g transform="translate(391.67034169676714 70.09999389648436) rotate(0 -20.520135897889077 35.25492200984833)"><path d="M-32.72 38.47 C-37.42 48.66, -36.23 61.29, -38.37 68.42 M-34.57 40.74 C-35.44 50, -37.46 59.7, -39.86 70.65" stroke="#000000" stroke-width="1" fill="none"></path></g><g transform="translate(391.67034169676714 70.09999389648436) rotate(0 -20.520135897889077 35.25492200984833)"><path d="M-14.72 48.32 C-25.58 55.22, -30.48 64.51, -38.37 68.42 M-16.57 50.59 C-23.08 56.7, -30.74 63.32, -39.86 70.65" stroke="#000000" stroke-width="1" fill="none"></path></g></g><mask></mask><g stroke-linecap="round"><g transform="translate(490.0703050756734 71.70003051757811) rotate(0 19.53219501286935 35.19812395559677)"><path d="M-0.08 -0.54 C6.57 11.42, 33.75 59.28, 40.64 70.94 M-1.58 1.79 C4.85 13.48, 32.66 57.75, 39.72 69.16" stroke="#000000" stroke-width="1" fill="none"></path></g><g transform="translate(490.0703050756734 71.70003051757811) rotate(0 19.53219501286935 35.19812395559677)"><path d="M15.21 50.76 C25.67 58.5, 31.7 64.87, 39.47 68.52 M15.24 49.79 C23.6 54.96, 30.3 61.04, 39.35 68.58" stroke="#000000" stroke-width="1" fill="none"></path></g><g transform="translate(490.0703050756734 71.70003051757811) rotate(0 19.53219501286935 35.19812395559677)"><path d="M32.63 39.91 C36.67 51.59, 36.36 61.91, 39.47 68.52 M32.66 38.94 C36.03 47.22, 37.77 56.39, 39.35 68.58" stroke="#000000" stroke-width="1" fill="none"></path></g></g><mask></mask><g stroke-linecap="round"><g transform="translate(528.4703294897358 240.5000030517578) rotate(0 0.10846414741746457 29.210525341755755)"><path d="M1.15 -1.16 C1.2 8.53, 0.17 48.24, 0.01 58.44 M0.29 0.85 C0.21 10.64, -0.81 50.03, -0.93 59.58" stroke="#000000" stroke-width="1" fill="none"></path></g><g transform="translate(528.4703294897358 240.5000030517578) rotate(0 0.10846414741746457 29.210525341755755)"><path d="M-12.42 31.58 C-9.05 39.49, -3.78 46.46, -1.2 60.2 M-10.74 30.66 C-8.96 37.29, -5.21 43.8, 0.01 59.01" stroke="#000000" stroke-width="1" fill="none"></path></g><g transform="translate(528.4703294897358 240.5000030517578) rotate(0 0.10846414741746457 29.210525341755755)"><path d="M7.83 31.99 C5.63 39.98, 5.35 46.84, -1.2 60.2 M9.5 31.07 C6.64 37.42, 5.74 43.84, 0.01 59.01" stroke="#000000" stroke-width="1" fill="none"></path></g></g><mask></mask><g stroke-linecap="round" transform="translate(406.8703539037984 34.0999786376953) rotate(0 34.4000244140625 34.4000244140625)"><path d="M20.56 3.81 C26.29 0.63, 34.33 -0.19, 40.74 0.86 C47.15 1.92, 54.27 5.25, 59.01 10.15 C63.76 15.05, 68.3 23.4, 69.19 30.24 C70.09 37.08, 67.89 45.32, 64.39 51.2 C60.89 57.09, 54.27 62.85, 48.2 65.55 C42.13 68.26, 34.6 68.55, 27.98 67.42 C21.37 66.28, 13.05 63.68, 8.5 58.76 C3.94 53.85, 1.29 44.68, 0.67 37.93 C0.04 31.18, 1.31 24.18, 4.76 18.24 C8.21 12.3, 17.87 5.07, 21.37 2.31 C24.87 -0.46, 25.3 1.05, 25.76 1.63 M38.7 1.36 C45.14 1.91, 53.03 5.21, 58.2 9.74 C63.36 14.27, 68.59 22.17, 69.67 28.54 C70.75 34.92, 68.01 41.74, 64.69 47.98 C61.37 54.22, 55.36 62.79, 49.77 65.98 C44.19 69.17, 37.82 68, 31.18 67.1 C24.54 66.2, 15.14 64.81, 9.94 60.57 C4.75 56.34, 0.9 48.4, 0.02 41.67 C-0.86 34.93, 1.65 26.2, 4.68 20.17 C7.7 14.13, 12.56 8.77, 18.19 5.44 C23.82 2.11, 35.15 0.85, 38.48 0.19 C41.81 -0.47, 38.35 0.98, 38.16 1.47" stroke="#000000" stroke-width="1" fill="none"></path></g><g stroke-linecap="round" transform="translate(317.0703050756734 155.09999389648436) rotate(0 34.4000244140625 34.4000244140625)"><path d="M42.03 0.37 C48.56 1.65, 56.76 7.33, 61.15 12.5 C65.55 17.66, 67.98 24.8, 68.41 31.36 C68.85 37.91, 67.2 46.16, 63.76 51.82 C60.32 57.48, 53.93 62.79, 47.77 65.29 C41.61 67.8, 33.34 68.17, 26.8 66.87 C20.26 65.56, 12.87 62.57, 8.51 57.45 C4.16 52.33, 1.36 42.94, 0.65 36.15 C-0.06 29.37, 0.97 22.28, 4.26 16.75 C7.55 11.23, 13.23 5.27, 20.39 3 C27.54 0.72, 42.27 2.65, 47.2 3.1 C52.13 3.56, 50.08 5.37, 49.97 5.72 M21.92 3.28 C27.6 0.65, 37.19 0.42, 43.88 2.17 C50.57 3.93, 58.05 8.46, 62.06 13.8 C66.07 19.14, 67.61 27.69, 67.92 34.21 C68.22 40.74, 67.43 47.35, 63.87 52.96 C60.31 58.56, 53.16 65.55, 46.55 67.83 C39.94 70.12, 30.57 68.63, 24.21 66.67 C17.85 64.7, 12.57 60.94, 8.39 56.05 C4.2 51.16, -0.57 43.89, -0.92 37.3 C-1.27 30.72, 2.45 22.49, 6.3 16.55 C10.15 10.6, 19.57 3.8, 22.2 1.62 C24.84 -0.57, 22.08 2.61, 22.1 3.43" stroke="#000000" stroke-width="1" fill="none"></path></g><g stroke-linecap="round" transform="translate(494.8702318334859 156.29999084472655) rotate(0 34.4000244140625 34.4000244140625)"><path d="M44.95 1.93 C51.14 3.6, 59.47 8.61, 63.35 14.23 C67.23 19.84, 68.39 28.89, 68.25 35.63 C68.11 42.37, 66.38 49.38, 62.52 54.67 C58.67 59.96, 51.85 65.47, 45.12 67.37 C38.4 69.27, 28.6 68.46, 22.17 66.07 C15.73 63.69, 10.07 58.36, 6.5 53.08 C2.92 47.8, 0.66 40.95, 0.72 34.4 C0.78 27.85, 2.71 19.25, 6.86 13.79 C11 8.32, 18.57 3.35, 25.59 1.59 C32.62 -0.17, 44.4 2.35, 48.98 3.23 C53.57 4.1, 53.35 6.3, 53.11 6.84 M26.63 1.1 C33.26 -0.79, 43.76 -0.02, 50.19 2.79 C56.62 5.59, 62.07 12.02, 65.23 17.95 C68.39 23.88, 69.98 31.73, 69.13 38.36 C68.27 45, 64.85 52.64, 60.09 57.74 C55.33 62.84, 47.45 67.4, 40.56 68.96 C33.67 70.51, 24.56 70.06, 18.75 67.07 C12.95 64.09, 8.83 57.3, 5.73 51.03 C2.63 44.77, -0.53 36.34, 0.16 29.48 C0.84 22.63, 5.38 14.53, 9.85 9.88 C14.31 5.24, 23.73 2.83, 26.93 1.62 C30.12 0.4, 28.57 1.97, 28.99 2.6" stroke="#000000" stroke-width="1" fill="none"></path></g><g stroke-linecap="round" transform="translate(496.47026845457964 313.2999603271484) rotate(0 34.4000244140625 34.4000244140625)"><path d="M38.17 1.08 C44.6 1.21, 51.72 4.27, 56.61 8.41 C61.51 12.56, 65.9 19.46, 67.54 25.93 C69.19 32.4, 69.03 40.75, 66.49 47.25 C63.96 53.74, 58.23 61.23, 52.33 64.89 C46.43 68.55, 37.79 69.92, 31.08 69.22 C24.36 68.52, 17.07 65.16, 12.03 60.68 C6.99 56.19, 2.38 49.02, 0.84 42.32 C-0.7 35.62, 0.04 26.87, 2.79 20.48 C5.53 14.1, 9.99 6.95, 17.31 4.01 C24.63 1.06, 40.77 2.44, 46.68 2.8 C52.59 3.16, 53.23 5.71, 52.78 6.19 M22.17 3.99 C28.19 1.13, 36.84 0.93, 43.26 2.23 C49.69 3.53, 56.35 7.07, 60.73 11.77 C65.11 16.47, 69.19 23.52, 69.54 30.42 C69.89 37.31, 66.43 47.19, 62.82 53.15 C59.21 59.11, 53.79 63.68, 47.89 66.16 C41.98 68.65, 33.91 69.57, 27.38 68.06 C20.85 66.55, 13.14 62.17, 8.7 57.1 C4.27 52.04, 1.36 44.55, 0.77 37.66 C0.18 30.77, 1.83 21.63, 5.15 15.77 C8.47 9.92, 18.19 4.38, 20.66 2.53 C23.14 0.68, 19.88 4.36, 19.99 4.68" stroke="#000000" stroke-width="1" fill="none"></path></g><g stroke-linecap="round"><g transform="translate(387.67034169676714 194.89999694824218) rotate(0 21.617682725242844 -46.48725512917888)"><path d="M0.5 -0.56 C6.82 -2.16, 32.21 6.2, 39.04 -9.25 C45.87 -24.7, 41.06 -78.97, 41.46 -93.26" stroke="#000000" stroke-width="1.5" fill="none" stroke-dasharray="8 9"></path></g><g transform="translate(387.67034169676714 194.89999694824218) rotate(0 21.617682725242844 -46.48725512917888)"><path d="M51.55 -64.3 C48.62 -75.27, 45.56 -86.36, 40.44 -94.33" stroke="#000000" stroke-width="1.5" fill="none"></path></g><g transform="translate(387.67034169676714 194.89999694824218) rotate(0 21.617682725242844 -46.48725512917888)"><path d="M31.04 -63.74 C36.24 -75.01, 41.31 -86.33, 40.44 -94.33" stroke="#000000" stroke-width="1.5" fill="none"></path></g></g><mask></mask><g stroke-linecap="round"><g transform="translate(493.0813899950884 193.26074254317138) rotate(0 -19.566831995433745 -44.89217834934084)"><path d="M-0.2 0.32 C-6.06 -1.19, -29.39 6.1, -35.64 -9.05 C-41.89 -24.2, -37.22 -77.14, -37.72 -90.57" stroke="#000000" stroke-width="1.5" fill="none" stroke-dasharray="8 9"></path></g><g transform="translate(493.0813899950884 193.26074254317138) rotate(0 -19.566831995433745 -44.89217834934084)"><path d="M-27.63 -62.87 C-32.35 -68.3, -34.67 -77.14, -37.75 -90.22" stroke="#000000" stroke-width="1.5" fill="none"></path></g><g transform="translate(493.0813899950884 193.26074254317138) rotate(0 -19.566831995433745 -44.89217834934084)"><path d="M-48.15 -63.38 C-47.6 -68.65, -44.65 -77.35, -37.75 -90.22" stroke="#000000" stroke-width="1.5" fill="none"></path></g></g><mask></mask><g stroke-linecap="round" transform="translate(725.9703294897358 25.59997100830077) rotate(0 44.79998779296875 44.79998779296875)"><path d="M22.4 0 M22.4 0 C33.39 -1.73, 48.65 -0.25, 67.2 0 M22.4 0 C35.27 0.29, 47.47 -0.93, 67.2 0 M67.2 0 C80.55 -0.53, 89.84 8.06, 89.6 22.4 M67.2 0 C81.48 -1.14, 89.08 8.79, 89.6 22.4 M89.6 22.4 C91.02 36.47, 89.21 51.76, 89.6 67.2 M89.6 22.4 C89.73 37.51, 89.28 52.75, 89.6 67.2 M89.6 67.2 C90.5 80.32, 80.7 91.25, 67.2 89.6 M89.6 67.2 C89.93 83.92, 82.86 88.36, 67.2 89.6 M67.2 89.6 C51.28 88.94, 34.14 90.72, 22.4 89.6 M67.2 89.6 C52.77 90, 38.4 90.58, 22.4 89.6 M22.4 89.6 C9.03 88.82, 1.36 82.32, 0 67.2 M22.4 89.6 C8.09 91.84, -1.15 84.25, 0 67.2 M0 67.2 C1.4 56.21, -0.84 49.1, 0 22.4 M0 67.2 C-0.56 57.21, -0.02 46.22, 0 22.4 M0 22.4 C-1.93 7.36, 8.95 -1.08, 22.4 0 M0 22.4 C1.24 6.93, 7.77 1.35, 22.4 0" stroke="#000000" stroke-width="1" fill="none"></path></g><g stroke-linecap="round" transform="translate(636.5703050756733 145.79998321533202) rotate(0 44.79998779296875 44.79998779296875)"><path d="M22.4 0 M22.4 0 C30.55 1.08, 41.52 0.19, 67.2 0 M22.4 0 C32.36 -0.81, 40.77 -0.75, 67.2 0 M67.2 0 C81.6 0.24, 90.2 6.9, 89.6 22.4 M67.2 0 C81 -0.52, 90.92 7.74, 89.6 22.4 M89.6 22.4 C90.04 31.8, 91.35 41.89, 89.6 67.2 M89.6 22.4 C89.56 35.76, 89.73 50.25, 89.6 67.2 M89.6 67.2 C87.79 80.7, 83.79 89.88, 67.2 89.6 M89.6 67.2 C91.39 82.86, 80.89 90.81, 67.2 89.6 M67.2 89.6 C51.81 88.1, 38.44 89.85, 22.4 89.6 M67.2 89.6 C56.34 88.77, 46.02 90.22, 22.4 89.6 M22.4 89.6 C6.69 90.96, 0.19 82.68, 0 67.2 M22.4 89.6 C9.7 88.45, 2.12 80.09, 0 67.2 M0 67.2 C-1.89 51.93, 0.45 36.78, 0 22.4 M0 67.2 C0.71 55.72, 0.15 43.74, 0 22.4 M0 22.4 C-0.11 8.95, 6.39 1.08, 22.4 0 M0 22.4 C-0.53 7.77, 8.82 -1.36, 22.4 0" stroke="#000000" stroke-width="1" fill="none"></path></g><g stroke-linecap="round" transform="translate(812.3702928686421 148.9999801635742) rotate(0 44.79998779296875 44.79998779296875)"><path d="M22.4 0 M22.4 0 C40.46 0.45, 56.94 -1.4, 67.2 0 M22.4 0 C35.32 -1.04, 49.14 -0.41, 67.2 0 M67.2 0 C82.37 0.6, 89.03 6.48, 89.6 22.4 M67.2 0 C81.61 1.32, 89.87 5.38, 89.6 22.4 M89.6 22.4 C90.03 40.69, 90.74 56.29, 89.6 67.2 M89.6 22.4 C89.31 35.3, 90.1 46.89, 89.6 67.2 M89.6 67.2 C88.17 83.79, 82.42 91.16, 67.2 89.6 M89.6 67.2 C90.32 80.89, 83.34 90.48, 67.2 89.6 M67.2 89.6 C56.5 91.08, 49.04 88.41, 22.4 89.6 M67.2 89.6 C49.32 90.22, 33.55 89.22, 22.4 89.6 M22.4 89.6 C8.82 89.79, 0.55 84.08, 0 67.2 M22.4 89.6 C6.32 91.72, -2.05 82.7, 0 67.2 M0 67.2 C-1.07 51.09, -1.68 32.41, 0 22.4 M0 67.2 C0.11 56.31, -0.62 45.59, 0 22.4 M0 22.4 C1.49 6.39, 8.55 -0.46, 22.4 0 M0 22.4 C0.31 8.82, 6.11 -0.25, 22.4 0" stroke="#000000" stroke-width="1" fill="none"></path></g><g stroke-linecap="round" transform="translate(815.1702806616108 303.8000289916992) rotate(0 44.79998779296875 44.79998779296875)"><path d="M22.4 0 M22.4 0 C31.98 -0.37, 39.56 -0.01, 67.2 0 M22.4 0 C34.56 -0.41, 48.24 0.5, 67.2 0 M67.2 0 C82.73 -0.57, 88.61 7.01, 89.6 22.4 M67.2 0 C83.45 0.27, 87.51 9.24, 89.6 22.4 M89.6 22.4 C91.03 40.66, 89.74 57.13, 89.6 67.2 M89.6 22.4 C89.82 36.77, 88.71 49.53, 89.6 67.2 M89.6 67.2 C91.25 82.42, 83.69 90.23, 67.2 89.6 M89.6 67.2 C88.36 83.34, 83.01 87.43, 67.2 89.6 M67.2 89.6 C55.59 89.55, 39.77 90.95, 22.4 89.6 M67.2 89.6 C56 90.08, 43.2 89.98, 22.4 89.6 M22.4 89.6 C7.66 90.15, 1.94 81.14, 0 67.2 M22.4 89.6 C9.58 87.55, 0.56 83.91, 0 67.2 M0 67.2 C1.14 49.04, -0.63 32.37, 0 22.4 M0 67.2 C-0.31 56.26, -0.25 48, 0 22.4 M0 22.4 C-1.08 8.55, 7 0.27, 22.4 0 M0 22.4 C1.35 6.11, 7.21 1.3, 22.4 0" stroke="#000000" stroke-width="1" fill="none"></path></g><g stroke-linecap="round"><g transform="translate(721.1703416967671 70.39995880126952) rotate(0 -20.588055009140817 35.06670767321465)"><path d="M0.09 -0.13 C-6.66 11.43, -34.53 58.09, -41.26 69.79 M-1.32 -1.24 C-7.63 10.5, -32.45 59.84, -39.09 71.38" stroke="#000000" stroke-width="1" fill="none"></path></g><g transform="translate(721.1703416967671 70.39995880126952) rotate(0 -20.588055009140817 35.06670767321465)"><path d="M-35.09 39.97 C-35.61 48.43, -36.09 53.83, -40.88 69.8 M-35.16 41.18 C-36.22 50.38, -37.03 57.03, -38.32 72.29" stroke="#000000" stroke-width="1" fill="none"></path></g><g transform="translate(721.1703416967671 70.39995880126952) rotate(0 -20.588055009140817 35.06670767321465)"><path d="M-16.99 49.63 C-21.76 55.85, -26.46 59, -40.88 69.8 M-17.05 50.83 C-23.08 57.45, -28.84 61.45, -38.32 72.29" stroke="#000000" stroke-width="1" fill="none"></path></g></g><mask></mask><g stroke-linecap="round"><g transform="translate(819.5703050756733 71.99999542236327) rotate(0 19.50382216423941 35.320043534930406)"><path d="M-0.13 -1.02 C6.58 10.66, 33.81 58.46, 40.66 70.18 M-1.66 1.06 C4.87 12.93, 32.75 60.16, 39.76 71.66" stroke="#000000" stroke-width="1" fill="none"></path></g><g transform="translate(819.5703050756733 71.99999542236327) rotate(0 19.50382216423941 35.320043534930406)"><path d="M14.79 52.87 C24.11 59.73, 30.36 63.62, 38.18 71.13 M16 52.5 C24.38 58.82, 30.16 65.37, 40.67 71.71" stroke="#000000" stroke-width="1" fill="none"></path></g><g transform="translate(819.5703050756733 71.99999542236327) rotate(0 19.50382216423941 35.320043534930406)"><path d="M32.4 42.34 C35.84 52.7, 36.21 60.11, 38.18 71.13 M33.61 41.97 C36.53 51.52, 36.82 61.36, 40.67 71.71" stroke="#000000" stroke-width="1" fill="none"></path></g></g><mask></mask><g stroke-linecap="round"><g transform="translate(857.9703294897358 240.79996795654296) rotate(0 -0.23357838527556396 29.33952709281354)"><path d="M-1.02 0.09 C-1.05 10.04, -0.1 49.92, -0.1 59.59 M0.65 -0.91 C0.44 8.68, -1.22 47.71, -1.11 57.68" stroke="#000000" stroke-width="1" fill="none"></path></g><g transform="translate(857.9703294897358 240.79996795654296) rotate(0 -0.23357838527556396 29.33952709281354)"><path d="M-10.56 29.5 C-7.13 36.67, -6.62 45.39, -1.64 57.91 M-10.93 30.25 C-7.5 38.05, -3.68 49.11, -1.06 57.69" stroke="#000000" stroke-width="1" fill="none"></path></g><g transform="translate(857.9703294897358 240.79996795654296) rotate(0 -0.23357838527556396 29.33952709281354)"><path d="M9.69 29.88 C6.89 36.76, 1.18 45.37, -1.64 57.91 M9.31 30.63 C6.07 38.21, 3.21 49.14, -1.06 57.69" stroke="#000000" stroke-width="1" fill="none"></path></g></g><mask></mask><g stroke-linecap="round" transform="translate(736.3703539037983 34.39994354248046) rotate(0 34.4000244140625 34.4000244140625)"><path d="M39.21 0.19 C45.76 0.98, 54.18 5.77, 59 10.53 C63.82 15.29, 67.17 22.03, 68.13 28.74 C69.08 35.45, 67.75 44.87, 64.72 50.79 C61.69 56.7, 55.8 61.16, 49.94 64.24 C44.08 67.32, 36.23 70.2, 29.57 69.26 C22.91 68.31, 14.71 63.47, 9.97 58.58 C5.22 53.69, 2.1 46.62, 1.09 39.93 C0.08 33.24, 0.91 24.46, 3.91 18.42 C6.91 12.38, 12.45 6.49, 19.09 3.68 C25.72 0.88, 38.86 1.78, 43.7 1.58 C48.54 1.39, 48.35 1.85, 48.12 2.51 M36.04 0.87 C42.36 0.55, 51.85 2.49, 57.12 6.67 C62.4 10.84, 66.35 18.98, 67.69 25.95 C69.03 32.92, 67.65 42.35, 65.17 48.48 C62.69 54.62, 58.12 59.46, 52.8 62.74 C47.47 66.02, 39.97 68.67, 33.22 68.17 C26.47 67.66, 17.51 63.77, 12.29 59.72 C7.08 55.67, 3.64 50.05, 1.92 43.85 C0.19 37.64, -0.46 28.86, 1.94 22.49 C4.35 16.11, 10.29 9.47, 16.35 5.61 C22.41 1.75, 34.67 0.37, 38.31 -0.66 C41.94 -1.69, 38.4 -1.45, 38.18 -0.56" stroke="#000000" stroke-width="1" fill="none"></path></g><g stroke-linecap="round" transform="translate(646.5703050756733 155.39995880126952) rotate(0 34.4000244140625 34.4000244140625)"><path d="M19.98 3.17 C25.82 0.19, 35.11 -0.88, 41.67 0.43 C48.23 1.74, 54.77 5.97, 59.35 11.02 C63.93 16.07, 68.49 23.88, 69.17 30.74 C69.84 37.61, 66.66 46.37, 63.38 52.21 C60.09 58.05, 55.46 63.03, 49.47 65.8 C43.48 68.56, 34.13 70.15, 27.44 68.79 C20.75 67.43, 13.89 62.7, 9.32 57.61 C4.76 52.53, 0.84 45.05, 0.04 38.29 C-0.75 31.52, 0.34 23.11, 4.55 17.02 C8.77 10.92, 21.19 4.53, 25.33 1.73 C29.47 -1.07, 29.13 -0.28, 29.39 0.22 M48.24 3.14 C54.03 5.26, 58.87 10.77, 62.25 16.22 C65.64 21.68, 68.6 29.1, 68.52 35.87 C68.45 42.64, 66.26 51.32, 61.79 56.86 C57.32 62.39, 48.53 67.52, 41.69 69.08 C34.86 70.65, 27.06 68.89, 20.8 66.27 C14.54 63.65, 7.39 59.22, 4.13 53.38 C0.87 47.55, 0.43 38.09, 1.27 31.24 C2.11 24.39, 4.95 17.09, 9.18 12.29 C13.41 7.49, 20.41 3.83, 26.66 2.44 C32.92 1.05, 43.51 3.76, 46.71 3.95 C49.9 4.14, 45.76 3.09, 45.86 3.58" stroke="#000000" stroke-width="1" fill="none"></path></g><g stroke-linecap="round" transform="translate(824.3702318334858 156.5999557495117) rotate(0 34.4000244140625 34.4000244140625)"><path d="M19.64 3.68 C25.29 0.46, 33.73 -1.19, 40.3 0.07 C46.88 1.33, 54.35 6.43, 59.07 11.23 C63.79 16.04, 67.55 22.19, 68.61 28.92 C69.68 35.66, 68.65 45.57, 65.44 51.66 C62.23 57.74, 55.42 62.6, 49.33 65.42 C43.24 68.25, 35.54 69.84, 28.92 68.6 C22.29 67.36, 14.31 62.91, 9.56 57.97 C4.81 53.04, 1.38 45.62, 0.41 39.01 C-0.55 32.39, 0.28 24.46, 3.79 18.26 C7.3 12.06, 18.43 4.25, 21.47 1.8 C24.52 -0.65, 21.91 2.76, 22.08 3.57 M40.35 -0.99 C46.87 -0.61, 54.14 4.7, 58.62 9.9 C63.11 15.09, 66.16 23.63, 67.27 30.17 C68.38 36.71, 67.93 43.44, 65.26 49.16 C62.6 54.88, 57.32 61.47, 51.28 64.5 C45.25 67.54, 35.78 68.14, 29.06 67.37 C22.35 66.61, 15.85 64.33, 10.98 59.9 C6.11 55.47, 1.02 47.58, -0.16 40.8 C-1.34 34.02, 0.49 25.49, 3.89 19.19 C7.29 12.89, 14.03 6.35, 20.24 3 C26.45 -0.35, 37.86 -0.79, 41.16 -0.91 C44.46 -1.04, 40.17 1.67, 40.04 2.26" stroke="#000000" stroke-width="1" fill="none"></path></g><g stroke-linecap="round" transform="translate(825.9702684545796 313.5999252319336) rotate(0 34.4000244140625 34.4000244140625)"><path d="M5.47 16.68 C5.47 16.68, 5.47 16.68, 5.47 16.68 M5.47 16.68 C5.47 16.68, 5.47 16.68, 5.47 16.68 M1.79 24.8 C9.71 21.15, 14.84 14.69, 21.9 4.29 M2.99 26.12 C7.3 19.62, 11.77 15.51, 22.4 4.42 M1.55 33 C8.29 25.7, 14.76 17.57, 29.21 4.11 M1.03 33.14 C6.17 27.67, 12.52 20.8, 28.61 3.02 M3.87 38.39 C10.59 25.78, 23.83 13.76, 33.89 0.9 M2.16 38.13 C9.46 29.11, 18.42 20.4, 33.11 2.05 M5.76 42.92 C13.05 33.31, 22.44 21.43, 37.95 3.26 M3.8 42.26 C11.14 33.4, 18.17 25.82, 39.43 1 M6.1 45.53 C20.88 30.23, 31.91 14.25, 43.24 3.58 M5.55 47.62 C18.23 32.78, 30.21 19.04, 44.43 1.95 M5.57 50.36 C16.05 40.56, 24.91 29.13, 47.94 4.42 M7.33 51.36 C15.47 41.85, 23.72 30.53, 46.92 3.9 M7.21 54.33 C22.29 41.63, 34.44 29.05, 50.55 7.39 M8.02 55.08 C25.62 36.99, 41.73 17.69, 51.75 7.4 M9.71 57.84 C23.76 44.7, 36.34 28.39, 53.75 8.8 M10.89 59.44 C25.15 42.89, 38.09 27.54, 53.84 8.21 M14.59 61.27 C27.09 45.9, 38.96 30.75, 58.41 10.22 M14.92 60.53 C24.67 51.54, 32.23 40.27, 58.27 11.66 M17.6 62.52 C35.93 45.28, 50.07 24.87, 63.4 14.22 M18.28 63.29 C34.58 45.54, 48.44 26.89, 62.25 12.27 M19.81 64.95 C35.43 48.8, 51.02 35.12, 64.3 18.11 M21.6 65.31 C37.26 47.73, 53.64 28.69, 63.92 17.39 M26.27 67.19 C39.71 51.91, 50.33 38.9, 63.82 22.7 M24.72 68.54 C34.29 55.99, 44.87 46.3, 64.92 21.77 M29.91 70.85 C38.31 54.95, 51.9 39.78, 65.82 26.75 M28.69 68.84 C42.67 52.56, 59.23 35.53, 66.53 26.01 M34.75 69.51 C43.04 60.08, 52.24 49.01, 65.92 28.8 M33.2 68.87 C46.05 54.17, 59.94 38.77, 68.39 30.14 M37.95 67.29 C45.06 60.6, 53.17 54.05, 70.62 35.13 M38.65 68.54 C49.83 57.04, 59.95 46.02, 69.8 33.51 M44.25 67.52 C50.99 59.48, 57.74 54.61, 68.8 41.77 M44.76 67.54 C52.69 59.34, 61.78 49.5, 69.24 40.67 M48.62 70.53 C55.57 63.31, 60.23 55.57, 66.63 49.47 M49.37 68.99 C54.25 63.12, 59.12 58, 67.54 48.23" stroke="#fa5252" stroke-width="0.5" fill="none"></path><path d="M21.47 2.36 C27.16 -0.59, 35.26 -0.92, 41.87 0.71 C48.47 2.33, 56.77 6.84, 61.09 12.12 C65.4 17.41, 67.18 25.69, 67.78 32.4 C68.38 39.1, 68.04 46.62, 64.68 52.36 C61.32 58.1, 53.95 64.26, 47.64 66.86 C41.33 69.45, 33.39 69.58, 26.8 67.92 C20.22 66.27, 12.57 62.09, 8.12 56.9 C3.68 51.72, 0.63 43.49, 0.15 36.83 C-0.33 30.17, 1.69 22.83, 5.24 16.94 C8.79 11.04, 18.22 3.86, 21.45 1.46 C24.68 -0.94, 24.12 1.84, 24.6 2.55 M23.81 1.15 C29.69 -1.29, 39.54 -1.34, 46.28 1.08 C53.02 3.49, 60.64 9.62, 64.25 15.63 C67.85 21.65, 68.49 30.47, 67.91 37.18 C67.33 43.88, 64.99 50.65, 60.77 55.87 C56.54 61.08, 48.79 66.76, 42.58 68.46 C36.37 70.15, 29.49 68.53, 23.51 66.04 C17.54 63.55, 10.57 58.8, 6.72 53.52 C2.88 48.24, 0.44 40.87, 0.44 34.34 C0.45 27.82, 2.83 19.81, 6.74 14.36 C10.65 8.9, 20.58 3.5, 23.88 1.62 C27.19 -0.27, 26.38 2.64, 26.56 3.04" stroke="#000000" stroke-width="1" fill="none"></path></g><g stroke-linecap="round"><g transform="translate(717.1703416967671 195.19996185302733) rotate(0 20.53656826882559 -47.30396934851257)"><path d="M-1.07 -0.95 C5.21 -2.35, 31.04 6.18, 38.08 -9.46 C45.12 -25.09, 40.8 -80.54, 41.16 -94.74" stroke="#000000" stroke-width="1.5" fill="none" stroke-dasharray="8 9"></path></g><g transform="translate(717.1703416967671 195.19996185302733) rotate(0 20.53656826882559 -47.30396934851257)"><path d="M50.5 -67.33 C48.92 -75.59, 44.48 -86.48, 40.7 -93.59" stroke="#000000" stroke-width="1.5" fill="none"></path></g><g transform="translate(717.1703416967671 195.19996185302733) rotate(0 20.53656826882559 -47.30396934851257)"><path d="M29.98 -66.85 C35.23 -75.09, 37.62 -86.13, 40.7 -93.59" stroke="#000000" stroke-width="1.5" fill="none"></path></g></g><mask></mask><g stroke-linecap="round"><g transform="translate(822.5813899950883 193.56070744795653) rotate(0 -19.99293139494057 -44.476054175325686)"><path d="M-0.95 -0.32 C-6.62 -1.41, -28.76 7.34, -35.06 -7.64 C-41.36 -22.62, -38.14 -76.65, -38.74 -90.19" stroke="#000000" stroke-width="1.5" fill="none" stroke-dasharray="8 9"></path></g><g transform="translate(822.5813899950883 193.56070744795653) rotate(0 -19.99293139494057 -44.476054175325686)"><path d="M-29.18 -61.7 C-29.97 -68.66, -33.73 -74.63, -37.59 -89.95" stroke="#000000" stroke-width="1.5" fill="none"></path></g><g transform="translate(822.5813899950883 193.56070744795653) rotate(0 -19.99293139494057 -44.476054175325686)"><path d="M-49.7 -61.83 C-46.08 -68.6, -45.42 -74.54, -37.59 -89.95" stroke="#000000" stroke-width="1.5" fill="none"></path></g></g><mask></mask><g stroke-linecap="round" transform="translate(396.2000784161126 461.4170652845982) rotate(0 44.79998779296875 44.79998779296875)"><path d="M22.4 0 M22.4 0 C30.54 -1.24, 43.07 -1.46, 67.2 0 M22.4 0 C39.61 -0.01, 57.25 -0.52, 67.2 0 M67.2 0 C82.88 -0.67, 91.03 5.95, 89.6 22.4 M67.2 0 C81.74 -1.71, 90.01 9.43, 89.6 22.4 M89.6 22.4 C87.4 38.85, 89.17 52.88, 89.6 67.2 M89.6 22.4 C90.22 32.58, 89.94 42.93, 89.6 67.2 M89.6 67.2 C89.25 83.73, 80.23 89.68, 67.2 89.6 M89.6 67.2 C88.54 81.78, 81.4 88.75, 67.2 89.6 M67.2 89.6 C49.06 90.53, 35.57 91.15, 22.4 89.6 M67.2 89.6 C52.56 90.29, 38.7 90.5, 22.4 89.6 M22.4 89.6 C9.26 88.25, -1.88 80.73, 0 67.2 M22.4 89.6 C8.51 90.87, 0.59 81.88, 0 67.2 M0 67.2 C-0.73 57.02, -1.5 46.26, 0 22.4 M0 67.2 C-0.04 54.36, 0.25 42.82, 0 22.4 M0 22.4 C-0.85 5.55, 5.57 -1.64, 22.4 0 M0 22.4 C1.9 8.11, 6.88 -0.78, 22.4 0" stroke="#000000" stroke-width="1" fill="none"></path></g><g stroke-linecap="round" transform="translate(306.8000540020501 581.6170774916295) rotate(0 44.79998779296875 44.79998779296875)"><path d="M22.4 0 M22.4 0 C36.33 1.23, 51.41 2.02, 67.2 0 M22.4 0 C34.6 0.65, 46.22 0.31, 67.2 0 M67.2 0 C81.46 1.43, 88.08 7.13, 89.6 22.4 M67.2 0 C80.42 0.41, 91.57 8.6, 89.6 22.4 M89.6 22.4 C90.24 33.33, 88.62 43.16, 89.6 67.2 M89.6 22.4 C89.21 34.88, 89.44 46.22, 89.6 67.2 M89.6 67.2 C91.2 80.23, 82.21 88.68, 67.2 89.6 M89.6 67.2 C89.25 81.4, 81.28 91.29, 67.2 89.6 M67.2 89.6 C52.21 91.12, 37.24 89.74, 22.4 89.6 M67.2 89.6 C57.93 89.94, 48.33 90.42, 22.4 89.6 M22.4 89.6 C6.11 87.72, -1.41 83.04, 0 67.2 M22.4 89.6 C8.74 90.19, -0.25 80.19, 0 67.2 M0 67.2 C-0.17 55.59, -1.27 47.34, 0 22.4 M0 67.2 C0.2 58.03, 1.28 48.84, 0 22.4 M0 22.4 C-1.91 5.57, 5.83 1.65, 22.4 0 M0 22.4 C0.64 6.88, 6.69 1.8, 22.4 0" stroke="#000000" stroke-width="1" fill="none"></path></g><g stroke-linecap="round" transform="translate(482.60004179501885 584.8170744398717) rotate(0 44.79998779296875 44.79998779296875)"><path d="M22.4 0 M22.4 0 C35.4 -1.28, 48.36 -0.28, 67.2 0 M22.4 0 C37.48 -0.46, 51.51 -0.37, 67.2 0 M67.2 0 C83.57 -1.52, 89.26 5.98, 89.6 22.4 M67.2 0 C82.55 1.97, 90.73 6.28, 89.6 22.4 M89.6 22.4 C88.97 33.31, 87.68 45.18, 89.6 67.2 M89.6 22.4 C90.43 31.73, 89.77 41.31, 89.6 67.2 M89.6 67.2 C87.7 82.21, 81.21 89.3, 67.2 89.6 M89.6 67.2 C88.86 81.28, 83.82 90.7, 67.2 89.6 M67.2 89.6 C52.34 90.96, 34.27 88.12, 22.4 89.6 M67.2 89.6 C52.79 90.61, 38.44 89.17, 22.4 89.6 M22.4 89.6 C5.59 88.19, 0.91 83.24, 0 67.2 M22.4 89.6 C8.06 89.35, -1.94 80.24, 0 67.2 M0 67.2 C-1.62 55.67, -0.12 45.39, 0 22.4 M0 67.2 C0.02 58.9, -0.21 47.95, 0 22.4 M0 22.4 C-1.9 5.83, 9.12 0.56, 22.4 0 M0 22.4 C-0.59 6.69, 9.27 -2.12, 22.4 0" stroke="#000000" stroke-width="1" fill="none"></path></g><g stroke-linecap="round" transform="translate(485.4000295879876 739.6171232679967) rotate(0 44.79998779296875 44.79998779296875)"><path d="M22.4 0 M22.4 0 C30.26 1.43, 40.71 0.23, 67.2 0 M22.4 0 C36.04 0.06, 50.19 0.4, 67.2 0 M67.2 0 C80.61 -0.34, 88.11 7.83, 89.6 22.4 M67.2 0 C84.1 1.13, 88.41 6.58, 89.6 22.4 M89.6 22.4 C88.98 29.96, 89.14 38.53, 89.6 67.2 M89.6 22.4 C89.9 39.1, 90.42 55.2, 89.6 67.2 M89.6 67.2 C89.68 81.21, 81.83 88.96, 67.2 89.6 M89.6 67.2 C88.75 83.82, 83.24 91.27, 67.2 89.6 M67.2 89.6 C58.13 90.46, 45 90.63, 22.4 89.6 M67.2 89.6 C55.32 90.69, 41.25 88.85, 22.4 89.6 M22.4 89.6 C6.06 90.51, 1.1 82.65, 0 67.2 M22.4 89.6 C7.22 87.66, -1.9 80.32, 0 67.2 M0 67.2 C-1.51 55.86, -1.88 43.34, 0 22.4 M0 67.2 C0.95 55.52, -0.86 43.75, 0 22.4 M0 22.4 C-1.64 9.12, 8.03 -0.51, 22.4 0 M0 22.4 C-0.78 9.27, 5.35 2.13, 22.4 0" stroke="#000000" stroke-width="1" fill="none"></path></g><g stroke-linecap="round" transform="translate(406.6001028301751 470.2170378187779) rotate(0 34.4000244140625 34.4000244140625)"><path d="M36.12 -0.31 C42.53 -0.58, 51.2 2.52, 56.41 6.62 C61.61 10.72, 65.59 17.56, 67.34 24.31 C69.08 31.07, 69.08 40.79, 66.86 47.15 C64.64 53.52, 59.71 59.04, 54.01 62.48 C48.31 65.92, 39.42 67.98, 32.67 67.79 C25.92 67.6, 18.81 65.45, 13.52 61.32 C8.22 57.19, 2.84 49.64, 0.89 43.01 C-1.06 36.37, -0.72 27.72, 1.8 21.52 C4.33 15.33, 9.46 9.29, 16.05 5.85 C22.64 2.41, 36.45 1.3, 41.34 0.89 C46.24 0.48, 45.78 2.88, 45.43 3.4 M26 2.01 C32.28 0.36, 42.33 1.27, 48.46 3.78 C54.59 6.28, 59.17 11.3, 62.77 17.04 C66.37 22.77, 70.38 31.76, 70.05 38.2 C69.72 44.64, 65.33 50.76, 60.78 55.67 C56.22 60.57, 49.2 65.78, 42.71 67.62 C36.23 69.47, 27.99 69.08, 21.89 66.74 C15.79 64.39, 9.91 59.67, 6.11 53.56 C2.32 47.46, -1.09 36.93, -0.89 30.11 C-0.69 23.28, 2.6 17.4, 7.31 12.6 C12.02 7.8, 24.17 3.34, 27.38 1.29 C30.59 -0.75, 26.76 0.01, 26.54 0.31" stroke="#000000" stroke-width="1" fill="none"></path></g><g stroke-linecap="round" transform="translate(316.8000540020501 591.217053077567) rotate(0 34.4000244140625 34.4000244140625)"><path d="M46.01 2.86 C52.12 4.55, 58.59 9.63, 62.26 15.15 C65.93 20.67, 68.03 29.13, 68.03 35.97 C68.03 42.82, 66.39 51.03, 62.25 56.22 C58.1 61.41, 49.98 65.33, 43.18 67.13 C36.39 68.94, 27.72 69.41, 21.47 67.06 C15.22 64.72, 9.38 58.8, 5.68 53.08 C1.98 47.35, -0.84 39.23, -0.71 32.69 C-0.59 26.15, 2.12 18.99, 6.43 13.84 C10.74 8.68, 17.72 3.41, 25.15 1.76 C32.58 0.12, 46 3.19, 51.01 3.95 C56.01 4.71, 55.5 5.85, 55.19 6.31 M32.9 0.82 C39.51 -0.21, 47.91 0.42, 53.54 4.06 C59.17 7.71, 64.13 16.23, 66.67 22.69 C69.2 29.16, 70.61 36.46, 68.75 42.86 C66.88 49.26, 60.79 56.64, 55.46 61.08 C50.12 65.53, 43.15 68.9, 36.74 69.52 C30.32 70.15, 22.44 68.67, 16.97 64.82 C11.51 60.98, 6.83 53.06, 3.93 46.46 C1.03 39.86, -1.92 31.47, -0.44 25.22 C1.04 18.98, 7.37 13.23, 12.81 9.01 C18.25 4.8, 29.22 1.51, 32.18 -0.06 C35.14 -1.64, 30.8 -0.91, 30.58 -0.45" stroke="#000000" stroke-width="1" fill="none"></path></g><g stroke-linecap="round" transform="translate(494.5999807598626 592.4170500258092) rotate(0 34.4000244140625 34.4000244140625)"><path d="M27.88 0.01 C33.95 -1.86, 42.06 -0.8, 48.14 2.19 C54.21 5.19, 60.83 12.11, 64.33 17.98 C67.82 23.84, 69.89 30.99, 69.11 37.39 C68.33 43.79, 64.15 51.28, 59.64 56.37 C55.13 61.46, 48.64 66.47, 42.04 67.93 C35.45 69.39, 26.37 68, 20.09 65.12 C13.8 62.25, 7.52 56.4, 4.33 50.7 C1.14 45, 0.12 37.44, 0.95 30.95 C1.77 24.45, 3.79 16.75, 9.26 11.72 C14.73 6.7, 28.7 2.54, 33.77 0.8 C38.84 -0.93, 39.71 0.89, 39.67 1.31 M29.62 1.53 C35.79 -0.06, 42.73 1.14, 48.86 4.15 C54.98 7.16, 63.06 13.88, 66.37 19.6 C69.68 25.32, 69.92 31.99, 68.74 38.45 C67.55 44.92, 63.94 53.29, 59.27 58.37 C54.6 63.46, 47.26 67.64, 40.72 68.99 C34.18 70.33, 26.35 69.83, 20.03 66.45 C13.7 63.07, 6.23 54.82, 2.79 48.71 C-0.66 42.6, -1.99 36.17, -0.65 29.81 C0.69 23.45, 5.92 15.65, 10.82 10.54 C15.72 5.44, 25.92 0.94, 28.74 -0.82 C31.57 -2.59, 27.8 -0.77, 27.78 -0.06" stroke="#000000" stroke-width="1" fill="none"></path></g><g stroke-linecap="round" transform="translate(496.20001738095635 749.4170195082311) rotate(0 34.4000244140625 34.4000244140625)"><path d="M40.02 0.43 C46.33 1.07, 53.8 5.97, 58.69 10.98 C63.58 16, 68.48 23.92, 69.38 30.52 C70.27 37.11, 67.6 44.63, 64.06 50.53 C60.52 56.43, 54.15 63.02, 48.12 65.9 C42.1 68.78, 34.5 69.17, 27.92 67.8 C21.34 66.43, 13.4 62.38, 8.63 57.67 C3.86 52.97, 0.03 46.09, -0.7 39.54 C-1.42 32.99, 0.83 24.44, 4.28 18.37 C7.72 12.3, 13.17 6.11, 19.97 3.13 C26.77 0.15, 40.51 0.55, 45.09 0.5 C49.67 0.45, 47.78 2.19, 47.46 2.84 M29.18 -0.47 C35.28 -1.99, 43.56 1.58, 49.62 4.7 C55.68 7.83, 62.58 12.52, 65.53 18.29 C68.47 24.06, 68.37 32.55, 67.3 39.31 C66.23 46.07, 63.44 53.86, 59.12 58.87 C54.79 63.88, 47.7 68.43, 41.34 69.36 C34.98 70.29, 27.41 67.71, 20.98 64.45 C14.55 61.19, 6.12 55.41, 2.78 49.8 C-0.55 44.19, -0.2 37.32, 0.97 30.78 C2.14 24.25, 5.49 15.83, 9.8 10.59 C14.11 5.35, 23.95 1.04, 26.82 -0.65 C29.69 -2.35, 26.78 -0.1, 27.03 0.43" stroke="#000000" stroke-width="1" fill="none"></path></g><g stroke-linecap="round"><g transform="translate(387.40009062314385 631.0170561293248) rotate(0 20.48512076825773 -46.701644107572406)"><path d="M-0.51 0.45 C5.81 -1.15, 31.26 7.1, 38 -8.74 C44.73 -24.58, 39.57 -80.36, 39.89 -94.6" stroke="#000000" stroke-width="1.5" fill="none" stroke-dasharray="8 9"></path></g><g transform="translate(387.40009062314385 631.0170561293248) rotate(0 20.48512076825773 -46.701644107572406)"><path d="M51.82 -67.44 C48.87 -76.91, 43.65 -85.44, 40.25 -92.89" stroke="#000000" stroke-width="1.5" fill="none"></path></g><g transform="translate(387.40009062314385 631.0170561293248) rotate(0 20.48512076825773 -46.701644107572406)"><path d="M31.31 -66.76 C34.67 -76.35, 35.76 -85.09, 40.25 -92.89" stroke="#000000" stroke-width="1.5" fill="none"></path></g></g><mask></mask><g stroke-linecap="round"><g transform="translate(492.81113892146533 629.3778017242539) rotate(0 -19.129341521996707 -45.02083193083445)"><path d="M0.45 -0.4 C-5.42 -1.8, -27.83 6.1, -34.34 -8.91 C-40.85 -23.93, -37.96 -77.21, -38.6 -90.49" stroke="#000000" stroke-width="1.5" fill="none" stroke-dasharray="8 9"></path></g><g transform="translate(492.81113892146533 629.3778017242539) rotate(0 -19.129341521996707 -45.02083193083445)"><path d="M-29.05 -60.85 C-33.57 -73.05, -37.33 -82.81, -36.89 -89.51" stroke="#000000" stroke-width="1.5" fill="none"></path></g><g transform="translate(492.81113892146533 629.3778017242539) rotate(0 -19.129341521996707 -45.02083193083445)"><path d="M-49.57 -60.88 C-46.48 -73.14, -42.63 -82.9, -36.89 -89.51" stroke="#000000" stroke-width="1.5" fill="none"></path></g></g><mask></mask><g stroke-linecap="round"><g transform="translate(406.8704759741109 503.7000457763672) rotate(0 -5.914862971007835 -0.3894931616751478)"><path d="M-0.62 -0.38 C-2.4 -0.54, -9.15 -0.43, -11.21 -0.32" stroke="#000000" stroke-width="1.5" fill="none" stroke-dasharray="8 9"></path></g><g transform="translate(406.8704759741109 503.7000457763672) rotate(0 -5.914862971007835 -0.3894931616751478)"><path d="M-5.83 -2.16 C-7.2 -2.52, -8.3 -0.98, -11.46 -0.87" stroke="#000000" stroke-width="1.5" fill="none"></path></g><g transform="translate(406.8704759741109 503.7000457763672) rotate(0 -5.914862971007835 -0.3894931616751478)"><path d="M-5.7 1.94 C-7.12 0.54, -8.26 1.03, -11.46 -0.87" stroke="#000000" stroke-width="1.5" fill="none"></path></g></g><mask></mask><g stroke-linecap="round"><g transform="translate(316.47051259520464 625.300082397461) rotate(0 -4.055056305229698 -0.752394034009285)"><path d="M0.76 -0.61 C-0.61 -0.94, -7.15 -0.94, -8.87 -0.83" stroke="#000000" stroke-width="1.5" fill="none" stroke-dasharray="8 9"></path></g><g transform="translate(316.47051259520464 625.300082397461) rotate(0 -4.055056305229698 -0.752394034009285)"><path d="M-5 -2.46 C-6.09 -2.29, -6.77 -1.98, -9 -0.98" stroke="#000000" stroke-width="1.5" fill="none"></path></g><g transform="translate(316.47051259520464 625.300082397461) rotate(0 -4.055056305229698 -0.752394034009285)"><path d="M-4.92 0.54 C-6.06 -0.03, -6.76 -0.47, -9 -0.98" stroke="#000000" stroke-width="1.5" fill="none"></path></g></g><mask></mask><g stroke-linecap="round"><g transform="translate(564.4705125952046 628.500033569336) rotate(0 2.767864508926891 -0.2230439856648445)"><path d="M-0.73 0.33 C0.23 0.09, 5.37 -0.63, 6.26 -0.78" stroke="#000000" stroke-width="1.5" fill="none" stroke-dasharray="8 9"></path></g><g transform="translate(564.4705125952046 628.500033569336) rotate(0 2.767864508926891 -0.2230439856648445)"><path d="M3.88 0.72 C4.46 -0.11, 5.35 -0.17, 6.51 -0.67" stroke="#000000" stroke-width="1.5" fill="none"></path></g><g transform="translate(564.4705125952046 628.500033569336) rotate(0 2.767864508926891 -0.2230439856648445)"><path d="M3.6 -1.18 C4.28 -1.35, 5.28 -0.76, 6.51 -0.67" stroke="#000000" stroke-width="1.5" fill="none"></path></g></g><mask></mask><g stroke-linecap="round"><g transform="translate(564.4705125952046 784.500033569336) rotate(0 5.571149758994579 0.388687858843241)"><path d="M-0.32 -0.15 C1.42 -0.14, 9.53 1.08, 11.46 0.91" stroke="#000000" stroke-width="1.5" fill="none" stroke-dasharray="8 9"></path></g><g transform="translate(564.4705125952046 784.500033569336) rotate(0 5.571149758994579 0.388687858843241)"><path d="M6.43 2.91 C8.78 2.27, 9.78 1.26, 11.9 0.43" stroke="#000000" stroke-width="1.5" fill="none"></path></g><g transform="translate(564.4705125952046 784.500033569336) rotate(0 5.571149758994579 0.388687858843241)"><path d="M6.61 -0.65 C8.91 0.07, 9.85 0.42, 11.9 0.43" stroke="#000000" stroke-width="1.5" fill="none"></path></g></g><mask></mask><g stroke-linecap="round" transform="translate(726.5032385757424 461.8000289916992) rotate(0 44.79998779296875 44.79998779296875)"><path d="M22.4 0 M22.4 0 C36.47 -0.97, 53.35 1.08, 67.2 0 M22.4 0 C32.65 -0.51, 43.52 0.28, 67.2 0 M67.2 0 C80.38 -1.81, 90.96 7.88, 89.6 22.4 M67.2 0 C82.16 -2.06, 87.45 6.49, 89.6 22.4 M89.6 22.4 C88.65 35.56, 88.89 51.33, 89.6 67.2 M89.6 22.4 C90.17 37.65, 90.35 51.79, 89.6 67.2 M89.6 67.2 C91 81.11, 82.34 88.77, 67.2 89.6 M89.6 67.2 C89.63 81.91, 80.72 89.66, 67.2 89.6 M67.2 89.6 C58.53 89.04, 47.96 87.87, 22.4 89.6 M67.2 89.6 C56.69 88.56, 47.23 90.29, 22.4 89.6 M22.4 89.6 C8.52 91.19, 1.43 82.96, 0 67.2 M22.4 89.6 C9.71 91.4, 0.94 82.5, 0 67.2 M0 67.2 C0.97 54.73, -1.87 46.35, 0 22.4 M0 67.2 C0.1 55.39, 0.45 43.93, 0 22.4 M0 22.4 C1.4 8.76, 6.91 -0.95, 22.4 0 M0 22.4 C-0.93 6.1, 9.06 0.22, 22.4 0" stroke="#000000" stroke-width="1" fill="none"></path></g><g stroke-linecap="round" transform="translate(637.10321416168 582.0000411987305) rotate(0 44.79998779296875 44.79998779296875)"><path d="M22.4 0 M22.4 0 C38.69 1.72, 58.39 -1.11, 67.2 0 M22.4 0 C32.5 0.01, 44.2 -0.7, 67.2 0 M67.2 0 C80.33 1.36, 90.02 7.49, 89.6 22.4 M67.2 0 C80.07 -2.15, 88.62 8.24, 89.6 22.4 M89.6 22.4 C87.36 32.28, 88.19 43.37, 89.6 67.2 M89.6 22.4 C90.85 37.58, 90.63 52.17, 89.6 67.2 M89.6 67.2 C88.58 82.34, 81.31 89.62, 67.2 89.6 M89.6 67.2 C89.38 80.72, 82.19 87.58, 67.2 89.6 M67.2 89.6 C52.95 89.55, 38.15 88.35, 22.4 89.6 M67.2 89.6 C51.65 89.95, 38.64 89.99, 22.4 89.6 M22.4 89.6 C9.05 91.03, 0.82 84.08, 0 67.2 M22.4 89.6 C9.27 90.54, 0.37 80.83, 0 67.2 M0 67.2 C-1.52 52.19, 1 40.38, 0 22.4 M0 67.2 C0.69 51.86, 1.29 35.81, 0 22.4 M0 22.4 C1.3 6.91, 6.51 -0.81, 22.4 0 M0 22.4 C-1.37 9.06, 7.68 0.18, 22.4 0" stroke="#000000" stroke-width="1" fill="none"></path></g><g stroke-linecap="round" transform="translate(812.9032019546487 585.2000381469727) rotate(0 44.79998779296875 44.79998779296875)"><path d="M22.4 0 M22.4 0 C33.59 1, 40.36 -0.83, 67.2 0 M22.4 0 C32.69 0.34, 42.43 -0.54, 67.2 0 M67.2 0 C83.49 0.42, 89.62 5.68, 89.6 22.4 M67.2 0 C79.98 -0.98, 90.38 5.84, 89.6 22.4 M89.6 22.4 C89.06 30.47, 89.87 40.98, 89.6 67.2 M89.6 22.4 C90.45 40.23, 90.5 56.25, 89.6 67.2 M89.6 67.2 C89.81 81.31, 82.16 89.41, 67.2 89.6 M89.6 67.2 C88.19 82.19, 80.11 89.69, 67.2 89.6 M67.2 89.6 C52.74 87.65, 37.33 90.04, 22.4 89.6 M67.2 89.6 C56.59 90.17, 45.55 90.03, 22.4 89.6 M22.4 89.6 C8.9 90.42, 1.95 83.7, 0 67.2 M22.4 89.6 C8.4 89.97, -1.3 81.96, 0 67.2 M0 67.2 C-2.11 55.16, -0.82 42.36, 0 22.4 M0 67.2 C0.55 58.9, 0.54 49.51, 0 22.4 M0 22.4 C-0.55 6.51, 6.66 -1.19, 22.4 0 M0 22.4 C1.59 7.68, 7.64 -1.98, 22.4 0" stroke="#000000" stroke-width="1" fill="none"></path></g><g stroke-linecap="round" transform="translate(815.7031897476174 740.0000869750977) rotate(0 44.79998779296875 44.79998779296875)"><path d="M22.4 0 M22.4 0 C35.17 -1.61, 45.43 -1.69, 67.2 0 M22.4 0 C34.08 -0.8, 44.89 0.75, 67.2 0 M67.2 0 C82.55 0.02, 87.81 5.59, 89.6 22.4 M67.2 0 C81.16 0.78, 87.98 5.21, 89.6 22.4 M89.6 22.4 C88.23 34.84, 89.69 48.12, 89.6 67.2 M89.6 22.4 C90.65 38.6, 89.48 53.51, 89.6 67.2 M89.6 67.2 C88.77 82.16, 81.94 88.37, 67.2 89.6 M89.6 67.2 C89.66 80.11, 82.22 90, 67.2 89.6 M67.2 89.6 C50.08 88.11, 37.16 88.5, 22.4 89.6 M67.2 89.6 C55.98 90.34, 43.7 90.53, 22.4 89.6 M22.4 89.6 C8.29 91.55, 1.56 82.95, 0 67.2 M22.4 89.6 C7.83 88.3, -0.17 81.91, 0 67.2 M0 67.2 C1.31 51.05, 1.51 34.23, 0 22.4 M0 67.2 C0.75 52.85, 0.53 36.82, 0 22.4 M0 22.4 C-0.95 6.66, 6.28 1.39, 22.4 0 M0 22.4 C0.22 7.64, 5.49 -0.88, 22.4 0" stroke="#000000" stroke-width="1" fill="none"></path></g><g stroke-linecap="round" transform="translate(736.903262989805 470.6000015258789) rotate(0 34.4000244140625 34.4000244140625)"><path d="M24 1.2 C30.13 -1.11, 39.71 -1.26, 46.04 1.16 C52.36 3.59, 58.13 10.03, 61.95 15.75 C65.78 21.48, 69.2 29.03, 68.99 35.5 C68.78 41.97, 64.92 49.18, 60.68 54.56 C56.44 59.93, 50 65.9, 43.56 67.77 C37.12 69.65, 28.35 68.27, 22.03 65.78 C15.71 63.29, 9.33 58.32, 5.63 52.83 C1.93 47.34, -0.48 39.37, -0.18 32.82 C0.12 26.28, 2.72 18.82, 7.43 13.55 C12.14 8.28, 24.2 3.2, 28.08 1.21 C31.96 -0.77, 30.6 1.04, 30.69 1.64 M25.74 0.97 C31.63 -0.99, 39.97 -0.09, 46.02 2.4 C52.07 4.9, 58.23 10.14, 62.06 15.92 C65.89 21.69, 69.26 30.37, 69 37.05 C68.74 43.74, 65.06 51.12, 60.51 56.05 C55.97 60.97, 48.09 65.01, 41.72 66.61 C35.35 68.21, 28.42 68.12, 22.3 65.64 C16.17 63.17, 8.58 57.05, 4.99 51.73 C1.41 46.42, 0.18 40.09, 0.78 33.76 C1.38 27.43, 4.26 19.1, 8.6 13.76 C12.93 8.43, 23.66 3.53, 26.79 1.73 C29.92 -0.07, 27.28 2.46, 27.35 2.95" stroke="#000000" stroke-width="1" fill="none"></path></g><g stroke-linecap="round" transform="translate(647.10321416168 591.600016784668) rotate(0 34.4000244140625 34.4000244140625)"><path d="M22.97 1.87 C28.79 -0.68, 36.93 -1.42, 43.52 0.58 C50.11 2.58, 58.3 8.48, 62.51 13.86 C66.73 19.23, 68.94 26.21, 68.81 32.84 C68.67 39.47, 65.48 48.09, 61.68 53.65 C57.88 59.21, 52.37 63.97, 46 66.2 C39.62 68.42, 30.08 68.87, 23.42 67 C16.77 65.13, 10.05 60.24, 6.07 54.96 C2.08 49.67, -0.54 41.84, -0.48 35.27 C-0.42 28.71, 2.09 21.08, 6.43 15.56 C10.77 10.04, 21.98 4.4, 25.56 2.16 C29.13 -0.08, 27.68 1.79, 27.87 2.11 M36.05 -0.87 C42.58 -1.23, 50.81 1.91, 56.08 6.34 C61.35 10.78, 65.84 19.1, 67.69 25.75 C69.53 32.4, 69.6 40.22, 67.14 46.24 C64.69 52.27, 58.9 58.06, 52.96 61.89 C47.03 65.71, 38.36 69.39, 31.53 69.19 C24.7 68.99, 17.23 64.9, 11.97 60.71 C6.71 56.51, 1.35 50.33, -0.04 44.03 C-1.42 37.72, 0.86 29.1, 3.67 22.87 C6.49 16.63, 11.32 10.19, 16.85 6.63 C22.37 3.07, 33.4 2.39, 36.81 1.51 C40.22 0.63, 37.42 1.16, 37.33 1.35" stroke="#000000" stroke-width="1" fill="none"></path></g><g stroke-linecap="round" transform="translate(824.9031409194924 592.8000137329102) rotate(0 34.4000244140625 34.4000244140625)"><path d="M27.73 -0.23 C33.91 -1.78, 41.81 0.89, 47.96 3.87 C54.11 6.85, 61.37 12.05, 64.66 17.66 C67.94 23.28, 68.57 30.83, 67.66 37.58 C66.75 44.32, 63.74 53.21, 59.19 58.14 C54.64 63.07, 46.93 66.08, 40.34 67.17 C33.74 68.27, 25.65 67.46, 19.62 64.71 C13.59 61.96, 7.35 56.36, 4.16 50.66 C0.96 44.97, -0.52 37.07, 0.45 30.53 C1.43 24, 5.02 16.38, 10.02 11.46 C15.02 6.53, 26.78 2.64, 30.46 0.98 C34.15 -0.68, 32.29 1.03, 32.14 1.51 M26.43 0.77 C32.38 -0.97, 40.82 0.22, 47.17 3.08 C53.52 5.94, 61.01 12.11, 64.5 17.92 C68 23.73, 69.12 31.51, 68.12 37.92 C67.13 44.34, 62.91 51.53, 58.54 56.42 C54.16 61.31, 48.33 65.92, 41.89 67.28 C35.44 68.64, 25.98 66.97, 19.88 64.57 C13.78 62.18, 8.42 58.35, 5.27 52.9 C2.12 47.45, 0.2 38.72, 0.99 31.89 C1.77 25.06, 5.34 16.92, 9.98 11.92 C14.62 6.92, 25.79 3.62, 28.81 1.9 C31.83 0.19, 28.37 1.3, 28.1 1.64" stroke="#000000" stroke-width="1" fill="none"></path></g><g stroke-linecap="round" transform="translate(826.5031775405862 749.7999832153321) rotate(0 34.4000244140625 34.4000244140625)"><path d="M5.21 17.78 C5.21 17.78, 5.21 17.78, 5.21 17.78 M5.21 17.78 C5.21 17.78, 5.21 17.78, 5.21 17.78 M2.51 24.9 C10.03 20.2, 14.01 11.69, 21.53 2.25 M3.84 25.38 C9.63 18.87, 16.08 11.06, 22.6 4.03 M0.36 36.09 C8.75 24.43, 17.72 15.99, 29.41 4.34 M2.21 33.94 C10.6 25.5, 17.71 14.66, 26.92 3.68 M0.27 39.3 C12.11 28.15, 19.77 18.2, 34.85 2.7 M1.16 39.47 C10.87 30.06, 18.69 21.7, 32.68 3.29 M3.18 42.27 C17.14 31.28, 27.2 16.1, 38.37 3.26 M3.75 44.91 C16.02 31.33, 26.52 18.85, 39.45 3.25 M5.79 47.86 C16.53 37.41, 25.29 22.6, 45.65 1.57 M5.95 47.82 C17.9 34.71, 29.64 18.39, 43.99 2.22 M8.59 53.82 C14.95 42.87, 25.92 34.61, 47.64 3.08 M6.63 52.26 C17.55 40.51, 29.36 27.27, 48.29 5.46 M9.3 55.49 C21.73 43.79, 32.93 29.64, 53.24 5.6 M8.84 55.65 C19.64 44.51, 28.82 32.75, 52.1 7.49 M10.33 58.4 C24.27 44.11, 37.87 28.97, 54.1 7.3 M11.13 59.4 C20.8 49.57, 30.23 39.05, 55.65 8.17 M12.78 60.17 C22.01 50.9, 33.23 40.07, 57.36 9.79 M15.44 61.04 C29.39 45.02, 43.63 27.61, 60.22 9.9 M17.31 62.07 C33.48 45.31, 53.31 26.27, 63.76 12.03 M17.87 63.87 C30.72 49.48, 42.84 37.37, 62.12 13.68 M21.47 67.26 C35.56 50.94, 49.42 32.5, 63.03 18.86 M21.81 65.31 C36.09 49.97, 50.86 32.18, 64.01 17.75 M23.77 68.53 C36.57 54.66, 48.28 42.68, 66.61 20.02 M25.97 68.74 C37.01 53.9, 48.45 40.65, 65.42 20.73 M30.48 70.03 C44.77 52.9, 59.29 35.25, 67.12 27.11 M29.02 69.45 C43.71 52.96, 57.95 37.33, 68.16 24.73 M35.01 71.31 C45.56 56.92, 57.91 46.66, 69.09 30.88 M34.84 68.69 C46.59 57.41, 57.01 43.64, 66.92 30.75 M38.06 68.06 C47.97 63.03, 54.26 55.34, 66.39 39.48 M40.53 68.61 C49.41 58.04, 58.68 48.76, 66.49 39 M46.27 68.33 C55.41 58.04, 60.85 50.86, 64.27 44.39 M46.97 66.59 C52.37 61.44, 56.73 54.85, 65.8 47.1" stroke="#fa5252" stroke-width="0.5" fill="none"></path><path d="M19.99 1.87 C25.83 -1.04, 36 -0.43, 42.72 1.07 C49.44 2.57, 56.14 5.89, 60.31 10.86 C64.47 15.83, 67.06 24.13, 67.72 30.88 C68.39 37.62, 67.74 45.52, 64.28 51.32 C60.81 57.13, 53.36 62.97, 46.95 65.71 C40.55 68.45, 32.35 69.15, 25.86 67.74 C19.37 66.33, 12.27 62.15, 8.02 57.25 C3.77 52.35, 0.83 44.94, 0.38 38.34 C-0.07 31.73, 1.43 23.61, 5.32 17.65 C9.21 11.69, 20.25 5.28, 23.74 2.56 C27.24 -0.15, 26.18 0.99, 26.28 1.35 M34.65 -1.32 C41.09 -1.55, 49.32 2.82, 54.85 6.96 C60.38 11.09, 65.8 17.34, 67.81 23.49 C69.81 29.65, 69.28 37.32, 66.87 43.87 C64.47 50.42, 58.95 58.71, 53.37 62.79 C47.79 66.87, 40.16 68.36, 33.4 68.37 C26.64 68.37, 17.86 66.61, 12.8 62.82 C7.73 59.03, 4.65 51.98, 3.01 45.62 C1.37 39.25, 0.95 30.93, 2.94 24.64 C4.93 18.36, 9.49 11.91, 14.97 7.91 C20.44 3.9, 32.47 1.96, 35.78 0.61 C39.1 -0.73, 35.06 -0.61, 34.85 -0.16" stroke="#000000" stroke-width="1" fill="none"></path></g><g stroke-linecap="round"><g transform="translate(717.7032507827737 631.4000198364258) rotate(0 20.51026013589933 -47.714199600252755)"><path d="M-0.47 -0.97 C6.01 -2.44, 31.5 6.12, 38.2 -9.63 C44.9 -25.38, 39.18 -81.4, 39.75 -95.48" stroke="#000000" stroke-width="1.5" fill="none" stroke-dasharray="8 9"></path></g><g transform="translate(717.7032507827737 631.4000198364258) rotate(0 20.51026013589933 -47.714199600252755)"><path d="M49.27 -67.96 C48.31 -76.21, 43.84 -79.88, 40.17 -95.46" stroke="#000000" stroke-width="1.5" fill="none"></path></g><g transform="translate(717.7032507827737 631.4000198364258) rotate(0 20.51026013589933 -47.714199600252755)"><path d="M28.76 -67.32 C32.8 -75.64, 33.32 -79.47, 40.17 -95.46" stroke="#000000" stroke-width="1.5" fill="none"></path></g></g><mask></mask><g stroke-linecap="round"><g transform="translate(823.1142990810952 629.7607654313551) rotate(0 -20.298579167542584 -44.195998325862945)"><path d="M-0.97 -0.2 C-6.71 -1.63, -28.81 5.71, -35.23 -9.05 C-41.65 -23.82, -39 -75.36, -39.48 -88.78" stroke="#000000" stroke-width="1.5" fill="none" stroke-dasharray="8 9"></path></g><g transform="translate(823.1142990810952 629.7607654313551) rotate(0 -20.298579167542584 -44.195998325862945)"><path d="M-29.66 -60.6 C-33.34 -69.03, -32.6 -73.39, -39.46 -90.58" stroke="#000000" stroke-width="1.5" fill="none"></path></g><g transform="translate(823.1142990810952 629.7607654313551) rotate(0 -20.298579167542584 -44.195998325862945)"><path d="M-50.18 -60.68 C-49.08 -68.93, -43.55 -73.27, -39.46 -90.58" stroke="#000000" stroke-width="1.5" fill="none"></path></g></g><mask></mask><g stroke-linecap="round"><g transform="translate(737.1736361337407 504.0830094834682) rotate(0 -6.624535565078304 -0.5569867269444444)"><path d="M-0.2 -0.03 C-2.3 -0.05, -11.22 -1.13, -13.05 -1.08" stroke="#000000" stroke-width="1.5" fill="none" stroke-dasharray="8 9"></path></g><g transform="translate(737.1736361337407 504.0830094834682) rotate(0 -6.624535565078304 -0.5569867269444444)"><path d="M-7.31 -3.3 C-9.35 -1.93, -10.19 -1.89, -13.59 -1.65" stroke="#000000" stroke-width="1.5" fill="none"></path></g><g transform="translate(737.1736361337407 504.0830094834682) rotate(0 -6.624535565078304 -0.5569867269444444)"><path d="M-7.57 0.8 C-9.51 1.09, -10.28 0.06, -13.59 -1.65" stroke="#000000" stroke-width="1.5" fill="none"></path></g></g><mask></mask><g stroke-linecap="round"><g transform="translate(646.7736727548345 625.683046104562) rotate(0 -4.956255789101078 -0.11781850308182129)"><path d="M-0.03 -1.05 C-1.51 -0.88, -8.46 0.64, -9.88 0.82" stroke="#000000" stroke-width="1.5" fill="none" stroke-dasharray="8 9"></path></g><g transform="translate(646.7736727548345 625.683046104562) rotate(0 -4.956255789101078 -0.11781850308182129)"><path d="M-6.47 -1.8 C-6.62 -0.83, -7.75 -0.83, -10.3 0.63" stroke="#000000" stroke-width="1.5" fill="none"></path></g><g transform="translate(646.7736727548345 625.683046104562) rotate(0 -4.956255789101078 -0.11781850308182129)"><path d="M-5.93 1.16 C-6.2 1.49, -7.44 0.84, -10.3 0.63" stroke="#000000" stroke-width="1.5" fill="none"></path></g></g><mask></mask><g stroke-linecap="round"><g transform="translate(894.7736727548345 628.882997276437) rotate(0 2.6821692898869287 -0.4169622614979289)"><path d="M-1.05 -1.08 C0.05 -1.04, 5.3 0.25, 6.42 0.25" stroke="#000000" stroke-width="1.5" fill="none" stroke-dasharray="8 9"></path></g><g transform="translate(894.7736727548345 628.882997276437) rotate(0 2.6821692898869287 -0.4169622614979289)"><path d="M3.42 1 C4.51 0.68, 4.98 0.26, 6.3 0.35" stroke="#000000" stroke-width="1.5" fill="none"></path></g><g transform="translate(894.7736727548345 628.882997276437) rotate(0 2.6821692898869287 -0.4169622614979289)"><path d="M3.7 -0.89 C4.71 -0.68, 5.1 -0.57, 6.3 0.35" stroke="#000000" stroke-width="1.5" fill="none"></path></g></g><mask></mask><g stroke-linecap="round"><g transform="translate(894.7736727548345 784.882997276437) rotate(0 4.783049945533321 0.4296483779545497)"><path d="M-1.08 0.82 C0.7 0.99, 8.92 0.34, 10.65 0.01" stroke="#000000" stroke-width="1.5" fill="none" stroke-dasharray="8 9"></path></g><g transform="translate(894.7736727548345 784.882997276437) rotate(0 4.783049945533321 0.4296483779545497)"><path d="M6.36 2.46 C7.42 1.23, 8.3 0.78, 10.83 -0.35" stroke="#000000" stroke-width="1.5" fill="none"></path></g><g transform="translate(894.7736727548345 784.882997276437) rotate(0 4.783049945533321 0.4296483779545497)"><path d="M5.94 -1.07 C7.09 -1.24, 8.11 -0.64, 10.83 -0.35" stroke="#000000" stroke-width="1.5" fill="none"></path></g></g><mask></mask><g transform="translate(1586.8708421850483 437.29999084472655) rotate(0 2.22265625 9.199999999999989)"><text x="0" y="0" font-family="Helvetica, Segoe UI Emoji" font-size="16px" fill="#000000" text-anchor="start" style="white-space: pre;" direction="ltr" dominant-baseline="text-before-edge">.</text></g></svg>