<svg version="1.1" xmlns="http://www.w3.org/2000/svg" viewBox="0 0 1601.3161546850483 839.2170988539342" width="4803.948464055145" height="2517.6512965618026" filter="invert(93%) hue-rotate(180deg)">
  <!-- svg-source:excalidraw -->
  
  <defs>
    <style class="style-fonts">
      @font-face {
        font-family: "Virgil";
        src: url("https://excalidraw.com/Virgil.woff2");
      }
      @font-face {
        font-family: "Cascadia";
        src: url("https://excalidraw.com/Cascadia.woff2");
      }
    </style>
  </defs>
  <rect x="0" y="0" width="1601.3161546850483" height="839.2170988539342" fill="#ffffff"></rect><g stroke-linecap="round"><g transform="translate(10.070305075673389 36.300006103515614) rotate(0 110.9395422007004 0.062324402569799986)"><path d="M0.91 0.11 C37.85 0.39, 184.97 0.87, 221.95 1 M-0.07 -0.88 C36.65 -0.86, 183.72 -0.59, 220.76 -0.6" stroke="#000000" stroke-width="1" fill="none"></path></g><g transform="translate(10.070305075673389 36.300006103515614) rotate(0 110.9395422007004 0.062324402569799986)"><path d="M192.75 8.89 C203.47 6.72, 212.52 3.21, 219.75 1.03 M193.45 8.84 C204.48 6.4, 215.06 1.72, 221.45 -1.27" stroke="#000000" stroke-width="1" fill="none"></path></g><g transform="translate(10.070305075673389 36.300006103515614) rotate(0 110.9395422007004 0.062324402569799986)"><path d="M192.77 -11.63 C203.37 -7.12, 212.42 -3.95, 219.75 1.03 M193.47 -11.69 C204.43 -5.98, 215.01 -2.52, 221.45 -1.27" stroke="#000000" stroke-width="1" fill="none"></path></g></g><mask></mask><g transform="translate(11.670311179189014 10) rotate(0 62.71484375 9.200000000000003)"><text x="0" y="0" font-family="Helvetica, Segoe UI Emoji" font-size="16px" fill="#000000" text-anchor="start" style="white-space: pre;" direction="ltr" dominant-baseline="text-before-edge">Change detection</text></g><g stroke-linecap="round"><g transform="translate(10.930720150363697 110.2495186306536) rotate(0 111.20042175799608 -0.6305653765797672)"><path d="M0.23 -1 C37.34 -0.92, 185.12 -0.26, 222.18 -0.26" stroke="#000000" stroke-width="1.5" fill="none" stroke-dasharray="8 9"></path></g><g transform="translate(10.930720150363697 110.2495186306536) rotate(0 111.20042175799608 -0.6305653765797672)"><path d="M192.29 9.55 C200.81 7.57, 206.8 5.88, 222.24 0.54" stroke="#000000" stroke-width="1.5" fill="none"></path></g><g transform="translate(10.930720150363697 110.2495186306536) rotate(0 111.20042175799608 -0.6305653765797672)"><path d="M192.34 -10.97 C200.72 -7.7, 206.69 -4.14, 222.24 0.54" stroke="#000000" stroke-width="1.5" fill="none"></path></g></g><mask></mask><g transform="translate(16.530726253879322 78.74954609647392) rotate(0 92.5078125 9.200000000000003)"><text x="0" y="0" font-family="Helvetica, Segoe UI Emoji" font-size="16px" fill="#000000" text-anchor="start" style="white-space: pre;" direction="ltr" dominant-baseline="text-before-edge">Model logical dependency</text></g><g stroke-linecap="round" transform="translate(13.270317282704639 154.10000915527343) rotate(0 23.599990844726562 23.599990844726562)"><path d="M11.8 0 M11.8 0 C21.47 1.85, 26.64 1.15, 35.4 0 M11.8 0 C21.08 -0.04, 30.26 -0.11, 35.4 0 M35.4 0 C41.73 -0.63, 46.14 4.83, 47.2 11.8 M35.4 0 C45.32 2.28, 47.87 2.64, 47.2 11.8 M47.2 11.8 C48.39 19.74, 46.04 23.69, 47.2 35.4 M47.2 11.8 C47.23 18.34, 48.02 26.37, 47.2 35.4 M47.2 35.4 C49.01 44.51, 44.47 46.16, 35.4 47.2 M47.2 35.4 C47.18 42.88, 42.73 48.85, 35.4 47.2 M35.4 47.2 C29.34 46.14, 26.04 48.72, 11.8 47.2 M35.4 47.2 C28.66 47.94, 23.03 47.86, 11.8 47.2 M11.8 47.2 C2.09 48.29, 1.86 43.18, 0 35.4 M11.8 47.2 C2.67 45.01, 0.81 44.77, 0 35.4 M0 35.4 C-1.72 30.45, -0.56 25.26, 0 11.8 M0 35.4 C-1.17 28.07, 0.52 22.27, 0 11.8 M0 11.8 C1.21 5.74, 4.53 1.31, 11.8 0 M0 11.8 C1.09 4.79, 6.21 -1.03, 11.8 0" stroke="#000000" stroke-width="1" fill="none"></path></g><g transform="translate(79.67031117918901 170.89999694824218) rotate(0 40.01171875 9.199999999999989)"><text x="0" y="0" font-family="Helvetica, Segoe UI Emoji" font-size="16px" fill="#000000" text-anchor="start" style="white-space: pre;" direction="ltr" dominant-baseline="text-before-edge">DOM Node</text></g><g stroke-linecap="round" transform="translate(15.670311179189014 219.70001525878905) rotate(0 23.599990844726562 23.599990844726562)"><path d="M12.07 2.74 C16.14 0.02, 23.66 -1.32, 28.75 -0.26 C33.83 0.79, 39.48 4.89, 42.6 9.05 C45.72 13.21, 47.62 19.61, 47.48 24.7 C47.34 29.79, 45.42 35.91, 41.78 39.57 C38.13 43.23, 30.64 45.89, 25.6 46.68 C20.57 47.47, 15.54 46.84, 11.55 44.31 C7.56 41.78, 3.24 36.36, 1.67 31.5 C0.1 26.63, -0.09 20.01, 2.14 15.13 C4.36 10.24, 12.45 4.51, 15.01 2.18 C17.57 -0.15, 17.56 0.71, 17.47 1.15 M12.43 2.2 C16.68 0.1, 24.58 -0.04, 29.71 1.25 C34.83 2.55, 40.26 5.77, 43.2 9.97 C46.14 14.17, 47.65 21.42, 47.35 26.45 C47.06 31.47, 45.28 36.64, 41.41 40.12 C37.55 43.61, 29.36 46.91, 24.16 47.37 C18.96 47.83, 14.31 45.72, 10.21 42.88 C6.11 40.04, 1.1 35.37, -0.41 30.33 C-1.92 25.29, -0.97 17.49, 1.18 12.66 C3.32 7.82, 10.52 2.97, 12.47 1.31 C14.42 -0.36, 12.59 2.2, 12.86 2.67" stroke="#000000" stroke-width="1" fill="none"></path></g><g transform="translate(82.87029286864214 230.89999694824218) rotate(0 21.7890625 9.199999999999989)"><text x="0" y="0" font-family="Helvetica, Segoe UI Emoji" font-size="16px" fill="#000000" text-anchor="start" style="white-space: pre;" direction="ltr" dominant-baseline="text-before-edge">Model</text></g><g stroke-linecap="round" transform="translate(396.4703294897359 25.300006103515614) rotate(0 44.79998779296875 44.79998779296875)"><path d="M22.4 0 M22.4 0 C34.38 0.98, 45.61 -1.8, 67.2 0 M22.4 0 C35.03 0.3, 47.73 0.45, 67.2 0 M67.2 0 C83.34 1.28, 89.99 5.77, 89.6 22.4 M67.2 0 C79.91 1.97, 89.68 5.47, 89.6 22.4 M89.6 22.4 C90.5 37.14, 89.91 47.68, 89.6 67.2 M89.6 22.4 C89.6 35.67, 89.54 49.19, 89.6 67.2 M89.6 67.2 C90.49 82.98, 80.15 89.27, 67.2 89.6 M89.6 67.2 C88.75 81.7, 79.88 89.88, 67.2 89.6 M67.2 89.6 C50.49 88.76, 37.58 88.33, 22.4 89.6 M67.2 89.6 C49.18 88.86, 33.34 89.79, 22.4 89.6 M22.4 89.6 C6.84 90.26, -0.23 82.72, 0 67.2 M22.4 89.6 C5.28 89.95, 1.29 80.3, 0 67.2 M0 67.2 C-1.41 47.9, 1.24 33.08, 0 22.4 M0 67.2 C0.79 53.27, 0.4 41.87, 0 22.4 M0 22.4 C-1.29 7.87, 5.56 -0.29, 22.4 0 M0 22.4 C0.78 5.34, 7.81 -0.44, 22.4 0" stroke="#000000" stroke-width="1" fill="none"></path></g><g stroke-linecap="round" transform="translate(307.0703050756734 145.50001831054686) rotate(0 44.79998779296875 44.79998779296875)"><path d="M22.4 0 M22.4 0 C40.05 2.12, 55.53 0.78, 67.2 0 M22.4 0 C30.65 0, 40.56 -0.99, 67.2 0 M67.2 0 C83.73 -0.67, 89.03 6.43, 89.6 22.4 M67.2 0 C80.52 -0.47, 88.39 5.28, 89.6 22.4 M89.6 22.4 C89.27 31.64, 88.03 46.22, 89.6 67.2 M89.6 22.4 C89.04 31.51, 90.77 42.4, 89.6 67.2 M89.6 67.2 C89.63 83.29, 80.23 87.9, 67.2 89.6 M89.6 67.2 C90.68 83.37, 80.9 91.27, 67.2 89.6 M67.2 89.6 C54.34 91.42, 40.13 88.9, 22.4 89.6 M67.2 89.6 C53.13 89, 40.55 89.93, 22.4 89.6 M22.4 89.6 C7.92 89.94, 1.95 84.12, 0 67.2 M22.4 89.6 C6.13 90.28, -1.98 83.25, 0 67.2 M0 67.2 C1.64 53.62, -1.52 40.61, 0 22.4 M0 67.2 C0.39 51.02, 0.08 33.85, 0 22.4 M0 22.4 C0.18 6.27, 6.5 1.84, 22.4 0 M0 22.4 C-0.21 6.46, 8.32 -2.26, 22.4 0" stroke="#000000" stroke-width="1" fill="none"></path></g><g stroke-linecap="round" transform="translate(482.87029286864214 148.70001525878905) rotate(0 44.79998779296875 44.79998779296875)"><path d="M22.4 0 M22.4 0 C32.65 -1.28, 42.2 -0.4, 67.2 0 M22.4 0 C34.18 -0.55, 43.9 -0.12, 67.2 0 M67.2 0 C83.25 1.77, 87.64 5.48, 89.6 22.4 M67.2 0 C81.03 -0.16, 90.12 7.86, 89.6 22.4 M89.6 22.4 C90.64 38.49, 91.02 57.58, 89.6 67.2 M89.6 22.4 C88.67 36.69, 88.39 53.11, 89.6 67.2 M89.6 67.2 C88.51 82.74, 82.42 91.03, 67.2 89.6 M89.6 67.2 C89.22 83.14, 82.34 88.22, 67.2 89.6 M67.2 89.6 C55.05 90.3, 42.7 88.44, 22.4 89.6 M67.2 89.6 C53.26 89.18, 40.19 89.06, 22.4 89.6 M22.4 89.6 C6.9 87.93, 1.62 83.32, 0 67.2 M22.4 89.6 C9.39 89.16, -0.29 79.94, 0 67.2 M0 67.2 C0.52 49.88, 0.66 35.22, 0 22.4 M0 67.2 C-0.31 53.03, -0.02 38.86, 0 22.4 M0 22.4 C0.03 8.15, 7.83 -1.33, 22.4 0 M0 22.4 C1.28 7.93, 9.43 0.77, 22.4 0" stroke="#000000" stroke-width="1" fill="none"></path></g><g stroke-linecap="round" transform="translate(485.6702806616109 303.50006408691405) rotate(0 44.79998779296875 44.79998779296875)"><path d="M22.4 0 M22.4 0 C36.65 -0.75, 45.94 -1.31, 67.2 0 M22.4 0 C39.43 0.58, 56.02 0.3, 67.2 0 M67.2 0 C82.31 -1.2, 88.63 9.31, 89.6 22.4 M67.2 0 C81.92 -1.01, 90.45 5.21, 89.6 22.4 M89.6 22.4 C89.72 32.27, 88.7 43.85, 89.6 67.2 M89.6 22.4 C90.28 33.89, 90.31 44.01, 89.6 67.2 M89.6 67.2 C89.35 80.23, 82.99 90.67, 67.2 89.6 M89.6 67.2 C88.58 83.01, 79.87 90.63, 67.2 89.6 M67.2 89.6 C58.06 89.08, 46.63 89.68, 22.4 89.6 M67.2 89.6 C51.33 89.09, 35.65 89.95, 22.4 89.6 M22.4 89.6 C9.17 90.27, 1.19 81.65, 0 67.2 M22.4 89.6 C5.73 87.3, 0.74 84.36, 0 67.2 M0 67.2 C-0.68 57.45, -1.7 45.16, 0 22.4 M0 67.2 C-0.01 52.66, -0.29 37.15, 0 22.4 M0 22.4 C1.33 6.56, 6.26 -1.1, 22.4 0 M0 22.4 C1.05 8.57, 8.05 -1.24, 22.4 0" stroke="#000000" stroke-width="1" fill="none"></path></g><g stroke-linecap="round"><g transform="translate(391.67034169676714 70.09999389648436) rotate(0 -20.520135897889077 35.25492200984833)"><path d="M0.24 1.12 C-6.72 12.44, -34.38 57.24, -41.28 68.8 M-1.09 0.66 C-7.73 12.03, -32.83 58.55, -39.11 69.85" stroke="#000000" stroke-width="1" fill="none"></path></g><g transform="translate(391.67034169676714 70.09999389648436) rotate(0 -20.520135897889077 35.25492200984833)"><path d="M-32.72 38.47 C-37.42 48.66, -36.23 61.29, -38.37 68.42 M-34.57 40.74 C-35.44 50, -37.46 59.7, -39.86 70.65" stroke="#000000" stroke-width="1" fill="none"></path></g><g transform="translate(391.67034169676714 70.09999389648436) rotate(0 -20.520135897889077 35.25492200984833)"><path d="M-14.72 48.32 C-25.58 55.22, -30.48 64.51, -38.37 68.42 M-16.57 50.59 C-23.08 56.7, -30.74 63.32, -39.86 70.65" stroke="#000000" stroke-width="1" fill="none"></path></g></g><mask></mask><g stroke-linecap="round"><g transform="translate(490.0703050756734 71.70003051757811) rotate(0 19.53219501286935 35.19812395559677)"><path d="M-0.08 -0.54 C6.57 11.42, 33.75 59.28, 40.64 70.94 M-1.58 1.79 C4.85 13.48, 32.66 57.75, 39.72 69.16" stroke="#000000" stroke-width="1" fill="none"></path></g><g transform="translate(490.0703050756734 71.70003051757811) rotate(0 19.53219501286935 35.19812395559677)"><path d="M15.21 50.76 C25.67 58.5, 31.7 64.87, 39.47 68.52 M15.24 49.79 C23.6 54.96, 30.3 61.04, 39.35 68.58" stroke="#000000" stroke-width="1" fill="none"></path></g><g transform="translate(490.0703050756734 71.70003051757811) rotate(0 19.53219501286935 35.19812395559677)"><path d="M32.63 39.91 C36.67 51.59, 36.36 61.91, 39.47 68.52 M32.66 38.94 C36.03 47.22, 37.77 56.39, 39.35 68.58" stroke="#000000" stroke-width="1" fill="none"></path></g></g><mask></mask><g stroke-linecap="round"><g transform="translate(528.4703294897358 240.5000030517578) rotate(0 0.10846414741746457 29.210525341755755)"><path d="M1.15 -1.16 C1.2 8.53, 0.17 48.24, 0.01 58.44 M0.29 0.85 C0.21 10.64, -0.81 50.03, -0.93 59.58" stroke="#000000" stroke-width="1" fill="none"></path></g><g transform="translate(528.4703294897358 240.5000030517578) rotate(0 0.10846414741746457 29.210525341755755)"><path d="M-12.42 31.58 C-9.05 39.49, -3.78 46.46, -1.2 60.2 M-10.74 30.66 C-8.96 37.29, -5.21 43.8, 0.01 59.01" stroke="#000000" stroke-width="1" fill="none"></path></g><g transform="translate(528.4703294897358 240.5000030517578) rotate(0 0.10846414741746457 29.210525341755755)"><path d="M7.83 31.99 C5.63 39.98, 5.35 46.84, -1.2 60.2 M9.5 31.07 C6.64 37.42, 5.74 43.84, 0.01 59.01" stroke="#000000" stroke-width="1" fill="none"></path></g></g><mask></mask><g stroke-linecap="round" transform="translate(406.8703539037984 34.0999786376953) rotate(0 34.4000244140625 34.4000244140625)"><path d="M20.56 3.81 C26.29 0.63, 34.33 -0.19, 40.74 0.86 C47.15 1.92, 54.27 5.25, 59.01 10.15 C63.76 15.05, 68.3 23.4, 69.19 30.24 C70.09 37.08, 67.89 45.32, 64.39 51.2 C60.89 57.09, 54.27 62.85, 48.2 65.55 C42.13 68.26, 34.6 68.55, 27.98 67.42 C21.37 66.28, 13.05 63.68, 8.5 58.76 C3.94 53.85, 1.29 44.68, 0.67 37.93 C0.04 31.18, 1.31 24.18, 4.76 18.24 C8.21 12.3, 17.87 5.07, 21.37 2.31 C24.87 -0.46, 25.3 1.05, 25.76 1.63 M38.7 1.36 C45.14 1.91, 53.03 5.21, 58.2 9.74 C63.36 14.27, 68.59 22.17, 69.67 28.54 C70.75 34.92, 68.01 41.74, 64.69 47.98 C61.37 54.22, 55.36 62.79, 49.77 65.98 C44.19 69.17, 37.82 68, 31.18 67.1 C24.54 66.2, 15.14 64.81, 9.94 60.57 C4.75 56.34, 0.9 48.4, 0.02 41.67 C-0.86 34.93, 1.65 26.2, 4.68 20.17 C7.7 14.13, 12.56 8.77, 18.19 5.44 C23.82 2.11, 35.15 0.85, 38.48 0.19 C41.81 -0.47, 38.35 0.98, 38.16 1.47" stroke="#000000" stroke-width="1" fill="none"></path></g><g stroke-linecap="round" transform="translate(317.0703050756734 155.09999389648436) rotate(0 34.4000244140625 34.4000244140625)"><path d="M42.03 0.37 C48.56 1.65, 56.76 7.33, 61.15 12.5 C65.55 17.66, 67.98 24.8, 68.41 31.36 C68.85 37.91, 67.2 46.16, 63.76 51.82 C60.32 57.48, 53.93 62.79, 47.77 65.29 C41.61 67.8, 33.34 68.17, 26.8 66.87 C20.26 65.56, 12.87 62.57, 8.51 57.45 C4.16 52.33, 1.36 42.94, 0.65 36.15 C-0.06 29.37, 0.97 22.28, 4.26 16.75 C7.55 11.23, 13.23 5.27, 20.39 3 C27.54 0.72, 42.27 2.65, 47.2 3.1 C52.13 3.56, 50.08 5.37, 49.97 5.72 M21.92 3.28 C27.6 0.65, 37.19 0.42, 43.88 2.17 C50.57 3.93, 58.05 8.46, 62.06 13.8 C66.07 19.14, 67.61 27.69, 67.92 34.21 C68.22 40.74, 67.43 47.35, 63.87 52.96 C60.31 58.56, 53.16 65.55, 46.55 67.83 C39.94 70.12, 30.57 68.63, 24.21 66.67 C17.85 64.7, 12.57 60.94, 8.39 56.05 C4.2 51.16, -0.57 43.89, -0.92 37.3 C-1.27 30.72, 2.45 22.49, 6.3 16.55 C10.15 10.6, 19.57 3.8, 22.2 1.62 C24.84 -0.57, 22.08 2.61, 22.1 3.43" stroke="#000000" stroke-width="1" fill="none"></path></g><g stroke-linecap="round" transform="translate(494.8702318334859 156.29999084472655) rotate(0 34.4000244140625 34.4000244140625)"><path d="M44.95 1.93 C51.14 3.6, 59.47 8.61, 63.35 14.23 C67.23 19.84, 68.39 28.89, 68.25 35.63 C68.11 42.37, 66.38 49.38, 62.52 54.67 C58.67 59.96, 51.85 65.47, 45.12 67.37 C38.4 69.27, 28.6 68.46, 22.17 66.07 C15.73 63.69, 10.07 58.36, 6.5 53.08 C2.92 47.8, 0.66 40.95, 0.72 34.4 C0.78 27.85, 2.71 19.25, 6.86 13.79 C11 8.32, 18.57 3.35, 25.59 1.59 C32.62 -0.17, 44.4 2.35, 48.98 3.23 C53.57 4.1, 53.35 6.3, 53.11 6.84 M26.63 1.1 C33.26 -0.79, 43.76 -0.02, 50.19 2.79 C56.62 5.59, 62.07 12.02, 65.23 17.95 C68.39 23.88, 69.98 31.73, 69.13 38.36 C68.27 45, 64.85 52.64, 60.09 57.74 C55.33 62.84, 47.45 67.4, 40.56 68.96 C33.67 70.51, 24.56 70.06, 18.75 67.07 C12.95 64.09, 8.83 57.3, 5.73 51.03 C2.63 44.77, -0.53 36.34, 0.16 29.48 C0.84 22.63, 5.38 14.53, 9.85 9.88 C14.31 5.24, 23.73 2.83, 26.93 1.62 C30.12 0.4, 28.57 1.97, 28.99 2.6" stroke="#000000" stroke-width="1" fill="none"></path></g><g stroke-linecap="round" transform="translate(496.47026845457964 313.2999603271484) rotate(0 34.4000244140625 34.4000244140625)"><path d="M38.17 1.08 C44.6 1.21, 51.72 4.27, 56.61 8.41 C61.51 12.56, 65.9 19.46, 67.54 25.93 C69.19 32.4, 69.03 40.75, 66.49 47.25 C63.96 53.74, 58.23 61.23, 52.33 64.89 C46.43 68.55, 37.79 69.92, 31.08 69.22 C24.36 68.52, 17.07 65.16, 12.03 60.68 C6.99 56.19, 2.38 49.02, 0.84 42.32 C-0.7 35.62, 0.04 26.87, 2.79 20.48 C5.53 14.1, 9.99 6.95, 17.31 4.01 C24.63 1.06, 40.77 2.44, 46.68 2.8 C52.59 3.16, 53.23 5.71, 52.78 6.19 M22.17 3.99 C28.19 1.13, 36.84 0.93, 43.26 2.23 C49.69 3.53, 56.35 7.07, 60.73 11.77 C65.11 16.47, 69.19 23.52, 69.54 30.42 C69.89 37.31, 66.43 47.19, 62.82 53.15 C59.21 59.11, 53.79 63.68, 47.89 66.16 C41.98 68.65, 33.91 69.57, 27.38 68.06 C20.85 66.55, 13.14 62.17, 8.7 57.1 C4.27 52.04, 1.36 44.55, 0.77 37.66 C0.18 30.77, 1.83 21.63, 5.15 15.77 C8.47 9.92, 18.19 4.38, 20.66 2.53 C23.14 0.68, 19.88 4.36, 19.99 4.68" stroke="#000000" stroke-width="1" fill="none"></path></g><g stroke-linecap="round"><g transform="translate(387.67034169676714 194.89999694824218) rotate(0 21.617682725242844 -46.48725512917888)"><path d="M0.5 -0.56 C6.82 -2.16, 32.21 6.2, 39.04 -9.25 C45.87 -24.7, 41.06 -78.97, 41.46 -93.26" stroke="#000000" stroke-width="1.5" fill="none" stroke-dasharray="8 9"></path></g><g transform="translate(387.67034169676714 194.89999694824218) rotate(0 21.617682725242844 -46.48725512917888)"><path d="M51.55 -64.3 C48.62 -75.27, 45.56 -86.36, 40.44 -94.33" stroke="#000000" stroke-width="1.5" fill="none"></path></g><g transform="translate(387.67034169676714 194.89999694824218) rotate(0 21.617682725242844 -46.48725512917888)"><path d="M31.04 -63.74 C36.24 -75.01, 41.31 -86.33, 40.44 -94.33" stroke="#000000" stroke-width="1.5" fill="none"></path></g></g><mask></mask><g stroke-linecap="round"><g transform="translate(493.0813899950884 193.26074254317138) rotate(0 -19.566831995433745 -44.89217834934084)"><path d="M-0.2 0.32 C-6.06 -1.19, -29.39 6.1, -35.64 -9.05 C-41.89 -24.2, -37.22 -77.14, -37.72 -90.57" stroke="#000000" stroke-width="1.5" fill="none" stroke-dasharray="8 9"></path></g><g transform="translate(493.0813899950884 193.26074254317138) rotate(0 -19.566831995433745 -44.89217834934084)"><path d="M-27.63 -62.87 C-32.35 -68.3, -34.67 -77.14, -37.75 -90.22" stroke="#000000" stroke-width="1.5" fill="none"></path></g><g transform="translate(493.0813899950884 193.26074254317138) rotate(0 -19.566831995433745 -44.89217834934084)"><path d="M-48.15 -63.38 C-47.6 -68.65, -44.65 -77.35, -37.75 -90.22" stroke="#000000" stroke-width="1.5" fill="none"></path></g></g><mask></mask><g stroke-linecap="round" transform="translate(396.2000784161126 461.4170652845982) rotate(0 44.79998779296875 44.79998779296875)"><path d="M22.4 0 M22.4 0 C30.54 -1.24, 43.07 -1.46, 67.2 0 M22.4 0 C39.61 -0.01, 57.25 -0.52, 67.2 0 M67.2 0 C82.88 -0.67, 91.03 5.95, 89.6 22.4 M67.2 0 C81.74 -1.71, 90.01 9.43, 89.6 22.4 M89.6 22.4 C87.4 38.85, 89.17 52.88, 89.6 67.2 M89.6 22.4 C90.22 32.58, 89.94 42.93, 89.6 67.2 M89.6 67.2 C89.25 83.73, 80.23 89.68, 67.2 89.6 M89.6 67.2 C88.54 81.78, 81.4 88.75, 67.2 89.6 M67.2 89.6 C49.06 90.53, 35.57 91.15, 22.4 89.6 M67.2 89.6 C52.56 90.29, 38.7 90.5, 22.4 89.6 M22.4 89.6 C9.26 88.25, -1.88 80.73, 0 67.2 M22.4 89.6 C8.51 90.87, 0.59 81.88, 0 67.2 M0 67.2 C-0.73 57.02, -1.5 46.26, 0 22.4 M0 67.2 C-0.04 54.36, 0.25 42.82, 0 22.4 M0 22.4 C-0.85 5.55, 5.57 -1.64, 22.4 0 M0 22.4 C1.9 8.11, 6.88 -0.78, 22.4 0" stroke="#000000" stroke-width="1" fill="none"></path></g><g stroke-linecap="round" transform="translate(306.8000540020501 581.6170774916295) rotate(0 44.79998779296875 44.79998779296875)"><path d="M22.4 0 M22.4 0 C36.33 1.23, 51.41 2.02, 67.2 0 M22.4 0 C34.6 0.65, 46.22 0.31, 67.2 0 M67.2 0 C81.46 1.43, 88.08 7.13, 89.6 22.4 M67.2 0 C80.42 0.41, 91.57 8.6, 89.6 22.4 M89.6 22.4 C90.24 33.33, 88.62 43.16, 89.6 67.2 M89.6 22.4 C89.21 34.88, 89.44 46.22, 89.6 67.2 M89.6 67.2 C91.2 80.23, 82.21 88.68, 67.2 89.6 M89.6 67.2 C89.25 81.4, 81.28 91.29, 67.2 89.6 M67.2 89.6 C52.21 91.12, 37.24 89.74, 22.4 89.6 M67.2 89.6 C57.93 89.94, 48.33 90.42, 22.4 89.6 M22.4 89.6 C6.11 87.72, -1.41 83.04, 0 67.2 M22.4 89.6 C8.74 90.19, -0.25 80.19, 0 67.2 M0 67.2 C-0.17 55.59, -1.27 47.34, 0 22.4 M0 67.2 C0.2 58.03, 1.28 48.84, 0 22.4 M0 22.4 C-1.91 5.57, 5.83 1.65, 22.4 0 M0 22.4 C0.64 6.88, 6.69 1.8, 22.4 0" stroke="#000000" stroke-width="1" fill="none"></path></g><g stroke-linecap="round" transform="translate(482.60004179501885 584.8170744398717) rotate(0 44.79998779296875 44.79998779296875)"><path d="M22.4 0 M22.4 0 C35.4 -1.28, 48.36 -0.28, 67.2 0 M22.4 0 C37.48 -0.46, 51.51 -0.37, 67.2 0 M67.2 0 C83.57 -1.52, 89.26 5.98, 89.6 22.4 M67.2 0 C82.55 1.97, 90.73 6.28, 89.6 22.4 M89.6 22.4 C88.97 33.31, 87.68 45.18, 89.6 67.2 M89.6 22.4 C90.43 31.73, 89.77 41.31, 89.6 67.2 M89.6 67.2 C87.7 82.21, 81.21 89.3, 67.2 89.6 M89.6 67.2 C88.86 81.28, 83.82 90.7, 67.2 89.6 M67.2 89.6 C52.34 90.96, 34.27 88.12, 22.4 89.6 M67.2 89.6 C52.79 90.61, 38.44 89.17, 22.4 89.6 M22.4 89.6 C5.59 88.19, 0.91 83.24, 0 67.2 M22.4 89.6 C8.06 89.35, -1.94 80.24, 0 67.2 M0 67.2 C-1.62 55.67, -0.12 45.39, 0 22.4 M0 67.2 C0.02 58.9, -0.21 47.95, 0 22.4 M0 22.4 C-1.9 5.83, 9.12 0.56, 22.4 0 M0 22.4 C-0.59 6.69, 9.27 -2.12, 22.4 0" stroke="#000000" stroke-width="1" fill="none"></path></g><g stroke-linecap="round" transform="translate(485.4000295879876 739.6171232679967) rotate(0 44.79998779296875 44.79998779296875)"><path d="M22.4 0 M22.4 0 C30.26 1.43, 40.71 0.23, 67.2 0 M22.4 0 C36.04 0.06, 50.19 0.4, 67.2 0 M67.2 0 C80.61 -0.34, 88.11 7.83, 89.6 22.4 M67.2 0 C84.1 1.13, 88.41 6.58, 89.6 22.4 M89.6 22.4 C88.98 29.96, 89.14 38.53, 89.6 67.2 M89.6 22.4 C89.9 39.1, 90.42 55.2, 89.6 67.2 M89.6 67.2 C89.68 81.21, 81.83 88.96, 67.2 89.6 M89.6 67.2 C88.75 83.82, 83.24 91.27, 67.2 89.6 M67.2 89.6 C58.13 90.46, 45 90.63, 22.4 89.6 M67.2 89.6 C55.32 90.69, 41.25 88.85, 22.4 89.6 M22.4 89.6 C6.06 90.51, 1.1 82.65, 0 67.2 M22.4 89.6 C7.22 87.66, -1.9 80.32, 0 67.2 M0 67.2 C-1.51 55.86, -1.88 43.34, 0 22.4 M0 67.2 C0.95 55.52, -0.86 43.75, 0 22.4 M0 22.4 C-1.64 9.12, 8.03 -0.51, 22.4 0 M0 22.4 C-0.78 9.27, 5.35 2.13, 22.4 0" stroke="#000000" stroke-width="1" fill="none"></path></g><g stroke-linecap="round" transform="translate(406.6001028301751 470.2170378187779) rotate(0 34.4000244140625 34.4000244140625)"><path d="M36.12 -0.31 C42.53 -0.58, 51.2 2.52, 56.41 6.62 C61.61 10.72, 65.59 17.56, 67.34 24.31 C69.08 31.07, 69.08 40.79, 66.86 47.15 C64.64 53.52, 59.71 59.04, 54.01 62.48 C48.31 65.92, 39.42 67.98, 32.67 67.79 C25.92 67.6, 18.81 65.45, 13.52 61.32 C8.22 57.19, 2.84 49.64, 0.89 43.01 C-1.06 36.37, -0.72 27.72, 1.8 21.52 C4.33 15.33, 9.46 9.29, 16.05 5.85 C22.64 2.41, 36.45 1.3, 41.34 0.89 C46.24 0.48, 45.78 2.88, 45.43 3.4 M26 2.01 C32.28 0.36, 42.33 1.27, 48.46 3.78 C54.59 6.28, 59.17 11.3, 62.77 17.04 C66.37 22.77, 70.38 31.76, 70.05 38.2 C69.72 44.64, 65.33 50.76, 60.78 55.67 C56.22 60.57, 49.2 65.78, 42.71 67.62 C36.23 69.47, 27.99 69.08, 21.89 66.74 C15.79 64.39, 9.91 59.67, 6.11 53.56 C2.32 47.46, -1.09 36.93, -0.89 30.11 C-0.69 23.28, 2.6 17.4, 7.31 12.6 C12.02 7.8, 24.17 3.34, 27.38 1.29 C30.59 -0.75, 26.76 0.01, 26.54 0.31" stroke="#000000" stroke-width="1" fill="none"></path></g><g stroke-linecap="round" transform="translate(316.8000540020501 591.217053077567) rotate(0 34.4000244140625 34.4000244140625)"><path d="M46.01 2.86 C52.12 4.55, 58.59 9.63, 62.26 15.15 C65.93 20.67, 68.03 29.13, 68.03 35.97 C68.03 42.82, 66.39 51.03, 62.25 56.22 C58.1 61.41, 49.98 65.33, 43.18 67.13 C36.39 68.94, 27.72 69.41, 21.47 67.06 C15.22 64.72, 9.38 58.8, 5.68 53.08 C1.98 47.35, -0.84 39.23, -0.71 32.69 C-0.59 26.15, 2.12 18.99, 6.43 13.84 C10.74 8.68, 17.72 3.41, 25.15 1.76 C32.58 0.12, 46 3.19, 51.01 3.95 C56.01 4.71, 55.5 5.85, 55.19 6.31 M32.9 0.82 C39.51 -0.21, 47.91 0.42, 53.54 4.06 C59.17 7.71, 64.13 16.23, 66.67 22.69 C69.2 29.16, 70.61 36.46, 68.75 42.86 C66.88 49.26, 60.79 56.64, 55.46 61.08 C50.12 65.53, 43.15 68.9, 36.74 69.52 C30.32 70.15, 22.44 68.67, 16.97 64.82 C11.51 60.98, 6.83 53.06, 3.93 46.46 C1.03 39.86, -1.92 31.47, -0.44 25.22 C1.04 18.98, 7.37 13.23, 12.81 9.01 C18.25 4.8, 29.22 1.51, 32.18 -0.06 C35.14 -1.64, 30.8 -0.91, 30.58 -0.45" stroke="#000000" stroke-width="1" fill="none"></path></g><g stroke-linecap="round" transform="translate(494.5999807598626 592.4170500258092) rotate(0 34.4000244140625 34.4000244140625)"><path d="M27.88 0.01 C33.95 -1.86, 42.06 -0.8, 48.14 2.19 C54.21 5.19, 60.83 12.11, 64.33 17.98 C67.82 23.84, 69.89 30.99, 69.11 37.39 C68.33 43.79, 64.15 51.28, 59.64 56.37 C55.13 61.46, 48.64 66.47, 42.04 67.93 C35.45 69.39, 26.37 68, 20.09 65.12 C13.8 62.25, 7.52 56.4, 4.33 50.7 C1.14 45, 0.12 37.44, 0.95 30.95 C1.77 24.45, 3.79 16.75, 9.26 11.72 C14.73 6.7, 28.7 2.54, 33.77 0.8 C38.84 -0.93, 39.71 0.89, 39.67 1.31 M29.62 1.53 C35.79 -0.06, 42.73 1.14, 48.86 4.15 C54.98 7.16, 63.06 13.88, 66.37 19.6 C69.68 25.32, 69.92 31.99, 68.74 38.45 C67.55 44.92, 63.94 53.29, 59.27 58.37 C54.6 63.46, 47.26 67.64, 40.72 68.99 C34.18 70.33, 26.35 69.83, 20.03 66.45 C13.7 63.07, 6.23 54.82, 2.79 48.71 C-0.66 42.6, -1.99 36.17, -0.65 29.81 C0.69 23.45, 5.92 15.65, 10.82 10.54 C15.72 5.44, 25.92 0.94, 28.74 -0.82 C31.57 -2.59, 27.8 -0.77, 27.78 -0.06" stroke="#000000" stroke-width="1" fill="none"></path></g><g stroke-linecap="round" transform="translate(496.20001738095635 749.4170195082311) rotate(0 34.4000244140625 34.4000244140625)"><path d="M40.02 0.43 C46.33 1.07, 53.8 5.97, 58.69 10.98 C63.58 16, 68.48 23.92, 69.38 30.52 C70.27 37.11, 67.6 44.63, 64.06 50.53 C60.52 56.43, 54.15 63.02, 48.12 65.9 C42.1 68.78, 34.5 69.17, 27.92 67.8 C21.34 66.43, 13.4 62.38, 8.63 57.67 C3.86 52.97, 0.03 46.09, -0.7 39.54 C-1.42 32.99, 0.83 24.44, 4.28 18.37 C7.72 12.3, 13.17 6.11, 19.97 3.13 C26.77 0.15, 40.51 0.55, 45.09 0.5 C49.67 0.45, 47.78 2.19, 47.46 2.84 M29.18 -0.47 C35.28 -1.99, 43.56 1.58, 49.62 4.7 C55.68 7.83, 62.58 12.52, 65.53 18.29 C68.47 24.06, 68.37 32.55, 67.3 39.31 C66.23 46.07, 63.44 53.86, 59.12 58.87 C54.79 63.88, 47.7 68.43, 41.34 69.36 C34.98 70.29, 27.41 67.71, 20.98 64.45 C14.55 61.19, 6.12 55.41, 2.78 49.8 C-0.55 44.19, -0.2 37.32, 0.97 30.78 C2.14 24.25, 5.49 15.83, 9.8 10.59 C14.11 5.35, 23.95 1.04, 26.82 -0.65 C29.69 -2.35, 26.78 -0.1, 27.03 0.43" stroke="#000000" stroke-width="1" fill="none"></path></g><g stroke-linecap="round"><g transform="translate(387.40009062314385 631.0170561293248) rotate(0 20.48512076825773 -46.701644107572406)"><path d="M-0.51 0.45 C5.81 -1.15, 31.26 7.1, 38 -8.74 C44.73 -24.58, 39.57 -80.36, 39.89 -94.6" stroke="#000000" stroke-width="1.5" fill="none" stroke-dasharray="8 9"></path></g><g transform="translate(387.40009062314385 631.0170561293248) rotate(0 20.48512076825773 -46.701644107572406)"><path d="M51.82 -67.44 C48.87 -76.91, 43.65 -85.44, 40.25 -92.89" stroke="#000000" stroke-width="1.5" fill="none"></path></g><g transform="translate(387.40009062314385 631.0170561293248) rotate(0 20.48512076825773 -46.701644107572406)"><path d="M31.31 -66.76 C34.67 -76.35, 35.76 -85.09, 40.25 -92.89" stroke="#000000" stroke-width="1.5" fill="none"></path></g></g><mask></mask><g stroke-linecap="round"><g transform="translate(492.81113892146533 629.3778017242539) rotate(0 -19.129341521996707 -45.02083193083445)"><path d="M0.45 -0.4 C-5.42 -1.8, -27.83 6.1, -34.34 -8.91 C-40.85 -23.93, -37.96 -77.21, -38.6 -90.49" stroke="#000000" stroke-width="1.5" fill="none" stroke-dasharray="8 9"></path></g><g transform="translate(492.81113892146533 629.3778017242539) rotate(0 -19.129341521996707 -45.02083193083445)"><path d="M-29.05 -60.85 C-33.57 -73.05, -37.33 -82.81, -36.89 -89.51" stroke="#000000" stroke-width="1.5" fill="none"></path></g><g transform="translate(492.81113892146533 629.3778017242539) rotate(0 -19.129341521996707 -45.02083193083445)"><path d="M-49.57 -60.88 C-46.48 -73.14, -42.63 -82.9, -36.89 -89.51" stroke="#000000" stroke-width="1.5" fill="none"></path></g></g><mask></mask><g stroke-linecap="round"><g transform="translate(406.8704759741109 503.7000457763672) rotate(0 -5.914862971007835 -0.3894931616751478)"><path d="M-0.62 -0.38 C-2.4 -0.54, -9.15 -0.43, -11.21 -0.32" stroke="#000000" stroke-width="1.5" fill="none" stroke-dasharray="8 9"></path></g><g transform="translate(406.8704759741109 503.7000457763672) rotate(0 -5.914862971007835 -0.3894931616751478)"><path d="M-5.83 -2.16 C-7.2 -2.52, -8.3 -0.98, -11.46 -0.87" stroke="#000000" stroke-width="1.5" fill="none"></path></g><g transform="translate(406.8704759741109 503.7000457763672) rotate(0 -5.914862971007835 -0.3894931616751478)"><path d="M-5.7 1.94 C-7.12 0.54, -8.26 1.03, -11.46 -0.87" stroke="#000000" stroke-width="1.5" fill="none"></path></g></g><mask></mask><g stroke-linecap="round"><g transform="translate(316.47051259520464 625.300082397461) rotate(0 -4.055056305229698 -0.752394034009285)"><path d="M0.76 -0.61 C-0.61 -0.94, -7.15 -0.94, -8.87 -0.83" stroke="#000000" stroke-width="1.5" fill="none" stroke-dasharray="8 9"></path></g><g transform="translate(316.47051259520464 625.300082397461) rotate(0 -4.055056305229698 -0.752394034009285)"><path d="M-5 -2.46 C-6.09 -2.29, -6.77 -1.98, -9 -0.98" stroke="#000000" stroke-width="1.5" fill="none"></path></g><g transform="translate(316.47051259520464 625.300082397461) rotate(0 -4.055056305229698 -0.752394034009285)"><path d="M-4.92 0.54 C-6.06 -0.03, -6.76 -0.47, -9 -0.98" stroke="#000000" stroke-width="1.5" fill="none"></path></g></g><mask></mask><g stroke-linecap="round"><g transform="translate(564.4705125952046 628.500033569336) rotate(0 2.767864508926891 -0.2230439856648445)"><path d="M-0.73 0.33 C0.23 0.09, 5.37 -0.63, 6.26 -0.78" stroke="#000000" stroke-width="1.5" fill="none" stroke-dasharray="8 9"></path></g><g transform="translate(564.4705125952046 628.500033569336) rotate(0 2.767864508926891 -0.2230439856648445)"><path d="M3.88 0.72 C4.46 -0.11, 5.35 -0.17, 6.51 -0.67" stroke="#000000" stroke-width="1.5" fill="none"></path></g><g transform="translate(564.4705125952046 628.500033569336) rotate(0 2.767864508926891 -0.2230439856648445)"><path d="M3.6 -1.18 C4.28 -1.35, 5.28 -0.76, 6.51 -0.67" stroke="#000000" stroke-width="1.5" fill="none"></path></g></g><mask></mask><g stroke-linecap="round"><g transform="translate(564.4705125952046 784.500033569336) rotate(0 5.571149758994579 0.388687858843241)"><path d="M-0.32 -0.15 C1.42 -0.14, 9.53 1.08, 11.46 0.91" stroke="#000000" stroke-width="1.5" fill="none" stroke-dasharray="8 9"></path></g><g transform="translate(564.4705125952046 784.500033569336) rotate(0 5.571149758994579 0.388687858843241)"><path d="M6.43 2.91 C8.78 2.27, 9.78 1.26, 11.9 0.43" stroke="#000000" stroke-width="1.5" fill="none"></path></g><g transform="translate(564.4705125952046 784.500033569336) rotate(0 5.571149758994579 0.388687858843241)"><path d="M6.61 -0.65 C8.91 0.07, 9.85 0.42, 11.9 0.43" stroke="#000000" stroke-width="1.5" fill="none"></path></g></g><mask></mask><g transform="translate(1586.8708421850483 437.29999084472655) rotate(0 2.22265625 9.199999999999989)"><text x="0" y="0" font-family="Helvetica, Segoe UI Emoji" font-size="16px" fill="#000000" text-anchor="start" style="white-space: pre;" direction="ltr" dominant-baseline="text-before-edge">.</text></g></svg>