<svg version="1.1" xmlns="http://www.w3.org/2000/svg" viewBox="0 0 1010.9090909090908 268.54545454545445" width="3032.727272727272" height="805.6363636363633" filter="invert(93%) hue-rotate(180deg)">
  <!-- svg-source:excalidraw -->
  
  <defs>
    <style class="style-fonts">
      @font-face {
        font-family: "Virgil";
        src: url("https://excalidraw.com/Virgil.woff2");
      }
      @font-face {
        font-family: "Cascadia";
        src: url("https://excalidraw.com/Cascadia.woff2");
      }
    </style>
  </defs>
  <rect x="0" y="0" width="1010.9090909090908" height="268.54545454545445" fill="#ffffff"></rect><g stroke-linecap="round" transform="translate(10 69) rotate(0 143.50000000000003 47.5)"><path d="M23.75 0 M23.75 0 C93.18 0.37, 159.21 0.99, 263.25 0 M23.75 0 C94.14 0.26, 165.85 -0.37, 263.25 0 M263.25 0 C278.32 0.27, 285.98 9.86, 287 23.75 M263.25 0 C278.68 -0.62, 285.29 7.88, 287 23.75 M287 23.75 C288.99 34.5, 287.91 49.88, 287 71.25 M287 23.75 C288.18 40.02, 287.23 57.68, 287 71.25 M287 71.25 C288.94 85.64, 278.43 93.06, 263.25 95 M287 71.25 C287.1 88.52, 279.08 92.99, 263.25 95 M263.25 95 C204.2 93.74, 145.18 93.99, 23.75 95 M263.25 95 C176.83 94.54, 90.14 94.22, 23.75 95 M23.75 95 C7.33 94.6, 0.05 86.56, 0 71.25 M23.75 95 C7.77 94.2, -1.01 86.32, 0 71.25 M0 71.25 C2.04 51.8, 1.88 37.52, 0 23.75 M0 71.25 C-0.48 56.88, -0.56 44.12, 0 23.75 M0 23.75 C-0.57 7.36, 6.36 -0.03, 23.75 0 M0 23.75 C-0.14 5.8, 8.11 1.85, 23.75 0" stroke="#000000" stroke-width="1" fill="none"></path></g><g transform="translate(112.923828125 93.5) rotate(0 40.576171875 23)"><text x="40.576171875" y="0" font-family="Helvetica, Segoe UI Emoji" font-size="20px" fill="#000000" text-anchor="middle" style="white-space: pre;" direction="ltr" dominant-baseline="text-before-edge">Template</text><text x="40.576171875" y="23" font-family="Helvetica, Segoe UI Emoji" font-size="20px" fill="#000000" text-anchor="middle" style="white-space: pre;" direction="ltr" dominant-baseline="text-before-edge">&lt;&gt;</text></g><g stroke-linecap="round" transform="translate(160.2727272727273 163.54545454545445) rotate(0 68.5 47.5)"><path d="M23.75 0 M23.75 0 C44.41 0.84, 70.24 -0.98, 113.25 0 M23.75 0 C50.09 -0.13, 78.03 0.14, 113.25 0 M113.25 0 C128.53 -1.56, 136.97 7.79, 137 23.75 M113.25 0 C126.97 0.19, 138.85 8.57, 137 23.75 M137 23.75 C135.86 35.96, 138.74 47.32, 137 71.25 M137 23.75 C136.53 41.16, 137.17 59.75, 137 71.25 M137 71.25 C138.47 88.04, 127.39 94.33, 113.25 95 M137 71.25 C135.94 88.39, 131.2 96.22, 113.25 95 M113.25 95 C80.82 93.58, 50.81 94.63, 23.75 95 M113.25 95 C78.18 95.34, 42.58 95.41, 23.75 95 M23.75 95 C8.84 94.53, 0.86 85.4, 0 71.25 M23.75 95 C8.54 92.89, 2.03 88.28, 0 71.25 M0 71.25 C-0.21 55.87, -0.98 40.95, 0 23.75 M0 71.25 C1.25 59.93, 0.08 50.38, 0 23.75 M0 23.75 C-0.48 6.02, 6 -1.81, 23.75 0 M0 23.75 C1.03 7.9, 8.62 0.62, 23.75 0" stroke="#000000" stroke-width="1" fill="none"></path></g><g transform="translate(190.4133522727273 199.54545454545445) rotate(0 38.359375 11.5)"><text x="38.359375" y="0" font-family="Helvetica, Segoe UI Emoji" font-size="20px" fill="#000000" text-anchor="middle" style="white-space: pre;" direction="ltr" dominant-baseline="text-before-edge">Bindings</text></g><g stroke-linecap="round" transform="translate(457.2727272727271 76.36363636363637) rotate(0 23.181818181818187 23.181818181818187)"><path d="M28.1 0.84 C32.96 1.67, 39.71 5.33, 42.71 9.43 C45.7 13.53, 46.37 20.4, 46.06 25.46 C45.75 30.52, 44.18 36.47, 40.84 39.79 C37.5 43.1, 31.02 44.9, 26 45.36 C20.98 45.82, 14.78 45.13, 10.72 42.53 C6.65 39.93, 2.95 34.69, 1.62 29.75 C0.29 24.82, 0.7 17.59, 2.74 12.92 C4.78 8.24, 8.8 3.5, 13.84 1.71 C18.89 -0.09, 28.96 1.39, 33.02 2.17 C37.08 2.95, 38.27 5.94, 38.22 6.38 M29.55 1.07 C34.39 1.78, 40.27 6.52, 42.98 10.2 C45.69 13.89, 46.29 18.41, 45.81 23.18 C45.34 27.95, 43.32 35.07, 40.16 38.84 C37 42.62, 31.57 45.17, 26.85 45.82 C22.14 46.47, 16.27 45.16, 11.86 42.74 C7.46 40.32, 2.17 36, 0.42 31.32 C-1.33 26.63, -0.78 19.21, 1.37 14.62 C3.51 10.03, 8.61 5.96, 13.29 3.8 C17.96 1.64, 27.17 2.05, 29.44 1.65 C31.71 1.25, 27.41 1.41, 26.9 1.4" stroke="#000000" stroke-width="1" fill="none"></path></g><g stroke-linecap="round" transform="translate(460.45454545454555 194.09090909090912) rotate(0 23.181818181818187 23.181818181818187)"><path d="M28.1 0.84 C32.96 1.67, 39.71 5.33, 42.71 9.43 C45.7 13.53, 46.37 20.4, 46.06 25.46 C45.75 30.52, 44.18 36.47, 40.84 39.79 C37.5 43.1, 31.02 44.9, 26 45.36 C20.98 45.82, 14.78 45.13, 10.72 42.53 C6.65 39.93, 2.95 34.69, 1.62 29.75 C0.29 24.82, 0.7 17.59, 2.74 12.92 C4.78 8.24, 8.8 3.5, 13.84 1.71 C18.89 -0.09, 28.96 1.39, 33.02 2.17 C37.08 2.95, 38.27 5.94, 38.22 6.38 M29.55 1.07 C34.39 1.78, 40.27 6.52, 42.98 10.2 C45.69 13.89, 46.29 18.41, 45.81 23.18 C45.34 27.95, 43.32 35.07, 40.16 38.84 C37 42.62, 31.57 45.17, 26.85 45.82 C22.14 46.47, 16.27 45.16, 11.86 42.74 C7.46 40.32, 2.17 36, 0.42 31.32 C-1.33 26.63, -0.78 19.21, 1.37 14.62 C3.51 10.03, 8.61 5.96, 13.29 3.8 C17.96 1.64, 27.17 2.05, 29.44 1.65 C31.71 1.25, 27.41 1.41, 26.9 1.4" stroke="#000000" stroke-width="1" fill="none"></path></g><g stroke-linecap="round" transform="translate(459.5454545454542 135) rotate(0 23.181818181818187 23.181818181818187)"><path d="M28.1 0.84 C32.96 1.67, 39.71 5.33, 42.71 9.43 C45.7 13.53, 46.37 20.4, 46.06 25.46 C45.75 30.52, 44.18 36.47, 40.84 39.79 C37.5 43.1, 31.02 44.9, 26 45.36 C20.98 45.82, 14.78 45.13, 10.72 42.53 C6.65 39.93, 2.95 34.69, 1.62 29.75 C0.29 24.82, 0.7 17.59, 2.74 12.92 C4.78 8.24, 8.8 3.5, 13.84 1.71 C18.89 -0.09, 28.96 1.39, 33.02 2.17 C37.08 2.95, 38.27 5.94, 38.22 6.38 M29.55 1.07 C34.39 1.78, 40.27 6.52, 42.98 10.2 C45.69 13.89, 46.29 18.41, 45.81 23.18 C45.34 27.95, 43.32 35.07, 40.16 38.84 C37 42.62, 31.57 45.17, 26.85 45.82 C22.14 46.47, 16.27 45.16, 11.86 42.74 C7.46 40.32, 2.17 36, 0.42 31.32 C-1.33 26.63, -0.78 19.21, 1.37 14.62 C3.51 10.03, 8.61 5.96, 13.29 3.8 C17.96 1.64, 27.17 2.05, 29.44 1.65 C31.71 1.25, 27.41 1.41, 26.9 1.4" stroke="#000000" stroke-width="1" fill="none"></path></g><g stroke-linecap="round" transform="translate(10.772727272727252 163.40909090909076) rotate(0 74 47.5)"><path d="M23.75 0 M23.75 0 C54.09 0.92, 80.34 1.66, 124.25 0 M124.25 0 C140.03 -0.23, 147.82 5.99, 148 23.75 M148 23.75 C147.08 38.74, 146.82 55.13, 148 71.25 M148 71.25 C147.65 86.54, 138.6 94.97, 124.25 95 M124.25 95 C99.32 93.42, 71.5 96.17, 23.75 95 M23.75 95 C9.1 96.7, -0.28 88.64, 0 71.25 M0 71.25 C2.03 59.3, -0.57 48.29, 0 23.75 M0 23.75 C0.08 9.17, 7.92 -1.75, 23.75 0" stroke="#000000" stroke-width="1.5" fill="none" stroke-dasharray="8 9"></path></g><g transform="translate(60.86647727272725 187.90909090909076) rotate(0 23.90625 23)"><text x="23.90625" y="0" font-family="Helvetica, Segoe UI Emoji" font-size="20px" fill="#000000" text-anchor="middle" style="white-space: pre;" direction="ltr" dominant-baseline="text-before-edge">Code</text><text x="23.90625" y="23" font-family="Helvetica, Segoe UI Emoji" font-size="20px" fill="#000000" text-anchor="middle" style="white-space: pre;" direction="ltr" dominant-baseline="text-before-edge">{}</text></g><g stroke-linecap="round"><g transform="translate(311.8181818181817 92.72727223699258) rotate(0 71.27775472949804 0.08595421687206795)"><path d="M0.13 0.47 C24.04 0.55, 120.07 1.1, 143.81 0.9 M-1.26 -0.32 C22.55 -0.61, 119.61 -0.84, 143.44 -0.75" stroke="#000000" stroke-width="1" fill="none"></path></g><g transform="translate(311.8181818181817 92.72727223699258) rotate(0 71.27775472949804 0.08595421687206795)"><path d="M116.04 11.32 C126.04 5.81, 132.61 1.09, 143.87 0.89 M115.23 9.03 C120.91 7.71, 127.62 4.18, 143 -1.66" stroke="#000000" stroke-width="1" fill="none"></path></g><g transform="translate(311.8181818181817 92.72727223699258) rotate(0 71.27775472949804 0.08595421687206795)"><path d="M116.03 -9.2 C126.11 -7.92, 132.68 -5.85, 143.87 0.89 M115.23 -11.49 C120.91 -8.49, 127.62 -7.71, 143 -1.66" stroke="#000000" stroke-width="1" fill="none"></path></g></g><mask></mask><g stroke-linecap="round"><g transform="translate(311.8181818181817 155.81818181818176) rotate(0 71.43850839740008 1.5276123408262094)"><path d="M0.88 0.66 C24.62 1.01, 119.5 1.77, 143 1.96 M-0.12 -0.03 C23.44 0.46, 118.11 2.65, 142.19 3.09" stroke="#000000" stroke-width="1" fill="none"></path></g><g transform="translate(311.8181818181817 155.81818181818176) rotate(0 71.43850839740008 1.5276123408262094)"><path d="M114.9 13.2 C122.32 7.8, 131.8 4.25, 141.67 2.85 M112.99 13.44 C119.85 10.83, 126.58 8.91, 141.29 2.72" stroke="#000000" stroke-width="1" fill="none"></path></g><g transform="translate(311.8181818181817 155.81818181818176) rotate(0 71.43850839740008 1.5276123408262094)"><path d="M115.33 -7.31 C122.59 -5.63, 131.92 -2.09, 141.67 2.85 M113.42 -7.07 C120.37 -5.22, 127 -2.68, 141.29 2.72" stroke="#000000" stroke-width="1" fill="none"></path></g></g><mask></mask><g stroke-linecap="round"><g transform="translate(310.9090909090908 216.36363636363632) rotate(0 70.09224616869352 -1.05981086204676)"><path d="M0.62 -0.16 C24.07 -0.52, 117.52 -1.53, 140.69 -1.96 M-0.51 -1.29 C22.83 -1.48, 116.9 -0.4, 140.11 -0.5" stroke="#000000" stroke-width="1" fill="none"></path></g><g transform="translate(310.9090909090908 216.36363636363632) rotate(0 70.09224616869352 -1.05981086204676)"><path d="M111.61 10.79 C120.17 5.92, 127.43 4.83, 141.77 -0.35 M111.83 9.63 C118.96 8.07, 124.89 4.92, 140.92 -1.06" stroke="#000000" stroke-width="1" fill="none"></path></g><g transform="translate(310.9090909090908 216.36363636363632) rotate(0 70.09224616869352 -1.05981086204676)"><path d="M111.7 -9.73 C120.27 -8.39, 127.5 -3.26, 141.77 -0.35 M111.92 -10.89 C118.98 -7.75, 124.89 -6.19, 140.92 -1.06" stroke="#000000" stroke-width="1" fill="none"></path></g></g><mask></mask><g transform="translate(399.99999999999994 10) rotate(0 80.419921875 23)"><text x="80.419921875" y="0" font-family="Helvetica, Segoe UI Emoji" font-size="20px" fill="#000000" text-anchor="middle" style="white-space: pre;" direction="ltr" dominant-baseline="text-before-edge">Framework</text><text x="80.419921875" y="23" font-family="Helvetica, Segoe UI Emoji" font-size="20px" fill="#000000" text-anchor="middle" style="white-space: pre;" direction="ltr" dominant-baseline="text-before-edge">Generated Effects</text></g><g stroke-linecap="round" transform="translate(552.7272727272727 80.90909090909088) rotate(0 224.090909090909 79.0909090909091)"><path d="M32 0 M32 0 C183.92 1.88, 333.25 1.93, 416.18 0 M416.18 0 C438.27 1.74, 448.86 10.96, 448.18 32 M448.18 32 C448.82 56.91, 449.03 82.53, 448.18 126.18 M448.18 126.18 C449.32 146.12, 439.2 158.07, 416.18 158.18 M416.18 158.18 C338.34 155.81, 257.98 156.28, 32 158.18 M32 158.18 C10.44 156.83, 1.59 147.72, 0 126.18 M0 126.18 C-2.29 94.72, -2.05 64.49, 0 32 M0 32 C0.54 10.14, 9.35 -0.18, 32 0" stroke="#000000" stroke-width="1.5" fill="none" stroke-dasharray="8 9"></path></g><g transform="translate(576.1580757472827 108.18181818181807) rotate(0 201.30859375 46)"><text x="0" y="0" font-family="Helvetica, Segoe UI Emoji" font-size="20px" fill="#000000" text-anchor="start" style="white-space: pre;" direction="ltr" dominant-baseline="text-before-edge">...</text><text x="0" y="23" font-family="Helvetica, Segoe UI Emoji" font-size="20px" fill="#000000" text-anchor="start" style="white-space: pre;" direction="ltr" dominant-baseline="text-before-edge">const el = document.createElement("div");</text><text x="0" y="46" font-family="Helvetica, Segoe UI Emoji" font-size="20px" fill="#000000" text-anchor="start" style="white-space: pre;" direction="ltr" dominant-baseline="text-before-edge">effect(() =&gt; el.textContent = binding_x_title());</text><text x="0" y="69" font-family="Helvetica, Segoe UI Emoji" font-size="20px" fill="#000000" text-anchor="start" style="white-space: pre;" direction="ltr" dominant-baseline="text-before-edge">...</text></g></svg>