<svg version="1.1" xmlns="http://www.w3.org/2000/svg" viewBox="0 0 1346.1363636363637 365.5942424242424" width="4038.409090909091" height="1096.7827272727272" filter="invert(93%) hue-rotate(180deg)">
  <!-- svg-source:excalidraw -->
  
  <defs>
    <style class="style-fonts">
      @font-face {
        font-family: "Virgil";
        src: url("https://excalidraw.com/Virgil.woff2");
      }
      @font-face {
        font-family: "Cascadia";
        src: url("https://excalidraw.com/Cascadia.woff2");
      }
    </style>
  </defs>
  <rect x="0" y="0" width="1346.1363636363637" height="365.5942424242424" fill="#ffffff"></rect><g stroke-linecap="round" transform="translate(564.5030303030303 28.090909090909065) rotate(0 36.73555555555555 36.73555555555555)"><path d="M40.43 -0.54 C47.35 -0.45, 55.6 5.05, 60.86 9.71 C66.11 14.38, 70.41 20.69, 71.95 27.45 C73.48 34.22, 72.83 43.52, 70.05 50.31 C67.27 57.11, 61.41 64.23, 55.28 68.22 C49.14 72.21, 40.14 74.67, 33.23 74.25 C26.33 73.83, 19.36 70.34, 13.84 65.68 C8.31 61.02, 2.07 53.3, 0.08 46.3 C-1.9 39.31, -0.81 30.43, 1.93 23.7 C4.66 16.98, 9.51 9.65, 16.52 5.96 C23.54 2.26, 38.68 2.02, 44.03 1.51 C49.37 1.01, 48.89 2.57, 48.61 2.94 M23.13 4.01 C29.19 0.84, 37.4 -1.38, 44.06 -0.22 C50.72 0.95, 58.2 5.65, 63.08 11.01 C67.96 16.37, 72.36 24.62, 73.36 31.92 C74.36 39.22, 72.63 48.2, 69.08 54.81 C65.54 61.41, 58.77 68.39, 52.08 71.55 C45.4 74.71, 36.33 75.28, 28.95 73.77 C21.57 72.26, 12.82 68.22, 7.81 62.51 C2.79 56.8, -0.64 46.76, -1.13 39.5 C-1.63 32.23, 0.75 24.95, 4.83 18.93 C8.92 12.91, 20.54 6.05, 23.38 3.39 C26.21 0.73, 21.86 2.43, 21.85 2.97" stroke="#000000" stroke-width="1" fill="none"></path></g><g stroke-linecap="round" transform="translate(662.6652525252525 145.5242424242424) rotate(0 36.73555555555555 36.73555555555555)"><path d="M41.3 0.06 C48.17 0.8, 56.25 6.22, 61.63 11.26 C67.01 16.3, 72.37 23.42, 73.58 30.27 C74.79 37.12, 72.37 45.84, 68.92 52.35 C65.46 58.87, 59.25 65.82, 52.85 69.35 C46.46 72.87, 37.57 74.5, 30.54 73.51 C23.51 72.51, 15.56 68.48, 10.68 63.38 C5.81 58.27, 2.3 50.22, 1.28 42.89 C0.27 35.56, 1.38 25.99, 4.61 19.4 C7.84 12.8, 13.29 6.18, 20.65 3.3 C28.01 0.41, 42.87 1.48, 48.79 2.1 C54.71 2.72, 56.26 6.49, 56.18 7.04 M28.76 0.88 C35.46 -1.45, 44.42 -0.61, 51.13 2.11 C57.84 4.83, 65.41 11.05, 69.02 17.2 C72.63 23.36, 73.26 31.88, 72.77 39.01 C72.29 46.14, 70.45 54.43, 66.12 59.98 C61.79 65.53, 54.04 70.72, 46.81 72.32 C39.58 73.92, 29.38 72.07, 22.74 69.57 C16.1 67.08, 10.97 63.35, 6.96 57.35 C2.94 51.35, -1.58 40.9, -1.34 33.59 C-1.1 26.28, 3.76 18.97, 8.41 13.47 C13.06 7.98, 23.5 2.62, 26.57 0.62 C29.65 -1.37, 26.38 1.01, 26.84 1.51" stroke="#000000" stroke-width="1" fill="none"></path></g><g transform="translate(688.3018007618195 170.78383753580948) rotate(0 11.123046875 11.5)"><text x="11.123046875" y="0" font-family="Helvetica, Segoe UI Emoji" font-size="20px" fill="#000000" text-anchor="middle" style="white-space: pre;" direction="ltr" dominant-baseline="text-before-edge">10</text></g><g stroke-linecap="round" transform="translate(465.13636363636357 144.31979797979795) rotate(0 36.73555555555555 36.73555555555555)"><path d="M18.99 3.56 C25.01 0.13, 35.3 -0.03, 42.43 0.95 C49.56 1.94, 56.82 4.75, 61.77 9.48 C66.72 14.2, 70.79 22.24, 72.14 29.31 C73.49 36.38, 72.8 45.3, 69.87 51.88 C66.94 58.45, 60.84 65.09, 54.57 68.76 C48.29 72.43, 39.4 74.7, 32.21 73.91 C25.01 73.13, 16.82 69, 11.39 64.05 C5.96 59.1, 1.04 51.5, -0.4 44.2 C-1.83 36.89, -1.47 27.19, 2.77 20.22 C7.01 13.25, 20.09 5.53, 25.02 2.38 C29.95 -0.77, 32.17 0.92, 32.34 1.33 M34.57 1.25 C41.28 0.41, 50.34 3.82, 56.49 7.45 C62.65 11.08, 68.85 16.41, 71.52 23.03 C74.19 29.66, 74.46 40.05, 72.51 47.21 C70.57 54.36, 65.51 61.71, 59.87 65.95 C54.22 70.18, 46.08 72.19, 38.64 72.62 C31.19 73.05, 21.12 72.57, 15.19 68.53 C9.25 64.49, 5.54 55.27, 3.03 48.4 C0.51 41.53, -1.67 34.15, 0.09 27.32 C1.85 20.49, 7.88 12.08, 13.58 7.43 C19.29 2.79, 30.82 0.36, 34.3 -0.56 C37.79 -1.48, 34.58 1.16, 34.52 1.92" stroke="#000000" stroke-width="1" fill="none"></path></g><g transform="translate(496.3344353104306 169.57939309136503) rotate(0 5.5615234375 11.5)"><text x="5.5615234375" y="0" font-family="Helvetica, Segoe UI Emoji" font-size="20px" fill="#000000" text-anchor="middle" style="white-space: pre;" direction="ltr" dominant-baseline="text-before-edge">1</text></g><g stroke-linecap="round" transform="translate(563.900808080808 281.6264646464646) rotate(0 36.73555555555555 36.73555555555556)"><path d="M24.39 2.61 C30.97 -0.01, 41.66 -0.56, 48.54 1.38 C55.41 3.32, 61.63 8.39, 65.64 14.26 C69.65 20.13, 72.57 29.21, 72.59 36.6 C72.61 43.99, 69.87 52.71, 65.76 58.62 C61.64 64.52, 54.5 69.84, 47.93 72.03 C41.36 74.22, 33 74.2, 26.33 71.78 C19.66 69.35, 12.13 63.45, 7.89 57.49 C3.65 51.53, 1.17 43.1, 0.91 36.04 C0.65 28.99, 2.02 20.76, 6.34 15.15 C10.67 9.55, 23.28 4.67, 26.87 2.41 C30.47 0.15, 27.91 1.17, 27.92 1.58 M40.27 -0.27 C47.12 -0.2, 56.39 4.19, 61.63 8.9 C66.86 13.6, 69.99 21.03, 71.68 27.95 C73.36 34.86, 74.18 43.73, 71.74 50.38 C69.29 57.03, 63.35 64.26, 56.99 67.86 C50.64 71.45, 40.71 72.32, 33.6 71.95 C26.49 71.58, 19.99 70.2, 14.35 65.66 C8.71 61.11, 1.68 51.76, -0.24 44.66 C-2.17 37.56, 0.02 29.66, 2.79 23.07 C5.56 16.47, 10.44 8.99, 16.39 5.08 C22.33 1.18, 34.5 0.54, 38.46 -0.37 C42.42 -1.28, 40.05 -1.18, 40.16 -0.39" stroke="#000000" stroke-width="1" fill="none"></path></g><g transform="translate(589.537356317375 306.8860597580317) rotate(0 11.123046875 11.5)"><text x="11.123046875" y="0" font-family="Helvetica, Segoe UI Emoji" font-size="20px" fill="#000000" text-anchor="middle" style="white-space: pre;" direction="ltr" dominant-baseline="text-before-edge">10</text></g><g stroke-linecap="round"><g transform="translate(565.7074747474746 84.69979797979795) rotate(0 -20.810126520274196 32.527038315234506)"><path d="M0.86 1.18 C-6.02 11.79, -34.71 52.6, -42.16 63.13 M-0.15 0.75 C-7 11.56, -35.03 54.05, -42.48 64.3" stroke="#000000" stroke-width="1" fill="none"></path></g><g transform="translate(565.7074747474746 84.69979797979795) rotate(0 -20.810126520274196 32.527038315234506)"><path d="M-33.01 37.25 C-37.98 41.08, -37.65 48.68, -42.25 65.81 M-34.15 35.2 C-35.82 40.22, -38.37 47.84, -42.34 64.84" stroke="#000000" stroke-width="1" fill="none"></path></g><g transform="translate(565.7074747474746 84.69979797979795) rotate(0 -20.810126520274196 32.527038315234506)"><path d="M-16.1 48.87 C-24.84 50.19, -28.35 55.15, -42.25 65.81 M-17.24 46.82 C-22.34 49.34, -28.33 54.6, -42.34 64.84" stroke="#000000" stroke-width="1" fill="none"></path></g></g><mask></mask><g stroke-linecap="round"><g transform="translate(628.3385858585857 89.51757575757574) rotate(0 22.331727546010598 33.36259569894523)"><path d="M-0.13 1.11 C7.52 12.31, 38.69 55.33, 46.33 66.08 M-1.66 0.65 C5.85 11.63, 37.92 54.01, 45.67 64.5" stroke="#000000" stroke-width="1" fill="none"></path></g><g transform="translate(628.3385858585857 89.51757575757574) rotate(0 22.331727546010598 33.36259569894523)"><path d="M22.42 49 C30.5 53.39, 38.09 59.2, 46.64 66.1 M20.42 48.41 C28.33 53.86, 38.03 59.11, 46.1 65.12" stroke="#000000" stroke-width="1" fill="none"></path></g><g transform="translate(628.3385858585857 89.51757575757574) rotate(0 22.331727546010598 33.36259569894523)"><path d="M38.86 36.7 C41.35 45.17, 43.47 55.08, 46.64 66.1 M36.85 36.11 C39.47 45.68, 43.78 54.96, 46.1 65.12" stroke="#000000" stroke-width="1" fill="none"></path></g></g><mask></mask><g stroke-linecap="round"><g transform="translate(518.7341414141413 217.18868686868683) rotate(0 27.168370606338385 35.76640031302452)"><path d="M0.71 0.64 C9.43 12.51, 43.73 59.94, 52.34 71.6 M-0.37 -0.07 C8.74 11.41, 46.1 57.79, 54.71 69.77" stroke="#000000" stroke-width="1" fill="none"></path></g><g transform="translate(518.7341414141413 217.18868686868683) rotate(0 27.168370606338385 35.76640031302452)"><path d="M30.46 52.56 C38.03 57.36, 44.13 61.57, 55.27 69.76 M28.67 52.77 C36.83 58.56, 43.27 63.17, 54.13 69.21" stroke="#000000" stroke-width="1" fill="none"></path></g><g transform="translate(518.7341414141413 217.18868686868683) rotate(0 27.168370606338385 35.76640031302452)"><path d="M46.74 40.06 C49.41 48.75, 50.57 56.75, 55.27 69.76 M44.94 40.27 C48.24 49.67, 49.91 57.95, 54.13 69.21" stroke="#000000" stroke-width="1" fill="none"></path></g></g><mask></mask><g stroke-linecap="round"><g transform="translate(684.9474747474746 217.18868686868683) rotate(0 -27.596829503504523 37.16427311305681)"><path d="M0.07 0.03 C-8.84 12.39, -45.39 62.71, -54.27 75.33 M-1.36 -1 C-10.35 11.52, -46.57 61.06, -55.26 73.55" stroke="#000000" stroke-width="1" fill="none"></path></g><g transform="translate(684.9474747474746 217.18868686868683) rotate(0 -27.596829503504523 37.16427311305681)"><path d="M-47.15 44.54 C-47.66 52.84, -48.83 58.95, -56.42 75.12 M-48.16 44.54 C-49.5 52.56, -52.24 60.12, -54.74 74.06" stroke="#000000" stroke-width="1" fill="none"></path></g><g transform="translate(684.9474747474746 217.18868686868683) rotate(0 -27.596829503504523 37.16427311305681)"><path d="M-30.46 56.48 C-34.89 62.07, -39.86 65.46, -56.42 75.12 M-31.47 56.48 C-36.95 61.4, -43.92 65.94, -54.74 74.06" stroke="#000000" stroke-width="1" fill="none"></path></g></g><mask></mask><g transform="translate(10 10) rotate(0 252.98339843750003 103.5)"><text x="0" y="0" font-family="Helvetica, Segoe UI Emoji" font-size="20px" fill="#000000" text-anchor="start" style="white-space: pre;" direction="ltr" dominant-baseline="text-before-edge">signalOne = signal(1);</text><text x="0" y="23" font-family="Helvetica, Segoe UI Emoji" font-size="20px" fill="#000000" text-anchor="start" style="white-space: pre;" direction="ltr" dominant-baseline="text-before-edge">signalTwo = signal(10);</text><text x="0" y="46" font-family="Helvetica, Segoe UI Emoji" font-size="20px" fill="#000000" text-anchor="start" style="white-space: pre;" direction="ltr" dominant-baseline="text-before-edge"></text><text x="0" y="69" font-family="Helvetica, Segoe UI Emoji" font-size="20px" fill="#000000" text-anchor="start" style="white-space: pre;" direction="ltr" dominant-baseline="text-before-edge">derivedValue = compute(() =&gt; signalOne() * signalTwo());</text><text x="0" y="92" font-family="Helvetica, Segoe UI Emoji" font-size="20px" fill="#000000" text-anchor="start" style="white-space: pre;" direction="ltr" dominant-baseline="text-before-edge"></text><text x="0" y="115" font-family="Helvetica, Segoe UI Emoji" font-size="20px" fill="#000000" text-anchor="start" style="white-space: pre;" direction="ltr" dominant-baseline="text-before-edge">changeValues(): void {</text><text x="0" y="138" font-family="Helvetica, Segoe UI Emoji" font-size="20px" fill="#000000" text-anchor="start" style="white-space: pre;" direction="ltr" dominant-baseline="text-before-edge">    this.signalOne.set(2);</text><text x="0" y="161" font-family="Helvetica, Segoe UI Emoji" font-size="20px" fill="#000000" text-anchor="start" style="white-space: pre;" direction="ltr" dominant-baseline="text-before-edge">    this.signalTwo.set(20);</text><text x="0" y="184" font-family="Helvetica, Segoe UI Emoji" font-size="20px" fill="#000000" text-anchor="start" style="white-space: pre;" direction="ltr" dominant-baseline="text-before-edge">}</text></g><g stroke-linecap="round" transform="translate(865.5030303030303 26.587575757575735) rotate(0 36.73555555555555 36.73555555555555)"><path d="M41.52 -0.59 C48.4 -0.31, 55.96 5.4, 61.19 10.4 C66.42 15.41, 71.26 22.4, 72.91 29.45 C74.55 36.5, 74.26 46.05, 71.08 52.71 C67.91 59.38, 60.16 66.03, 53.86 69.44 C47.56 72.85, 40.16 74.22, 33.27 73.19 C26.39 72.16, 17.86 68.24, 12.54 63.26 C7.21 58.28, 2.7 50.36, 1.31 43.31 C-0.07 36.25, 1.49 27.36, 4.25 20.94 C7.01 14.51, 10.55 7.95, 17.87 4.77 C25.19 1.59, 42 1.53, 48.16 1.87 C54.32 2.21, 55.09 6.09, 54.81 6.82 M32.57 1.02 C39.41 -0.18, 47.61 1.94, 53.82 5.1 C60.02 8.26, 66.69 13.58, 69.82 19.96 C72.95 26.33, 73.72 36.02, 72.57 43.34 C71.43 50.67, 68.03 59, 62.94 63.89 C57.86 68.77, 49.18 71.66, 42.05 72.66 C34.92 73.66, 26.4 73.06, 20.15 69.9 C13.91 66.74, 7.78 60.48, 4.58 53.71 C1.39 46.94, -0.08 36.77, 0.98 29.29 C2.04 21.81, 5.59 13.7, 10.93 8.8 C16.27 3.9, 29.32 1.08, 33.02 -0.11 C36.71 -1.3, 33.37 0.96, 33.1 1.67" stroke="#000000" stroke-width="1" fill="none"></path></g><g stroke-linecap="round" transform="translate(963.6652525252525 144.93) rotate(0 36.73555555555561 36.73555555555555)"><path d="M24.03 1.54 C30.32 -1.2, 41.25 -0.56, 48.26 1.79 C55.27 4.14, 61.77 10.07, 66.08 15.65 C70.39 21.24, 73.9 28.13, 74.13 35.29 C74.36 42.46, 71.72 52.52, 67.46 58.66 C63.2 64.81, 55.58 69.89, 48.57 72.18 C41.56 74.48, 32.38 74.52, 25.4 72.43 C18.42 70.35, 10.99 65.67, 6.67 59.67 C2.36 53.67, -0.5 43.86, -0.48 36.43 C-0.47 29.01, 1.42 21.22, 6.75 15.12 C12.07 9.02, 26.03 2.37, 31.46 -0.18 C36.89 -2.73, 39.08 -0.82, 39.32 -0.17 M22.75 2.62 C29 -0.68, 38.54 -0.79, 45.29 0.79 C52.04 2.36, 58.6 6.52, 63.26 12.07 C67.91 17.62, 72.27 26.78, 73.22 34.08 C74.16 41.38, 72.64 49.64, 68.92 55.85 C65.21 62.06, 57.47 68.38, 50.93 71.34 C44.4 74.3, 36.46 75.26, 29.71 73.61 C22.95 71.97, 15.46 67.11, 10.41 61.48 C5.36 55.84, 0.52 46.84, -0.58 39.79 C-1.69 32.75, 0.07 25.16, 3.77 19.22 C7.47 13.28, 18.42 6.88, 21.62 4.14 C24.82 1.39, 22.62 2.19, 22.96 2.76" stroke="#c92a2a" stroke-width="1" fill="none"></path></g><g transform="translate(989.3018007618195 170.1895951115671) rotate(0 11.123046875 11.5)"><text x="11.123046875" y="0" font-family="Helvetica, Segoe UI Emoji" font-size="20px" fill="#000000" text-anchor="middle" style="white-space: pre;" direction="ltr" dominant-baseline="text-before-edge">10</text></g><g stroke-linecap="round" transform="translate(766.1363636363635 142.81646464646457) rotate(0 36.73555555555555 36.73555555555555)"><path d="M47.17 1.47 C54.03 3.04, 60.9 9.31, 65.39 14.76 C69.88 20.21, 73.65 27, 74.1 34.16 C74.55 41.33, 72.18 51.46, 68.1 57.73 C64.02 64, 56.57 69.3, 49.63 71.8 C42.7 74.3, 33.53 74.62, 26.49 72.75 C19.44 70.88, 11.86 66.43, 7.37 60.57 C2.88 54.71, -0.24 44.98, -0.45 37.57 C-0.66 30.15, 2.09 22.02, 6.11 16.06 C10.13 10.1, 15.97 4.12, 23.69 1.81 C31.41 -0.51, 46.92 1.47, 52.41 2.16 C57.91 2.85, 57.18 5.3, 56.65 5.97 M45.05 0.74 C51.57 1.71, 58.41 6.38, 63.1 11.89 C67.79 17.41, 72.2 26.55, 73.19 33.84 C74.18 41.13, 72.72 49.41, 69.04 55.65 C65.37 61.88, 57.67 68.24, 51.16 71.25 C44.64 74.25, 36.71 75.26, 29.94 73.66 C23.18 72.06, 15.65 67.26, 10.57 61.66 C5.48 56.05, 0.59 47.07, -0.56 40.03 C-1.71 33, -0.01 25.39, 3.65 19.43 C7.31 13.46, 14.5 7.5, 21.4 4.23 C28.3 0.97, 41.19 0.09, 45.03 -0.17 C48.87 -0.44, 44.43 1.78, 44.44 2.64" stroke="#c92a2a" stroke-width="1" fill="none"></path></g><g transform="translate(797.3344353104305 168.07605975803165) rotate(0 5.5615234375 11.5)"><text x="5.5615234375" y="0" font-family="Helvetica, Segoe UI Emoji" font-size="20px" fill="#000000" text-anchor="middle" style="white-space: pre;" direction="ltr" dominant-baseline="text-before-edge">1</text></g><g stroke-linecap="round" transform="translate(864.900808080808 280.1231313131313) rotate(0 36.73555555555555 36.73555555555556)"><path d="M28.87 1.79 C35.44 -0.32, 45.47 -0.66, 52.18 2.21 C58.89 5.08, 65.63 12.52, 69.15 18.99 C72.66 25.47, 74.16 33.95, 73.25 41.08 C72.33 48.21, 68.55 56.37, 63.65 61.77 C58.76 67.18, 50.91 72.24, 43.88 73.54 C36.85 74.83, 27.94 72.64, 21.47 69.52 C15 66.39, 8.63 60.96, 5.06 54.79 C1.5 48.63, -0.78 39.77, 0.07 32.53 C0.93 25.29, 4.96 16.73, 10.21 11.34 C15.46 5.96, 27.96 2, 31.58 0.22 C35.2 -1.56, 31.88 -0.07, 31.91 0.66 M30.36 0.12 C36.93 -1.22, 47.01 1.62, 53.63 5.07 C60.26 8.53, 66.99 14.43, 70.13 20.87 C73.27 27.32, 73.6 36.57, 72.47 43.75 C71.34 50.93, 68.21 59, 63.35 63.95 C58.48 68.9, 50.69 72.63, 43.3 73.43 C35.91 74.24, 25.79 72.01, 19 68.8 C12.21 65.59, 5.72 60.38, 2.56 54.2 C-0.59 48.02, -1.43 39.17, 0.08 31.73 C1.59 24.28, 6.39 14.57, 11.63 9.54 C16.86 4.5, 27.97 2.81, 31.51 1.51 C35.06 0.21, 32.62 1.51, 32.89 1.73" stroke="#c92a2a" stroke-width="1" fill="none"></path></g><g transform="translate(890.537356317375 305.3827264246984) rotate(0 11.123046875 11.5)"><text x="11.123046875" y="0" font-family="Helvetica, Segoe UI Emoji" font-size="20px" fill="#000000" text-anchor="middle" style="white-space: pre;" direction="ltr" dominant-baseline="text-before-edge">10</text></g><g stroke-linecap="round"><g transform="translate(866.7074747474746 83.19646464646468) rotate(0 -21.303488922845588 32.753983099160536)"><path d="M-0.51 0.83 C-7.82 11.63, -36.22 53.14, -43.17 63.78 M1.42 0.22 C-6.08 11.31, -36.72 54.87, -44.02 65.28" stroke="#c92a2a" stroke-width="1" fill="none"></path></g><g transform="translate(866.7074747474746 83.19646464646468) rotate(0 -21.303488922845588 32.753983099160536)"><path d="M-34.84 36.63 C-39.32 48.43, -40.65 54.99, -42.65 66.85 M-35.63 35.65 C-37.43 44.36, -41.49 53.48, -44.49 65.18" stroke="#c92a2a" stroke-width="1" fill="none"></path></g><g transform="translate(866.7074747474746 83.19646464646468) rotate(0 -21.303488922845588 32.753983099160536)"><path d="M-18.04 48.42 C-28.37 55.98, -35.64 58.37, -42.65 66.85 M-18.84 47.44 C-25.69 52.58, -34.72 58.2, -44.49 65.18" stroke="#c92a2a" stroke-width="1" fill="none"></path></g></g><mask></mask><g stroke-linecap="round"><g transform="translate(929.3385858585857 88.01424242424247) rotate(0 22.757923836705572 33.01710914879612)"><path d="M0.83 0.19 C8.62 11.4, 38.08 56.06, 45.71 66.8 M-0.19 -0.76 C7.52 10.2, 36.99 54.26, 44.73 65.27" stroke="#c92a2a" stroke-width="1" fill="none"></path></g><g transform="translate(929.3385858585857 88.01424242424247) rotate(0 22.757923836705572 33.01710914879612)"><path d="M20.66 47.69 C27.46 52.74, 29.06 56.58, 46.29 65.19 M19.68 48.7 C28.75 53.23, 38.27 60.06, 44.62 64.73" stroke="#c92a2a" stroke-width="1" fill="none"></path></g><g transform="translate(929.3385858585857 88.01424242424247) rotate(0 22.757923836705572 33.01710914879612)"><path d="M37.6 36.11 C40.68 43.79, 38.6 50.13, 46.29 65.19 M36.62 37.11 C39.39 46.02, 42.67 57.11, 44.62 64.73" stroke="#c92a2a" stroke-width="1" fill="none"></path></g></g><mask></mask><g stroke-linecap="round"><g transform="translate(819.7341414141413 215.6853535353535) rotate(0 26.482107748526914 35.36312914067983)"><path d="M0.19 -0.06 C9.3 11.78, 45.52 59.87, 54.14 71.86 M-1.17 -1.13 C7.92 10.29, 44.55 58.31, 53.79 70.16" stroke="#c92a2a" stroke-width="1" fill="none"></path></g><g transform="translate(819.7341414141413 215.6853535353535) rotate(0 26.482107748526914 35.36312914067983)"><path d="M28.36 55.99 C36.41 56.4, 42.97 63.88, 53.71 71.52 M29.36 53.6 C34.02 58.32, 40.72 62.17, 53.24 71.05" stroke="#c92a2a" stroke-width="1" fill="none"></path></g><g transform="translate(819.7341414141413 215.6853535353535) rotate(0 26.482107748526914 35.36312914067983)"><path d="M44.62 43.47 C48.58 47.12, 50.95 57.82, 53.71 71.52 M45.62 41.08 C46.3 48.81, 48.94 55.78, 53.24 71.05" stroke="#c92a2a" stroke-width="1" fill="none"></path></g></g><mask></mask><g stroke-linecap="round"><g transform="translate(985.8021963615934 216.5339747816747) rotate(0 -26.883046174766548 37.258667162646915)"><path d="M-0.06 1.14 C-9.06 13.25, -44.33 60.56, -53.18 72.84 M-1.55 0.7 C-10.71 12.9, -45.05 61.77, -53.71 73.82" stroke="#c92a2a" stroke-width="1" fill="none"></path></g><g transform="translate(985.8021963615934 216.5339747816747) rotate(0 -26.883046174766548 37.258667162646915)"><path d="M-43.85 46.23 C-50.43 56.95, -50.02 66.18, -52.34 72.81 M-46.24 44.04 C-48.75 54.89, -51.77 65.21, -52.81 72.87" stroke="#c92a2a" stroke-width="1" fill="none"></path></g><g transform="translate(985.8021963615934 216.5339747816747) rotate(0 -26.883046174766548 37.258667162646915)"><path d="M-27.11 58.11 C-39.9 64.43, -45.67 69.28, -52.34 72.81 M-29.51 55.93 C-37.96 62.65, -46.98 68.7, -52.81 72.87" stroke="#c92a2a" stroke-width="1" fill="none"></path></g></g><mask></mask><g stroke-linecap="round" transform="translate(1164.5030303030305 28.587575757575735) rotate(0 36.73555555555561 36.73555555555555)"><path d="M52.5 4.24 C58.83 6.96, 66.72 13.52, 70.06 19.76 C73.4 25.99, 73.6 34.57, 72.53 41.66 C71.46 48.75, 68.64 57.02, 63.63 62.3 C58.63 67.58, 49.65 71.94, 42.5 73.32 C35.36 74.69, 27 73.68, 20.76 70.56 C14.52 67.44, 8.45 61, 5.06 54.61 C1.67 48.23, -0.63 39.5, 0.4 32.25 C1.44 25, 6.07 16.43, 11.27 11.12 C16.46 5.82, 23.63 1.27, 31.58 0.43 C39.53 -0.4, 53.71 4.32, 58.99 6.12 C64.27 7.92, 63.61 10.58, 63.25 11.23 M45.68 2.01 C52.34 2.55, 59.2 5.47, 63.99 10.69 C68.78 15.91, 73.57 25.88, 74.42 33.33 C75.27 40.78, 72.65 49.38, 69.07 55.39 C65.49 61.39, 59.75 66.7, 52.94 69.36 C46.14 72.02, 35.67 72.73, 28.23 71.35 C20.8 69.97, 13.12 66.05, 8.32 61.07 C3.52 56.09, -0.05 48.67, -0.58 41.48 C-1.11 34.29, 1.36 24.27, 5.16 17.92 C8.96 11.58, 15.5 6.2, 22.21 3.4 C28.91 0.6, 41.71 1.19, 45.4 1.12 C49.09 1.04, 44.66 2.21, 44.36 2.95" stroke="#000000" stroke-width="1" fill="none"></path></g><g stroke-linecap="round" transform="translate(1262.6652525252528 146.02090909090913) rotate(0 36.73555555555561 36.73555555555555)"><path d="M51.79 3.81 C58.38 6.09, 64.91 11.36, 68.42 17.54 C71.93 23.72, 73.57 33.7, 72.86 40.9 C72.14 48.09, 68.75 55.37, 64.12 60.72 C59.48 66.06, 51.91 71.19, 45.06 72.96 C38.21 74.72, 29.54 74.23, 23.02 71.31 C16.5 68.38, 9.61 61.62, 5.95 55.4 C2.29 49.18, 0.49 41, 1.05 34 C1.61 26.99, 4.7 18.78, 9.31 13.37 C13.91 7.96, 20.52 2.36, 28.69 1.55 C36.87 0.75, 52.32 6.24, 58.35 8.52 C64.37 10.81, 65.07 14.86, 64.84 15.28 M46.86 1.03 C53.21 2.19, 58.93 8.68, 63.42 14.3 C67.91 19.91, 73.01 27.53, 73.8 34.74 C74.58 41.94, 72.18 51.64, 68.13 57.52 C64.09 63.39, 56.46 67.67, 49.52 69.97 C42.58 72.26, 33.37 73.01, 26.51 71.27 C19.64 69.54, 12.6 64.84, 8.35 59.54 C4.1 54.25, 1.55 46.48, 1.02 39.49 C0.49 32.51, 1.47 23.6, 5.17 17.63 C8.88 11.66, 16.44 6.4, 23.23 3.67 C30.03 0.93, 42.02 1.53, 45.96 1.22 C49.91 0.91, 46.9 1.06, 46.9 1.83" stroke="#000000" stroke-width="1" fill="none"></path></g><g transform="translate(1288.3018007618198 171.2805042024762) rotate(0 11.123046875 11.5)"><text x="11.123046875" y="0" font-family="Helvetica, Segoe UI Emoji" font-size="20px" fill="#c92a2a" text-anchor="middle" style="white-space: pre;" direction="ltr" dominant-baseline="text-before-edge">20</text></g><g stroke-linecap="round" transform="translate(1065.1363636363635 144.81646464646457) rotate(0 36.73555555555561 36.73555555555555)"><path d="M26.34 0.97 C32.62 -1.47, 41.8 0.33, 48.56 2.76 C55.31 5.2, 62.66 9.69, 66.87 15.58 C71.08 21.46, 73.83 30.66, 73.82 38.06 C73.81 45.46, 71.1 54.33, 66.8 59.98 C62.5 65.63, 54.93 69.94, 48.02 71.97 C41.12 73.99, 32.26 74.38, 25.35 72.14 C18.44 69.89, 10.79 64.46, 6.55 58.51 C2.31 52.56, -0.1 43.67, -0.07 36.45 C-0.04 29.23, 1.93 21.02, 6.71 15.2 C11.49 9.38, 24.45 3.82, 28.6 1.54 C32.75 -0.74, 31.34 0.94, 31.6 1.52 M50.51 4.47 C56.8 6.96, 65.3 12.91, 69.13 19.2 C72.96 25.49, 74.54 35.28, 73.49 42.21 C72.45 49.13, 67.99 55.83, 62.86 60.73 C57.73 65.64, 49.66 70.2, 42.72 71.64 C35.79 73.08, 27.43 72.14, 21.25 69.37 C15.08 66.6, 9.25 61.1, 5.68 55.03 C2.11 48.96, -0.89 39.96, -0.19 32.94 C0.52 25.92, 4.91 18.25, 9.9 12.9 C14.89 7.55, 22.49 2.45, 29.75 0.85 C37 -0.74, 49.56 2.62, 53.42 3.33 C57.27 4.05, 53.12 4.48, 52.87 5.12" stroke="#000000" stroke-width="1" fill="none"></path></g><g transform="translate(1096.3344353104305 170.07605975803165) rotate(0 5.5615234375 11.5)"><text x="5.5615234375" y="0" font-family="Helvetica, Segoe UI Emoji" font-size="20px" fill="#c92a2a" text-anchor="middle" style="white-space: pre;" direction="ltr" dominant-baseline="text-before-edge">2</text></g><g stroke-linecap="round" transform="translate(1163.9008080808082 282.1231313131313) rotate(0 36.73555555555561 36.73555555555556)"><path d="M50.09 3.34 C56.58 5.48, 63.83 10.89, 67.77 16.95 C71.71 23.01, 74.07 32.31, 73.74 39.7 C73.41 47.08, 70.32 55.81, 65.77 61.26 C61.22 66.71, 53.43 70.68, 46.44 72.4 C39.45 74.12, 30.62 74.1, 23.82 71.55 C17.02 69.01, 9.62 63.26, 5.65 57.13 C1.68 51.01, -0.34 42.01, 0.01 34.81 C0.36 27.61, 3.14 19.43, 7.74 13.92 C12.34 8.41, 19.78 3.24, 27.61 1.77 C35.44 0.3, 49.54 4.01, 54.72 5.12 C59.89 6.23, 58.81 7.82, 58.65 8.42 M36.35 0.54 C43.47 -0.08, 52.25 3.97, 57.94 7.84 C63.63 11.71, 68.36 17.39, 70.47 23.79 C72.58 30.18, 72.55 39.33, 70.6 46.23 C68.64 53.13, 64.1 60.62, 58.74 65.2 C53.39 69.77, 45.69 73.34, 38.46 73.69 C31.23 74.04, 21.4 71.28, 15.37 67.31 C9.34 63.33, 4.53 56.69, 2.28 49.85 C0.03 43.01, -0.41 33.32, 1.87 26.27 C4.14 19.21, 10.05 11.69, 15.93 7.51 C21.8 3.32, 33.54 2.18, 37.12 1.15 C40.7 0.11, 37.56 0.72, 37.41 1.3" stroke="#000000" stroke-width="1" fill="none"></path></g><g transform="translate(1189.5373563173753 307.3827264246984) rotate(0 11.123046875 11.5)"><text x="11.123046875" y="0" font-family="Helvetica, Segoe UI Emoji" font-size="20px" fill="#c92a2a" text-anchor="middle" style="white-space: pre;" direction="ltr" dominant-baseline="text-before-edge">40</text></g><g stroke-linecap="round"><g transform="translate(1165.7074747474746 85.19646464646468) rotate(0 -21.54491776816542 31.78916807979138)"><path d="M0.92 0.04 C-6.3 10.51, -36.76 52.7, -44.01 63.3 M-0.05 -0.98 C-6.81 9.6, -34.5 53.58, -41.65 64.56" stroke="#000000" stroke-width="1" fill="none"></path></g><g transform="translate(1165.7074747474746 85.19646464646468) rotate(0 -21.54491776816542 31.78916807979138)"><path d="M-35.04 34.18 C-37.47 43.73, -38.44 48.81, -40.92 65.27 M-35.11 36.16 C-36.65 46.91, -39.01 58.23, -40.96 63.67" stroke="#000000" stroke-width="1" fill="none"></path></g><g transform="translate(1165.7074747474746 85.19646464646468) rotate(0 -21.54491776816542 31.78916807979138)"><path d="M-17.75 45.23 C-24.42 52.23, -29.58 54.64, -40.92 65.27 M-17.81 47.21 C-26.23 53.77, -35.39 60.75, -40.96 63.67" stroke="#000000" stroke-width="1" fill="none"></path></g></g><mask></mask><g stroke-linecap="round"><g transform="translate(1227.338585858586 90.01424242424247) rotate(0 21.92097838476718 32.5843543470651)"><path d="M0.04 -0.65 C7.5 10.16, 37.64 54.94, 45.23 65.82 M-1.39 1.62 C5.82 12.02, 36.31 53.43, 44 64.11" stroke="#000000" stroke-width="1" fill="none"></path></g><g transform="translate(1227.338585858586 90.01424242424247) rotate(0 21.92097838476718 32.5843543470651)"><path d="M18.02 46.47 C29.04 52.79, 35.51 59.5, 44.72 65.96 M20 48.14 C29 54.83, 38.49 61.04, 43.12 64.94" stroke="#000000" stroke-width="1" fill="none"></path></g><g transform="translate(1227.338585858586 90.01424242424247) rotate(0 21.92097838476718 32.5843543470651)"><path d="M34.61 34.39 C40.06 44.84, 40.88 55.67, 44.72 65.96 M36.58 36.06 C39.26 47.44, 42.31 58.33, 43.12 64.94" stroke="#000000" stroke-width="1" fill="none"></path></g></g><mask></mask><g stroke-linecap="round"><g transform="translate(1118.7341414141413 217.6853535353535) rotate(0 26.562132124842833 35.904695340638156)"><path d="M-0.65 -0.54 C8.15 11.27, 44.91 58.89, 53.78 70.9 M1.2 1.8 C9.84 13.79, 44.85 61.08, 53.24 72.35" stroke="#000000" stroke-width="1" fill="none"></path></g><g transform="translate(1118.7341414141413 217.6853535353535) rotate(0 26.562132124842833 35.904695340638156)"><path d="M27.31 57.12 C37.37 61.48, 47.81 69.13, 55.09 74.1 M28.98 55.91 C38.84 61.89, 48.21 67.47, 54.07 72.06" stroke="#000000" stroke-width="1" fill="none"></path></g><g transform="translate(1118.7341414141413 217.6853535353535) rotate(0 26.562132124842833 35.904695340638156)"><path d="M43.79 44.9 C47.64 53.77, 51.87 66.03, 55.09 74.1 M45.46 43.68 C48.96 54.53, 51.97 64.82, 54.07 72.06" stroke="#000000" stroke-width="1" fill="none"></path></g></g><mask></mask><g stroke-linecap="round"><g transform="translate(1284.9474747474749 217.6853535353535) rotate(0 -27.009344148486775 37.8563861689137)"><path d="M-0.54 0.78 C-9.6 13.27, -45.49 61.86, -54.37 74.25 M1.38 0.15 C-7.86 12.86, -46.12 63.42, -55.4 75.56" stroke="#000000" stroke-width="1" fill="none"></path></g><g transform="translate(1284.9474747474749 217.6853535353535) rotate(0 -27.009344148486775 37.8563861689137)"><path d="M-45.22 46.63 C-50.09 56.29, -51.36 66.12, -53.64 77.28 M-46.43 47.88 C-49.02 56.28, -52.5 65.05, -55.68 76.25" stroke="#000000" stroke-width="1" fill="none"></path></g><g transform="translate(1284.9474747474749 217.6853535353535) rotate(0 -27.009344148486775 37.8563861689137)"><path d="M-28.88 59.04 C-38.64 64.86, -44.88 70.92, -53.64 77.28 M-30.09 60.29 C-37.71 65.08, -46.1 70.12, -55.68 76.25" stroke="#000000" stroke-width="1" fill="none"></path></g></g><mask></mask></svg>