<svg version="1.1" xmlns="http://www.w3.org/2000/svg" viewBox="0 0 898.1720137823195 204" width="2694.5160413469584" height="612" filter="invert(93%) hue-rotate(180deg)">
  <!-- svg-source:excalidraw -->
  
  <defs>
    <style class="style-fonts">
      @font-face {
        font-family: "Virgil";
        src: url("https://excalidraw.com/Virgil.woff2");
      }
      @font-face {
        font-family: "Cascadia";
        src: url("https://excalidraw.com/Cascadia.woff2");
      }
    </style>
  </defs>
  <rect x="0" y="0" width="898.1720137823195" height="204" fill="#ffffff"></rect><g stroke-linecap="round" transform="translate(10 48.46392356024853) rotate(0 80.8058081971501 49.19649728912755)"><path d="M24.6 0 M24.6 0 C55.29 0.28, 84.6 1.8, 137.01 0 M24.6 0 C67.13 0, 108.69 -0.18, 137.01 0 M137.01 0 C154.86 0.08, 161.36 7.5, 161.61 24.6 M137.01 0 C155.24 1.03, 160.07 8.75, 161.61 24.6 M161.61 24.6 C162.48 40.27, 160.38 53.4, 161.61 73.79 M161.61 24.6 C161.51 42.9, 160.86 60.9, 161.61 73.79 M161.61 73.79 C160.53 91.21, 152.68 97.58, 137.01 98.39 M161.61 73.79 C159.6 90.87, 154.52 100.41, 137.01 98.39 M137.01 98.39 C108.12 98.59, 80.84 96.38, 24.6 98.39 M137.01 98.39 C96.51 97.31, 57.58 96.91, 24.6 98.39 M24.6 98.39 C9.35 98.48, -0.12 88.9, 0 73.79 M24.6 98.39 C9.47 96.93, 1.34 90.01, 0 73.79 M0 73.79 C0.33 56.77, 0.56 41.96, 0 24.6 M0 73.79 C0.35 59.66, 0.27 45.36, 0 24.6 M0 24.6 C1.35 9.06, 8.22 -0.45, 24.6 0 M0 24.6 C1.32 8.02, 5.93 -1.3, 24.6 0" stroke="#000000" stroke-width="1" fill="none"></path></g><g transform="translate(54.11354591416551 74.8743131372562) rotate(0 35.0244140625 23)"><text x="35.0244140625" y="0" font-family="Helvetica, Segoe UI Emoji" font-size="20px" fill="#000000" text-anchor="middle" style="white-space: pre;" direction="ltr" dominant-baseline="text-before-edge">settable</text><text x="35.0244140625" y="23" font-family="Helvetica, Segoe UI Emoji" font-size="20px" fill="#000000" text-anchor="middle" style="white-space: pre;" direction="ltr" dominant-baseline="text-before-edge">signal</text></g><g stroke-linecap="round" transform="translate(314.8786097935268 49.26391898261181) rotate(0 80.72073654627187 49.144703645388475)"><path d="M24.57 0 M24.57 0 C49.84 1.3, 78.03 1.57, 136.87 0 M24.57 0 C65.88 -0.27, 107.22 -0.78, 136.87 0 M136.87 0 C153 -0.7, 163.03 9.09, 161.44 24.57 M136.87 0 C151.7 0.55, 161.41 7.5, 161.44 24.57 M161.44 24.57 C160.61 38.06, 162.89 51.82, 161.44 73.72 M161.44 24.57 C160.97 36.96, 160.96 48.08, 161.44 73.72 M161.44 73.72 C160.71 89.29, 151.5 98.88, 136.87 98.29 M161.44 73.72 C162.55 92.11, 152.3 97.94, 136.87 98.29 M136.87 98.29 C110.71 97.25, 81.67 98.88, 24.57 98.29 M136.87 98.29 C109.12 96.78, 81.22 97.74, 24.57 98.29 M24.57 98.29 C8.07 97, 1.1 88.83, 0 73.72 M24.57 98.29 C9.53 98.11, 0.32 91.22, 0 73.72 M0 73.72 C0.66 62.23, -0.32 54.06, 0 24.57 M0 73.72 C0.28 59.08, 0.34 44.45, 0 24.57 M0 24.57 C0.02 7.74, 9.34 -0.15, 24.57 0 M0 24.57 C-2.27 6.89, 9.43 -0.31, 24.57 0" stroke="#000000" stroke-width="1" fill="none"></path></g><g transform="translate(368.49219487916196 87.18167219589048) rotate(0 26.1279296875 11.5)"><text x="26.1279296875" y="0" font-family="Helvetica, Segoe UI Emoji" font-size="20px" fill="#000000" text-anchor="middle" style="white-space: pre;" direction="ltr" dominant-baseline="text-before-edge">signal</text></g><g stroke-linecap="round" transform="translate(623.8332901000974 47.69168896145294) rotate(0 49.42219373914929 49.42219373914929)"><path d="M65.9 2.92 C73.53 4.75, 81.69 11.35, 87.03 17.45 C92.36 23.55, 96.42 31.42, 97.9 39.51 C99.39 47.6, 98.48 58.25, 95.92 65.97 C93.36 73.68, 88.65 80.5, 82.57 85.81 C76.49 91.13, 67.64 96.13, 59.45 97.85 C51.25 99.57, 41.14 98.67, 33.37 96.13 C25.61 93.59, 18.36 88.81, 12.87 82.61 C7.38 76.4, 2.05 67.14, 0.44 58.91 C-1.18 50.68, 0.57 40.96, 3.17 33.22 C5.78 25.48, 9.89 17.94, 16.07 12.48 C22.24 7.02, 30.42 1.52, 40.23 0.45 C50.04 -0.63, 67.98 3.99, 74.91 6.01 C81.83 8.03, 82.4 11.91, 81.78 12.57 M56.08 0.31 C63.68 0.56, 72.78 5.46, 79.42 10.87 C86.07 16.28, 92.99 25, 95.96 32.77 C98.92 40.55, 98.5 49.75, 97.21 57.52 C95.93 65.3, 93.34 73.24, 88.24 79.42 C83.15 85.6, 74.25 91.69, 66.66 94.61 C59.07 97.52, 50.55 97.99, 42.69 96.92 C34.84 95.85, 26.1 93.24, 19.54 88.18 C12.99 83.13, 6.39 74.43, 3.36 66.6 C0.33 58.77, -0.01 49.2, 1.37 41.2 C2.74 33.19, 6.58 24.73, 11.6 18.56 C16.62 12.39, 24.19 7.12, 31.49 4.18 C38.79 1.25, 51.43 1.31, 55.41 0.97 C59.39 0.63, 55.39 1.4, 55.37 2.12" stroke="#000000" stroke-width="1" fill="none"></path></g><g transform="translate(649.031371755179 85.6671143665344) rotate(0 24.27734375 11.5)"><text x="24.27734375" y="0" font-family="Helvetica, Segoe UI Emoji" font-size="20px" fill="#000000" text-anchor="middle" style="white-space: pre;" direction="ltr" dominant-baseline="text-before-edge">effect</text></g><g stroke-linecap="round"><g transform="translate(184.99037315731954 53) rotate(0 61.20254722459708 -0.2730442543793856)"><path d="M0.84 -0.32 C21.17 -0.2, 102.29 1.02, 122.59 1.02 M-0.18 -1.53 C19.9 -1.75, 101.12 -0.95, 121.42 -0.57" stroke="#000000" stroke-width="1" fill="none"></path></g><g transform="translate(184.99037315731954 53) rotate(0 61.20254722459708 -0.2730442543793856)"><path d="M92.57 8.62 C104.72 4.97, 112.4 3.67, 121.71 1.06 M92.66 8.85 C100.73 6.36, 106.55 3.59, 122.38 -0.6" stroke="#000000" stroke-width="1" fill="none"></path></g><g transform="translate(184.99037315731954 53) rotate(0 61.20254722459708 -0.2730442543793856)"><path d="M92.84 -11.89 C104.95 -8.34, 112.54 -2.43, 121.71 1.06 M92.94 -11.67 C100.88 -9.04, 106.63 -6.69, 122.38 -0.6" stroke="#000000" stroke-width="1" fill="none"></path></g></g><mask></mask><g stroke-linecap="round"><g transform="translate(487.9903731573195 52) rotate(0 72.47844411109571 0.08509904891252518)"><path d="M0.72 0.86 C24.41 0.69, 119.38 -0.43, 143.09 -0.69 M-0.36 0.27 C23.62 0.21, 121.04 0.48, 145.32 0.48" stroke="#000000" stroke-width="1" fill="none"></path></g><g transform="translate(487.9903731573195 52) rotate(0 72.47844411109571 0.08509904891252518)"><path d="M118.55 9.18 C126.62 4.9, 137.31 4.23, 143.86 1.41 M116.12 10.93 C122.21 7.38, 129.09 5.4, 145.43 1.34" stroke="#000000" stroke-width="1" fill="none"></path></g><g transform="translate(487.9903731573195 52) rotate(0 72.47844411109571 0.08509904891252518)"><path d="M118.58 -11.34 C126.69 -7.84, 137.38 -0.74, 143.86 1.41 M116.15 -9.59 C122.35 -8.83, 129.22 -6.5, 145.43 1.34" stroke="#000000" stroke-width="1" fill="none"></path></g></g><mask></mask><g transform="translate(177.99037315731954 17) rotate(0 50.46875 11.5)"><text x="0" y="0" font-family="Helvetica, Segoe UI Emoji" font-size="20px" fill="#000000" text-anchor="start" style="white-space: pre;" direction="ltr" dominant-baseline="text-before-edge">"i changed"</text></g><g transform="translate(460.9903731573195 10) rotate(0 86.5966796875 11.5)"><text x="0" y="0" font-family="Helvetica, Segoe UI Emoji" font-size="20px" fill="#000000" text-anchor="start" style="white-space: pre;" direction="ltr" dominant-baseline="text-before-edge">"i need to compute"</text></g><g stroke-linecap="round"><g transform="translate(734.9903731573195 59.997333759547416) rotate(0 20.052168292046304 36.5784352293353)"><path d="M-0.27 -0.24 C6.05 6.13, 37.89 26.2, 38.11 38.44 C38.33 50.67, 7.11 67.42, 1.06 73.17 M1.79 -1.41 C8.47 4.56, 40.09 23.81, 40.37 36.47 C40.65 49.13, 9.88 68.32, 3.47 74.57" stroke="#000000" stroke-width="1" fill="none"></path></g><g transform="translate(734.9903731573195 59.997333759547416) rotate(0 20.052168292046304 36.5784352293353)"><path d="M16.4 51.51 C13.16 58.16, 8.74 66.18, 3.28 76.45 M17.66 52.85 C12.7 59.08, 8.66 66.08, 4.12 74.06" stroke="#000000" stroke-width="1" fill="none"></path></g><g transform="translate(734.9903731573195 59.997333759547416) rotate(0 20.052168292046304 36.5784352293353)"><path d="M27.19 65.14 C20.54 67.49, 12.73 71.23, 3.28 76.45 M28.45 66.48 C20.25 68.47, 12.93 71.33, 4.12 74.06" stroke="#000000" stroke-width="1" fill="none"></path></g></g><mask></mask><g transform="translate(796.9903731573195 81) rotate(0 45.5908203125 11.5)"><text x="0" y="0" font-family="Helvetica, Segoe UI Emoji" font-size="20px" fill="#000000" text-anchor="start" style="white-space: pre;" direction="ltr" dominant-baseline="text-before-edge">scheduled</text></g><g stroke-linecap="round"><g transform="translate(624.9903731573195 143) rotate(0 -67.35996004956775 -0.5215526845771876)"><path d="M-0.56 -0.27 C-23.15 -0.3, -112.82 -0.63, -135.43 -0.73 M1.35 -1.46 C-21.36 -1.29, -113.01 0.18, -136.07 0.42" stroke="#000000" stroke-width="1" fill="none"></path></g><g transform="translate(624.9903731573195 143) rotate(0 -67.35996004956775 -0.5215526845771876)"><path d="M-108.48 -9.26 C-118.04 -7.34, -127.01 -2.88, -136.2 2.32 M-108.28 -9.9 C-113.79 -7.67, -121.83 -5.25, -136.48 -0.07" stroke="#000000" stroke-width="1" fill="none"></path></g><g transform="translate(624.9903731573195 143) rotate(0 -67.35996004956775 -0.5215526845771876)"><path d="M-108.2 11.26 C-117.75 6.78, -126.8 4.84, -136.2 2.32 M-108 10.62 C-113.65 8.14, -121.75 5.84, -136.48 -0.07" stroke="#000000" stroke-width="1" fill="none"></path></g></g><mask></mask><g transform="translate(517.9903731573195 169) rotate(0 45.4541015625 11.5)"><text x="0" y="0" font-family="Helvetica, Segoe UI Emoji" font-size="20px" fill="#000000" text-anchor="start" style="white-space: pre;" direction="ltr" dominant-baseline="text-before-edge">"compute"</text></g><g stroke-linecap="round"><g transform="translate(300.99037315731954 146) rotate(0 -61.56854320914951 -0.0505717017967271)"><path d="M0.57 -0.83 C-19.81 -0.84, -101.96 0.43, -122.5 0.44 M-0.59 1.34 C-21.15 0.93, -103.17 -1.25, -123.71 -1.45" stroke="#000000" stroke-width="1" fill="none"></path></g><g transform="translate(300.99037315731954 146) rotate(0 -61.56854320914951 -0.0505717017967271)"><path d="M-96.71 -12 C-102.55 -9.42, -112.53 -6.17, -123.32 -2.43 M-94.6 -10.81 C-106.55 -7.73, -116.8 -5.02, -124.5 -1.86" stroke="#000000" stroke-width="1" fill="none"></path></g><g transform="translate(300.99037315731954 146) rotate(0 -61.56854320914951 -0.0505717017967271)"><path d="M-97.11 8.52 C-102.92 5.31, -112.78 2.77, -123.32 -2.43 M-95 9.71 C-106.74 5.39, -116.84 0.69, -124.5 -1.86" stroke="#000000" stroke-width="1" fill="none"></path></g></g><mask></mask><g transform="translate(129.99037315731954 171) rotate(0 113.8232421875 11.5)"><text x="0" y="0" font-family="Helvetica, Segoe UI Emoji" font-size="20px" fill="#000000" text-anchor="start" style="white-space: pre;" direction="ltr" dominant-baseline="text-before-edge">"what is your new value?"</text></g></svg>