<svg version="1.1" xmlns="http://www.w3.org/2000/svg" viewBox="0 0 1474.833843737539 887.0717138865638" width="4424.501531212617" height="2661.215141659691" filter="invert(93%) hue-rotate(180deg)">
  <!-- svg-source:excalidraw -->
  
  <defs>
    <style class="style-fonts">
      @font-face {
        font-family: "Virgil";
        src: url("https://excalidraw.com/Virgil.woff2");
      }
      @font-face {
        font-family: "Cascadia";
        src: url("https://excalidraw.com/Cascadia.woff2");
      }
    </style>
  </defs>
  <rect x="0" y="0" width="1474.833843737539" height="887.0717138865638" fill="#ffffff"></rect><g stroke-linecap="round" transform="translate(266.44438849555104 120.62215169270837) rotate(0 75.55555555555554 46.000018649631045)"><path d="M23 0 M23 0 C46.1 1.23, 66.52 2.42, 128.11 0 M23 0 C52.67 -1.02, 84.99 -1.62, 128.11 0 M128.11 0 C141.72 0.88, 151.55 8.96, 151.11 23 M128.11 0 C142.07 0.06, 150.15 7.99, 151.11 23 M151.11 23 C152.95 38.32, 151.68 51.58, 151.11 69 M151.11 23 C150.6 35.51, 151.94 49.81, 151.11 69 M151.11 69 C150.2 84.48, 142.16 90.51, 128.11 92 M151.11 69 C151.48 82.19, 145.63 89.72, 128.11 92 M128.11 92 C97.51 94.14, 68.73 92.62, 23 92 M128.11 92 C91.48 90.76, 55.92 90.55, 23 92 M23 92 C8.74 90.96, 1.71 85.75, 0 69 M23 92 C6.03 91.54, -1.93 83.12, 0 69 M0 69 C1.56 54.25, -1.73 36.86, 0 23 M0 69 C0.06 58.64, 0.41 47.47, 0 23 M0 23 C-1.93 6.41, 6.34 1.39, 23 0 M0 23 C1.2 7.59, 6.45 -1.31, 23 0" stroke="#000000" stroke-width="1" fill="none"></path></g><g transform="translate(305.7555491129556 143.82216525607646) rotate(0 35.0244140625 23)"><text x="35.0244140625" y="0" font-family="Helvetica, Segoe UI Emoji" font-size="20px" fill="#000000" text-anchor="middle" style="white-space: pre;" direction="ltr" dominant-baseline="text-before-edge">settable</text><text x="35.0244140625" y="23" font-family="Helvetica, Segoe UI Emoji" font-size="20px" fill="#000000" text-anchor="middle" style="white-space: pre;" direction="ltr" dominant-baseline="text-before-edge">signal</text></g><g stroke-linecap="round" transform="translate(265.5554707845051 262.56654315524645) rotate(0 75.55555555555554 46.00001864963106)"><path d="M23 0 M23 0 C58.4 0.26, 97.36 -0.04, 128.11 0 M23 0 C59.62 -0.76, 95.92 -0.32, 128.11 0 M128.11 0 C143.15 0.82, 149.19 7.91, 151.11 23 M128.11 0 C142.97 1.8, 152.29 7.9, 151.11 23 M151.11 23 C151.77 38.85, 149.59 52.13, 151.11 69 M151.11 23 C150.72 35.43, 149.69 49.29, 151.11 69 M151.11 69 C149.79 84.3, 142.29 90.27, 128.11 92 M151.11 69 C151.62 86.48, 142.92 90.08, 128.11 92 M128.11 92 C89.19 94.05, 48.4 92.11, 23 92 M128.11 92 C90.25 92, 51.84 91.57, 23 92 M23 92 C6.66 90.94, -1.94 84.45, 0 69 M23 92 C9.43 91.75, -0.78 84.44, 0 69 M0 69 C-0.28 56.07, -0.19 39.73, 0 23 M0 69 C0.08 54.86, 0.41 41.42, 0 23 M0 23 C0.58 6.47, 9.63 -1.3, 23 0 M0 23 C1.84 8.68, 7.4 -1.67, 23 0" stroke="#000000" stroke-width="1" fill="none"></path></g><g transform="translate(314.06654527452224 297.32213940090617) rotate(0 26.1279296875 11.5)"><text x="26.1279296875" y="0" font-family="Helvetica, Segoe UI Emoji" font-size="20px" fill="#000000" text-anchor="middle" style="white-space: pre;" direction="ltr" dominant-baseline="text-before-edge">signal</text></g><g stroke-linecap="round" transform="translate(266.44441392686616 394.3443701002333) rotate(0 64.2222425672743 64.2222425672743)"><path d="M56.13 1.49 C65.5 -0.84, 77.76 -0.04, 86.99 3.14 C96.22 6.33, 104.81 13.02, 111.53 20.58 C118.24 28.13, 124.65 38.67, 127.28 48.48 C129.9 58.28, 129.76 69.79, 127.27 79.39 C124.79 89, 118.95 98.8, 112.37 106.1 C105.79 113.4, 97.2 119.63, 87.78 123.2 C78.37 126.77, 65.94 128.55, 55.86 127.51 C45.78 126.48, 35.44 122.6, 27.31 116.98 C19.19 111.37, 11.75 102.66, 7.13 93.83 C2.5 84.99, -0.35 73.81, -0.41 63.97 C-0.48 54.12, 2.25 43.52, 6.75 34.77 C11.24 26.03, 17.79 17.22, 26.55 11.48 C35.3 5.74, 53.52 1.92, 59.27 0.32 C65.02 -1.27, 61.19 1.02, 61.05 1.93 M91.76 5.11 C100.77 8.35, 107.37 17.66, 113.37 25.3 C119.38 32.95, 125.67 41.61, 127.79 50.98 C129.92 60.36, 129.16 71.86, 126.14 81.57 C123.12 91.27, 116.75 101.85, 109.68 109.2 C102.61 116.56, 93.29 122.62, 83.71 125.7 C74.12 128.78, 61.92 129.67, 52.17 127.68 C42.42 125.69, 32.73 119.81, 25.22 113.76 C17.71 107.72, 11.2 100.27, 7.09 91.41 C2.98 82.55, 0 70.62, 0.55 60.62 C1.1 50.62, 5.3 39.92, 10.37 31.42 C15.44 22.92, 22.64 15.01, 30.97 9.6 C39.3 4.19, 50.65 -0.35, 60.35 -1.04 C70.05 -1.73, 84.07 3.98, 89.17 5.46 C94.27 6.94, 91.31 6.98, 90.95 7.86" stroke="#000000" stroke-width="1" fill="none"></path></g><g transform="translate(306.47732952181343 447.1546294451806) rotate(0 24.27734375 11.5)"><text x="24.27734375" y="0" font-family="Helvetica, Segoe UI Emoji" font-size="20px" fill="#000000" text-anchor="middle" style="white-space: pre;" direction="ltr" dominant-baseline="text-before-edge">effect</text></g><g transform="translate(450.7191992865667 146.29999516805026) rotate(0 92.87499999999997 27.599999999999994)"><text x="0" y="0" font-family="Helvetica, Segoe UI Emoji" font-size="16px" fill="#000000" text-anchor="start" style="white-space: pre;" direction="ltr" dominant-baseline="text-before-edge">signal('angular-examples')</text><text x="0" y="18.4" font-family="Helvetica, Segoe UI Emoji" font-size="16px" fill="#000000" text-anchor="start" style="white-space: pre;" direction="ltr" dominant-baseline="text-before-edge">valueVersion -&gt; 0</text><text x="0" y="36.8" font-family="Helvetica, Segoe UI Emoji" font-size="16px" fill="#000000" text-anchor="start" style="white-space: pre;" direction="ltr" dominant-baseline="text-before-edge"></text></g><g stroke-linecap="round"><g transform="translate(271.77771674262135 553.1222089131674) rotate(0 595.6261595629055 -0.3401589253322337)"><path d="M-0.23 0.55 C198.73 0.68, 994.26 0.76, 1193.06 0.5 M-1.8 -0.21 C197.1 -0.41, 993.47 -1.36, 1192.4 -1.35" stroke="#000000" stroke-width="4" fill="none"></path></g><g transform="translate(271.77771674262135 553.1222089131674) rotate(0 595.6261595629055 -0.3401589253322337)"><path d="M1165.13 9.86 C1171.94 6.56, 1176.29 3.36, 1194.17 -3.27 M1164.69 9.18 C1172.33 7.07, 1181.15 2.77, 1193.3 -1.91" stroke="#000000" stroke-width="4" fill="none"></path></g><g transform="translate(271.77771674262135 553.1222089131674) rotate(0 595.6261595629055 -0.3401589253322337)"><path d="M1165.12 -10.67 C1171.88 -8.97, 1176.24 -7.17, 1194.17 -3.27 M1164.67 -11.34 C1172.15 -7.5, 1180.96 -5.86, 1193.3 -1.91" stroke="#000000" stroke-width="4" fill="none"></path></g></g><mask></mask><g transform="translate(281.99995252821174 569.8333335876465) rotate(0 18.8916015625 11.5)"><text x="0" y="0" font-family="Helvetica, Segoe UI Emoji" font-size="20px" fill="#000000" text-anchor="start" style="white-space: pre;" direction="ltr" dominant-baseline="text-before-edge">time</text></g><g transform="translate(479.7592431931268 267.226952894907) rotate(0 92.02734375000003 36.8)"><text x="0" y="0" font-family="Helvetica, Segoe UI Emoji" font-size="16px" fill="#000000" text-anchor="start" style="white-space: pre;" direction="ltr" dominant-baseline="text-before-edge">computed(() =&gt; this.title())</text><text x="0" y="18.4" font-family="Helvetica, Segoe UI Emoji" font-size="16px" fill="#000000" text-anchor="start" style="white-space: pre;" direction="ltr" dominant-baseline="text-before-edge">trackingVersion -&gt; 0</text><text x="0" y="36.8" font-family="Helvetica, Segoe UI Emoji" font-size="16px" fill="#000000" text-anchor="start" style="white-space: pre;" direction="ltr" dominant-baseline="text-before-edge">valueVersion -&gt; 0</text><text x="0" y="55.199999999999996" font-family="Helvetica, Segoe UI Emoji" font-size="16px" fill="#000000" text-anchor="start" style="white-space: pre;" direction="ltr" dominant-baseline="text-before-edge">stale -&gt; true</text></g><g transform="translate(507.3832082597036 409.9921150934129) rotate(0 143.75781250000003 46)"><text x="0" y="0" font-family="Helvetica, Segoe UI Emoji" font-size="16px" fill="#000000" text-anchor="start" style="white-space: pre;" direction="ltr" dominant-baseline="text-before-edge">effect(() =&gt; this.description()))</text><text x="0" y="18.4" font-family="Helvetica, Segoe UI Emoji" font-size="16px" fill="#000000" text-anchor="start" style="white-space: pre;" direction="ltr" dominant-baseline="text-before-edge">trackingVersion -&gt; 0</text><text x="0" y="36.8" font-family="Helvetica, Segoe UI Emoji" font-size="16px" fill="#000000" text-anchor="start" style="white-space: pre;" direction="ltr" dominant-baseline="text-before-edge"></text><text x="0" y="55.199999999999996" font-family="Helvetica, Segoe UI Emoji" font-size="16px" fill="#000000" text-anchor="start" style="white-space: pre;" direction="ltr" dominant-baseline="text-before-edge">add to watchQueue</text><text x="0" y="73.6" font-family="Helvetica, Segoe UI Emoji" font-size="16px" fill="#000000" text-anchor="start" style="white-space: pre;" direction="ltr" dominant-baseline="text-before-edge">Promise.resolve().then(runWatchQueue)</text></g><g transform="translate(909.7076236785404 432.56656810215543) rotate(0 103.67578125 27.599999999999994)"><text x="0" y="0" font-family="Helvetica, Segoe UI Emoji" font-size="16px" fill="#e67700" text-anchor="start" style="white-space: pre;" direction="ltr" dominant-baseline="text-before-edge">trackingVersion++</text><text x="0" y="18.4" font-family="Helvetica, Segoe UI Emoji" font-size="16px" fill="#e67700" text-anchor="start" style="white-space: pre;" direction="ltr" dominant-baseline="text-before-edge">setActiveConsumer(this)</text><text x="0" y="36.8" font-family="Helvetica, Segoe UI Emoji" font-size="16px" fill="#e67700" text-anchor="start" style="white-space: pre;" direction="ltr" dominant-baseline="text-before-edge">run effect -&gt; this.description()</text></g><g transform="translate(946.3445932297482 279.52702775985483) rotate(0 95.37109375 27.599999999999994)"><text x="0" y="0" font-family="Helvetica, Segoe UI Emoji" font-size="16px" fill="#5c940d" text-anchor="start" style="white-space: pre;" direction="ltr" dominant-baseline="text-before-edge">trackingVersion++</text><text x="0" y="18.4" font-family="Helvetica, Segoe UI Emoji" font-size="16px" fill="#5c940d" text-anchor="start" style="white-space: pre;" direction="ltr" dominant-baseline="text-before-edge">setActiveConsumer(this)</text><text x="0" y="36.8" font-family="Helvetica, Segoe UI Emoji" font-size="16px" fill="#5c940d" text-anchor="start" style="white-space: pre;" direction="ltr" dominant-baseline="text-before-edge">run computed -&gt;  this.title()</text></g><g transform="translate(144.85706874302434 150.51890691121423) rotate(0 40.576171875 11.5)"><text x="0" y="0" font-family="Helvetica, Segoe UI Emoji" font-size="20px" fill="#000000" text-anchor="start" style="white-space: pre;" direction="ltr" dominant-baseline="text-before-edge">Producer</text></g><g transform="translate(144.85712977818065 284.6618468874977) rotate(0 46.1279296875 23)"><text x="0" y="0" font-family="Helvetica, Segoe UI Emoji" font-size="20px" fill="#000000" text-anchor="start" style="white-space: pre;" direction="ltr" dominant-baseline="text-before-edge">Producer</text><text x="0" y="23" font-family="Helvetica, Segoe UI Emoji" font-size="20px" fill="#000000" text-anchor="start" style="white-space: pre;" direction="ltr" dominant-baseline="text-before-edge">Consumer</text></g><g transform="translate(150.57144165039045 449.947596050444) rotate(0 46.1279296875 11.5)"><text x="0" y="0" font-family="Helvetica, Segoe UI Emoji" font-size="20px" fill="#000000" text-anchor="start" style="white-space: pre;" direction="ltr" dominant-baseline="text-before-edge">Consumer</text></g><g transform="translate(42.66660563151038 148.23329289754247) rotate(0 26.1279296875 11.5)"><text x="0" y="0" font-family="Helvetica, Segoe UI Emoji" font-size="20px" fill="#000000" text-anchor="start" style="white-space: pre;" direction="ltr" dominant-baseline="text-before-edge">signal</text></g><g transform="translate(10 292.23333358764654) rotate(0 43.916015625 11.5)"><text x="0" y="0" font-family="Helvetica, Segoe UI Emoji" font-size="20px" fill="#000000" text-anchor="start" style="white-space: pre;" direction="ltr" dominant-baseline="text-before-edge">computed</text></g><g transform="translate(46.666636149088504 452.23333358764654) rotate(0 24.27734375 11.5)"><text x="0" y="0" font-family="Helvetica, Segoe UI Emoji" font-size="20px" fill="#000000" text-anchor="start" style="white-space: pre;" direction="ltr" dominant-baseline="text-before-edge">effect</text></g><g transform="translate(1210.1571117582776 257.09532837640666) rotate(0 127.15234375 55.19999999999999)"><text x="0" y="0" font-family="Helvetica, Segoe UI Emoji" font-size="16px" fill="#0b7285" text-anchor="start" style="white-space: pre;" direction="ltr" dominant-baseline="text-before-edge">setActiveConsumer(prevConsumer)</text><text x="0" y="18.4" font-family="Helvetica, Segoe UI Emoji" font-size="16px" fill="#0b7285" text-anchor="start" style="white-space: pre;" direction="ltr" dominant-baseline="text-before-edge">producerAccessed(this)</text><text x="0" y="36.8" font-family="Helvetica, Segoe UI Emoji" font-size="16px" fill="#0b7285" text-anchor="start" style="white-space: pre;" direction="ltr" dominant-baseline="text-before-edge">create edge</text><text x="0" y="55.199999999999996" font-family="Helvetica, Segoe UI Emoji" font-size="16px" fill="#0b7285" text-anchor="start" style="white-space: pre;" direction="ltr" dominant-baseline="text-before-edge">stale -&gt; false</text><text x="0" y="73.6" font-family="Helvetica, Segoe UI Emoji" font-size="16px" fill="#0b7285" text-anchor="start" style="white-space: pre;" direction="ltr" dominant-baseline="text-before-edge">valueVersion++</text><text x="0" y="92" font-family="Helvetica, Segoe UI Emoji" font-size="16px" fill="#0b7285" text-anchor="start" style="white-space: pre;" direction="ltr" dominant-baseline="text-before-edge">return value</text></g><g transform="translate(19.30002339680982 10) rotate(0 94.0517578125 20.69999999999999)"><text x="0" y="0" font-family="Helvetica, Segoe UI Emoji" font-size="36px" fill="#000000" text-anchor="start" style="white-space: pre;" direction="ltr" dominant-baseline="text-before-edge">Initialization</text></g><g transform="translate(1011.966650099981 144.3333059038435) rotate(0 84.03515625 27.599999999999994)"><text x="0" y="0" font-family="Helvetica, Segoe UI Emoji" font-size="16px" fill="#5f3dc4" text-anchor="start" style="white-space: pre;" direction="ltr" dominant-baseline="text-before-edge">producerAccessed(this)</text><text x="0" y="18.4" font-family="Helvetica, Segoe UI Emoji" font-size="16px" fill="#5f3dc4" text-anchor="start" style="white-space: pre;" direction="ltr" dominant-baseline="text-before-edge">create edge</text><text x="0" y="36.8" font-family="Helvetica, Segoe UI Emoji" font-size="16px" fill="#5f3dc4" text-anchor="start" style="white-space: pre;" direction="ltr" dominant-baseline="text-before-edge">return value</text></g><g transform="translate(1307.8963477725074 450.72388599940683) rotate(0 17.796875 9.200000000000003)"><text x="0" y="0" font-family="Helvetica, Segoe UI Emoji" font-size="16px" fill="#000000" text-anchor="start" style="white-space: pre;" direction="ltr" dominant-baseline="text-before-edge">done</text></g><g stroke-linecap="round" transform="translate(788.9525199769032 591.9995610070607) rotate(0 47.95557996961804 29.19649728912755)"><path d="M14.6 0 M14.6 0 C31.11 -0.85, 49.25 0.09, 81.31 0 M14.6 0 C37.01 -0.57, 60.1 -0.95, 81.31 0 M81.31 0 C91.4 0.21, 95.57 5.72, 95.91 14.6 M81.31 0 C88.96 1.15, 94.98 5.03, 95.91 14.6 M95.91 14.6 C96.71 24.76, 95.32 33.45, 95.91 43.79 M95.91 14.6 C96.1 21.88, 95.59 30.95, 95.91 43.79 M95.91 43.79 C94.15 52.65, 90.35 59.63, 81.31 58.39 M95.91 43.79 C97.07 53.6, 93.28 60.51, 81.31 58.39 M81.31 58.39 C59.2 59.54, 38.78 59.74, 14.6 58.39 M81.31 58.39 C54.88 57.79, 29.26 59.4, 14.6 58.39 M14.6 58.39 C5.81 58.84, -0.66 54.98, 0 43.79 M14.6 58.39 C3.34 57.87, 1.49 51.54, 0 43.79 M0 43.79 C2.19 35.75, -0.43 26.4, 0 14.6 M0 43.79 C0.62 36.71, -0.5 31.83, 0 14.6 M0 14.6 C1.47 5.77, 3.2 0.02, 14.6 0 M0 14.6 C-2.2 7.1, 6.36 0.13, 14.6 0" stroke="#000000" stroke-width="1" fill="none"></path></g><g transform="translate(813.69531802394 606.724753582956) rotate(0 22.22296905517578 14.598242726045498)"><text x="22.22296905517578" y="0" font-family="Helvetica, Segoe UI Emoji" font-size="12.694124109604779px" fill="#000000" text-anchor="middle" style="white-space: pre;" direction="ltr" dominant-baseline="text-before-edge">settable</text><text x="22.22296905517578" y="14.598242726045495" font-family="Helvetica, Segoe UI Emoji" font-size="12.694124109604779px" fill="#000000" text-anchor="middle" style="white-space: pre;" direction="ltr" dominant-baseline="text-before-edge">signal</text></g><g stroke-linecap="round" transform="translate(888.8311297704299 680.799556429424) rotate(0 51.15553114149304 31.144703645388475)"><path d="M15.57 0 M15.57 0 C40.52 0.6, 65.99 0.42, 86.74 0 M15.57 0 C40.09 -0.47, 63.47 0.35, 86.74 0 M86.74 0 C96.78 0.85, 100.5 6.19, 102.31 15.57 M86.74 0 C96.19 0.17, 102.53 7.25, 102.31 15.57 M102.31 15.57 C101.54 27.07, 101.97 38.78, 102.31 46.72 M102.31 15.57 C101.72 25.12, 101.41 34.1, 102.31 46.72 M102.31 46.72 C101.61 58.33, 98.12 62.35, 86.74 62.29 M102.31 46.72 C104.55 59.22, 97.45 62.9, 86.74 62.29 M86.74 62.29 C65.9 64.19, 47.92 62.83, 15.57 62.29 M86.74 62.29 C60.65 62.26, 37 61.83, 15.57 62.29 M15.57 62.29 C4.53 63.75, -1.33 56.64, 0 46.72 M15.57 62.29 C6.68 60.3, 0.53 55.5, 0 46.72 M0 46.72 C-0.94 38.49, -2.01 27.92, 0 15.57 M0 46.72 C-0.64 37.96, 0.51 28.47, 0 15.57 M0 15.57 C-1.67 5.21, 3.28 1.94, 15.57 0 M0 15.57 C1.5 5.32, 6.05 1.24, 15.57 0" stroke="#000000" stroke-width="1" fill="none"></path></g><g transform="translate(921.6775183581519 704.3311283040916) rotate(0 17.688575744628906 7.786172754624317)"><text x="17.688575744628906" y="0" font-family="Helvetica, Segoe UI Emoji" font-size="13.541170008042279px" fill="#000000" text-anchor="middle" style="white-space: pre;" direction="ltr" dominant-baseline="text-before-edge">signal</text></g><g stroke-linecap="round" transform="translate(816.7858100770006 786.2273264082652) rotate(0 45.42219373914929 45.42219373914929)"><path d="M47.74 0.74 C55.36 0.59, 64.77 4.21, 71.46 8.89 C78.15 13.57, 84.73 21.38, 87.88 28.83 C91.03 36.28, 91.92 45.61, 90.35 53.6 C88.78 61.58, 84.23 70.69, 78.45 76.72 C72.68 82.75, 63.63 87.79, 55.72 89.77 C47.81 91.76, 38.67 91.31, 31 88.63 C23.32 85.94, 14.89 80.17, 9.68 73.67 C4.47 67.17, 0.5 57.74, -0.27 49.63 C-1.04 41.53, 1.16 32.35, 5.07 25.04 C8.98 17.73, 14.98 9.86, 23.19 5.77 C31.39 1.68, 47.86 0.93, 54.29 0.48 C60.71 0.03, 61.81 2.31, 61.71 3.09 M60.68 3.53 C68.19 5.34, 75.71 10.94, 80.64 16.87 C85.58 22.81, 89.19 31.15, 90.28 39.14 C91.38 47.12, 90.58 57.08, 87.23 64.79 C83.88 72.51, 77.31 80.96, 70.18 85.43 C63.05 89.9, 53.03 92.26, 44.44 91.62 C35.86 90.99, 25.69 86.17, 18.65 81.62 C11.61 77.07, 5.1 71.54, 2.21 64.31 C-0.68 57.09, -0.19 46.32, 1.33 38.26 C2.84 30.21, 6.08 22.16, 11.3 15.99 C16.51 9.81, 24.49 3.74, 32.64 1.21 C40.79 -1.31, 55.75 0.72, 60.19 0.85 C64.63 0.98, 59.65 0.78, 59.29 1.97" stroke="#000000" stroke-width="1" fill="none"></path></g><g transform="translate(844.9256001068284 823.397622601236) rotate(0 17.1640625 8.133556336856941)"><text x="17.1640625" y="0" font-family="Helvetica, Segoe UI Emoji" font-size="14.145315368446841px" fill="#000000" text-anchor="middle" style="white-space: pre;" direction="ltr" dominant-baseline="text-before-edge">effect</text></g><g stroke-linecap="round"><g transform="translate(922.3773743601625 744.4725363503856) rotate(0 -12.94973059279863 23.10233662297341)"><path d="M-0.37 -0.2 C-4.73 7.45, -22.1 38.38, -26.47 46.31 M1.64 -1.35 C-2.88 6.42, -22.68 39.78, -27.54 47.55" stroke="#0b7285" stroke-width="1" fill="none"></path></g></g><mask></mask><g stroke-linecap="round"><g transform="translate(876.4220702156185 653.2467682248068) rotate(0 21.50717230610138 13.91867264318386)"><path d="M-0.06 -0.52 C7.37 4.06, 37.36 22.28, 44.56 26.77 M-1.54 1.82 C5.79 6.68, 36.75 24.06, 44.02 28.36" stroke="#5f3dc4" stroke-width="1" fill="none"></path></g></g><mask></mask><g transform="translate(892.53324914357 629.2945141867983) rotate(0 8.44921875 9.200000000000003)"><text x="0" y="0" font-family="Helvetica, Segoe UI Emoji" font-size="16px" fill="#5f3dc4" text-anchor="start" style="white-space: pre;" direction="ltr" dominant-baseline="text-before-edge">v0</text></g><g transform="translate(924.9777071513824 653.1041009691023) rotate(0 6.671875 9.200000000000003)"><text x="0" y="0" font-family="Helvetica, Segoe UI Emoji" font-size="16px" fill="#5f3dc4" text-anchor="start" style="white-space: pre;" direction="ltr" dominant-baseline="text-before-edge">t1</text></g><g transform="translate(937.5997910272504 746.2152866787378) rotate(0 8.44921875 9.200000000000003)"><text x="0" y="0" font-family="Helvetica, Segoe UI Emoji" font-size="16px" fill="#0b7285" text-anchor="start" style="white-space: pre;" direction="ltr" dominant-baseline="text-before-edge">v1</text></g><g transform="translate(915.6443466913131 791.7707879808212) rotate(0 6.671875 9.200000000000003)"><text x="0" y="0" font-family="Helvetica, Segoe UI Emoji" font-size="16px" fill="#0b7285" text-anchor="start" style="white-space: pre;" direction="ltr" dominant-baseline="text-before-edge">t1</text></g><g transform="translate(750.7435942150296 609.4596613202773) rotate(0 8.44921875 9.2)"><text x="0" y="0" font-family="Helvetica, Segoe UI Emoji" font-size="16px" fill="#000000" text-anchor="start" style="white-space: pre;" direction="ltr" dominant-baseline="text-before-edge">v0</text></g><g transform="translate(857.6007196335563 686.48812550136) rotate(0 6.671875 9.200000000000003)"><text x="0" y="0" font-family="Helvetica, Segoe UI Emoji" font-size="16px" fill="#5c940d" text-anchor="start" style="white-space: pre;" direction="ltr" dominant-baseline="text-before-edge">t1</text></g><g transform="translate(789.6761983235674 796.773933955601) rotate(0 6.671875 9.200000000000003)"><text x="0" y="0" font-family="Helvetica, Segoe UI Emoji" font-size="16px" fill="#e67700" text-anchor="start" style="white-space: pre;" direction="ltr" dominant-baseline="text-before-edge">t1</text></g><g transform="translate(858.4580019996274 710.7738833836144) rotate(0 8.44921875 9.200000000000003)"><text x="0" y="0" font-family="Helvetica, Segoe UI Emoji" font-size="16px" fill="#0b7285" text-anchor="start" style="white-space: pre;" direction="ltr" dominant-baseline="text-before-edge">v1</text></g><g stroke-linecap="round"><g transform="translate(810.062045142764 493.13817432948497) rotate(0 43.269770624332295 0.0787964805534429)"><path d="M0.76 -0.62 C15.1 -0.74, 72.7 0.45, 86.84 0.4 M-0.3 1.67 C13.87 1.69, 72.08 -1.22, 86.22 -1.51" stroke="#000000" stroke-width="1" fill="none"></path></g><g transform="translate(810.062045142764 493.13817432948497) rotate(0 43.269770624332295 0.0787964805534429)"><path d="M57.4 10.83 C69.13 4.47, 77.07 1.36, 85.66 -3.39 M58.21 8.81 C69.44 6.07, 79.39 1.34, 85.32 -1.69" stroke="#000000" stroke-width="1" fill="none"></path></g><g transform="translate(810.062045142764 493.13817432948497) rotate(0 43.269770624332295 0.0787964805534429)"><path d="M56.64 -9.68 C68.85 -8.55, 77.06 -4.18, 85.66 -3.39 M57.46 -11.7 C68.89 -6.52, 79.14 -3.34, 85.32 -1.69" stroke="#000000" stroke-width="1" fill="none"></path></g></g><mask></mask><g transform="translate(826.7763308570495 448.2810314723421) rotate(0 20.8984375 9.200000000000003)"><text x="0" y="0" font-family="Helvetica, Segoe UI Emoji" font-size="16px" fill="#000000" text-anchor="start" style="white-space: pre;" direction="ltr" dominant-baseline="text-before-edge">async</text></g></svg>